{"glyphs":{"0":{"ha":663,"x_min":36,"x_max":626,"o":"m 333 -18 q 180 19 247 -18 q 74 123 113 57 q 36 271 36 189 q 74 417 36 353 q 180 518 113 482 q 333 554 247 554 q 486 517 419 554 q 590 415 553 481 q 626 268 626 350 q 589 121 626 186 q 485 19 551 56 q 333 -18 418 -18 m 347 11 q 444 74 411 11 q 476 249 476 136 q 433 457 476 389 q 322 525 389 525 q 221 460 257 525 q 185 286 185 396 q 229 87 185 163 q 347 11 274 11 z "},"1":{"ha":461,"x_min":40,"x_max":438,"o":"m 57 0 q 53 8 53 0 q 57 17 53 17 q 137 24 111 17 q 172 51 163 31 q 182 113 182 71 l 182 357 q 173 420 182 401 q 140 439 164 439 q 51 413 118 439 l 50 413 q 43 419 46 413 q 46 429 40 426 l 299 549 q 303 550 300 550 q 310 547 307 550 q 313 539 313 543 l 313 113 q 321 50 313 69 q 354 24 329 31 q 433 17 379 17 q 438 8 438 17 q 433 0 438 0 q 356 1 383 0 l 246 3 l 136 1 q 57 0 107 0 z "},"2":{"ha":558,"x_min":47,"x_max":526,"o":"m 51 38 q 228 205 172 149 q 306 301 283 261 q 329 383 329 342 q 303 473 329 435 q 228 511 276 511 q 144 466 176 511 q 78 326 111 421 q 72 325 78 325 q 61 329 60 325 l 122 567 q 128 569 122 569 q 135 567 132 569 q 138 564 139 565 q 136 547 136 557 q 157 524 136 524 q 199 533 169 524 q 308 554 258 554 q 428 518 385 554 q 471 422 471 482 q 415 291 471 350 q 260 163 358 232 l 204 121 q 202 114 200 117 q 211 111 204 111 q 378 115 322 111 q 467 134 435 119 q 510 181 500 149 q 519 185 511 185 q 526 181 526 185 l 497 15 q 494 5 497 10 q 485 0 490 0 l 60 0 q 51 8 54 0 q 47 25 47 17 q 51 38 47 33 z "},"3":{"ha":547,"x_min":38,"x_max":504,"o":"m 308 182 q 455 111 406 167 q 504 -17 504 56 q 458 -150 504 -82 q 315 -278 411 -218 q 75 -382 218 -339 q 66 -376 69 -383 q 68 -367 63 -369 q 286 -215 219 -306 q 353 -35 353 -124 q 311 97 353 47 q 199 146 269 146 q 142 138 171 146 q 135 144 138 136 q 136 154 132 153 q 278 230 233 179 q 322 372 322 281 q 301 478 322 442 q 240 515 281 515 q 134 475 182 515 q 56 358 86 435 q 50 357 56 357 q 39 363 38 357 l 90 565 q 96 568 93 568 q 104 566 100 568 q 107 563 108 564 q 104 547 104 551 q 128 524 104 524 q 175 535 144 524 q 232 549 208 544 q 286 554 256 554 q 416 508 369 554 q 463 396 463 461 q 422 270 463 329 q 308 182 381 211 z "},"4":{"ha":633,"x_min":32,"x_max":588,"o":"m 583 67 q 588 44 588 67 q 585 15 588 29 q 581 1 583 1 l 489 6 l 489 -187 q 478 -207 489 -201 l 368 -261 q 360 -264 360 -264 q 356 -253 356 -264 l 356 10 q 47 11 272 11 q 36 17 40 11 q 38 28 32 22 l 468 550 q 476 553 471 553 q 485 551 481 553 q 489 544 489 549 l 489 64 q 583 67 517 64 m 131 58 q 356 60 292 58 l 356 340 l 124 68 q 131 58 115 58 z "},"5":{"ha":568,"x_min":79,"x_max":500,"o":"m 124 272 q 409 201 318 269 q 500 13 500 132 q 458 -131 500 -67 q 328 -256 417 -196 q 94 -382 240 -317 l 93 -382 q 84 -376 88 -382 q 86 -367 81 -369 q 297 -196 236 -282 q 357 -11 357 -110 q 289 168 357 104 q 94 232 221 232 q 83 237 88 232 q 81 249 79 242 l 125 496 q 129 508 126 506 q 143 511 132 510 q 378 540 318 532 q 455 558 438 549 q 479 588 472 567 q 488 591 481 592 q 494 585 496 590 l 467 431 q 454 410 463 415 q 428 406 446 406 l 164 400 q 143 381 146 400 l 124 272 z "},"6":{"ha":646,"x_min":51,"x_max":611,"o":"m 429 400 q 565 347 519 400 q 611 221 611 293 q 572 101 611 156 q 466 14 533 46 q 319 -18 399 -18 q 124 63 196 -18 q 51 288 51 144 q 113 544 51 418 q 288 768 174 669 q 556 918 403 867 q 564 913 561 919 q 563 903 567 906 q 360 747 443 843 q 235 536 276 650 q 193 307 193 422 q 213 160 193 226 q 271 54 233 93 q 357 15 308 15 q 439 59 408 15 q 469 181 469 103 q 440 298 469 254 q 354 342 411 342 q 307 333 329 342 q 256 303 285 324 q 251 301 254 301 q 243 306 247 301 q 240 313 239 310 q 429 400 321 400 z "},"7":{"ha":596,"x_min":17,"x_max":546,"o":"m 246 -294 q 217 -328 236 -319 l 103 -382 l 101 -382 q 94 -378 97 -382 q 93 -372 92 -375 l 454 404 q 449 414 460 414 q 175 408 251 414 q 73 385 99 403 q 35 319 47 367 q 28 317 32 317 q 20 319 24 317 q 18 324 17 321 l 81 574 q 90 576 82 576 q 97 572 99 575 q 96 558 96 567 q 109 540 96 544 q 163 536 122 536 l 531 536 q 541 530 536 536 q 543 518 546 524 l 246 -294 z "},"8":{"ha":679,"x_min":51,"x_max":643,"o":"m 425 489 q 542 410 503 439 q 613 335 582 381 q 643 228 643 289 q 601 101 643 157 q 489 13 560 44 q 335 -18 418 -18 q 187 13 251 -18 q 87 97 122 44 q 51 213 51 150 q 100 353 51 286 q 233 460 149 419 q 162 533 188 494 q 136 622 136 572 q 169 721 136 682 q 253 778 203 760 q 357 797 304 797 q 467 776 419 797 q 540 721 515 754 q 565 653 565 688 q 528 564 565 610 q 425 489 490 518 m 343 768 q 288 742 308 768 q 267 678 267 717 q 301 585 267 625 q 403 501 336 546 q 436 568 425 538 q 447 632 447 599 q 417 729 447 690 q 343 768 386 768 m 372 13 q 472 60 435 13 q 510 172 510 107 q 484 264 510 224 q 421 333 458 304 q 321 401 383 363 l 263 439 q 213 355 231 404 q 194 250 194 306 q 217 133 194 188 q 281 45 240 78 q 372 13 322 13 z "},"9":{"ha":646,"x_min":36,"x_max":594,"o":"m 228 136 q 119 167 163 136 q 56 243 75 197 q 36 338 36 289 q 108 494 36 433 q 297 554 181 554 q 515 469 435 554 q 594 239 594 385 q 534 -11 594 114 q 360 -235 474 -136 q 90 -382 246 -335 q 83 -376 86 -383 q 85 -367 79 -369 q 286 -216 203 -312 q 411 -6 369 -119 q 453 214 453 107 q 435 356 453 285 q 378 476 418 428 q 278 525 339 525 q 176 372 176 525 q 206 240 176 289 q 293 190 235 190 q 341 200 318 190 q 392 233 364 210 q 396 235 393 235 q 403 231 400 235 q 406 224 407 226 q 328 158 374 181 q 228 136 282 136 z "},"\u0000":{"ha":0,"x_min":0,"x_max":0,"o":""},"\r":{"ha":325,"x_min":0,"x_max":0,"o":""}," ":{"ha":325,"x_min":0,"x_max":0,"o":""},"A":{"ha":908,"x_min":-17,"x_max":921,"o":"m 917 17 q 921 8 921 17 q 917 0 921 0 q 839 3 892 0 q 746 6 781 6 q 657 3 710 6 q 583 0 607 0 q 578 8 578 0 q 583 17 578 17 q 643 26 625 17 q 661 58 661 35 q 644 117 661 79 l 522 410 l 303 410 l 208 179 q 186 94 186 126 q 218 35 186 54 q 317 17 250 17 q 322 8 322 17 q 315 0 322 0 q 236 3 297 0 q 131 6 167 6 q 53 3 97 6 q -11 0 14 0 q -17 8 -17 0 q -11 17 -17 17 q 80 62 31 17 q 165 189 129 107 l 458 881 q 468 885 458 885 q 486 879 481 885 l 797 117 q 828 51 818 68 q 858 26 839 35 q 917 17 878 17 m 319 449 l 507 449 l 413 675 l 319 449 z "},"Á":{"ha":908,"x_min":-17,"x_max":921,"o":"m 917 17 q 921 8 921 17 q 917 0 921 0 q 839 3 892 0 q 746 6 781 6 q 657 3 710 6 q 583 0 607 0 q 578 8 578 0 q 583 17 578 17 q 643 26 625 17 q 661 58 661 35 q 644 117 661 79 l 522 410 l 303 410 l 208 179 q 186 94 186 126 q 218 35 186 54 q 317 17 250 17 q 322 8 322 17 q 315 0 322 0 q 236 3 297 0 q 131 6 167 6 q 53 3 97 6 q -11 0 14 0 q -17 8 -17 0 q -11 17 -17 17 q 80 62 31 17 q 165 189 129 107 l 458 881 q 468 885 458 885 q 486 879 481 885 l 797 117 q 828 51 818 68 q 858 26 839 35 q 917 17 878 17 m 319 449 l 507 449 l 413 675 l 319 449 m 382 942 q 374 948 376 942 q 375 957 371 954 q 467 1044 410 985 q 524 1101 524 1101 q 574 1097 531 1108 q 653 1069 618 1085 q 674 1050 689 1053 q 385 943 525 1011 l 382 942 z "},"Ă":{"ha":908,"x_min":-17,"x_max":921,"o":"m 917 17 q 921 8 921 17 q 917 0 921 0 q 839 3 892 0 q 746 6 781 6 q 657 3 710 6 q 583 0 607 0 q 578 8 578 0 q 583 17 578 17 q 643 26 625 17 q 661 58 661 35 q 644 117 661 79 l 522 410 l 303 410 l 208 179 q 186 94 186 126 q 218 35 186 54 q 317 17 250 17 q 322 8 322 17 q 315 0 322 0 q 236 3 297 0 q 131 6 167 6 q 53 3 97 6 q -11 0 14 0 q -17 8 -17 0 q -11 17 -17 17 q 80 62 31 17 q 165 189 129 107 l 458 881 q 468 885 458 885 q 486 879 481 885 l 797 117 q 828 51 818 68 q 858 26 839 35 q 917 17 878 17 m 319 449 l 507 449 l 413 675 l 319 449 m 461 924 q 377 958 415 924 q 325 1058 339 993 q 355 1074 324 1067 q 414 1082 386 1082 q 438 1076 436 1082 q 466 1023 447 1042 q 507 1004 485 1004 q 545 1021 528 1004 q 572 1071 563 1038 q 579 1075 572 1075 q 590 1072 585 1075 q 594 1067 596 1069 q 544 960 582 997 q 461 924 507 924 z "},"Ắ":{"ha":908,"x_min":-17,"x_max":921,"o":"m 917 17 q 921 8 921 17 q 917 0 921 0 q 839 3 892 0 q 746 6 781 6 q 657 3 710 6 q 583 0 607 0 q 578 8 578 0 q 583 17 578 17 q 643 26 625 17 q 661 58 661 35 q 644 117 661 79 l 522 410 l 303 410 l 208 179 q 186 94 186 126 q 218 35 186 54 q 317 17 250 17 q 322 8 322 17 q 315 0 322 0 q 236 3 297 0 q 131 6 167 6 q 53 3 97 6 q -11 0 14 0 q -17 8 -17 0 q -11 17 -17 17 q 80 62 31 17 q 165 189 129 107 l 458 881 q 468 885 458 885 q 486 879 481 885 l 797 117 q 828 51 818 68 q 858 26 839 35 q 917 17 878 17 m 319 449 l 507 449 l 413 675 l 319 449 m 456 924 q 372 958 410 924 q 319 1058 333 993 q 349 1074 318 1067 q 408 1082 381 1082 q 432 1076 431 1082 q 460 1023 442 1042 q 501 1004 479 1004 q 540 1021 522 1004 q 567 1071 557 1038 q 574 1075 567 1075 q 585 1072 579 1075 q 589 1067 590 1069 q 539 960 576 997 q 456 924 501 924 m 482 1061 q 475 1067 478 1061 q 475 1078 472 1074 q 554 1222 526 1161 q 565 1226 557 1226 q 623 1215 585 1226 q 685 1190 661 1203 q 697 1171 710 1176 q 588 1123 636 1149 q 485 1063 539 1097 l 482 1061 z "},"Ặ":{"ha":908,"x_min":-17,"x_max":921,"o":"m 917 17 q 921 8 921 17 q 917 0 921 0 q 839 3 892 0 q 746 6 781 6 q 657 3 710 6 q 583 0 607 0 q 578 8 578 0 q 583 17 578 17 q 643 26 625 17 q 661 58 661 35 q 644 117 661 79 l 522 410 l 303 410 l 208 179 q 186 94 186 126 q 218 35 186 54 q 317 17 250 17 q 322 8 322 17 q 315 0 322 0 q 236 3 297 0 q 131 6 167 6 q 53 3 97 6 q -11 0 14 0 q -17 8 -17 0 q -11 17 -17 17 q 80 62 31 17 q 165 189 129 107 l 458 881 q 468 885 458 885 q 486 879 481 885 l 797 117 q 828 51 818 68 q 858 26 839 35 q 917 17 878 17 m 319 449 l 507 449 l 413 675 l 319 449 m 460 -287 q 397 -265 419 -287 q 375 -203 375 -243 q 398 -145 375 -167 q 460 -124 421 -124 q 519 -145 497 -124 q 540 -203 540 -167 q 519 -265 540 -243 q 460 -287 499 -287 m 461 924 q 377 958 415 924 q 325 1058 339 993 q 355 1074 324 1067 q 414 1082 386 1082 q 438 1076 436 1082 q 466 1023 447 1042 q 507 1004 485 1004 q 545 1021 528 1004 q 572 1071 563 1038 q 579 1075 572 1075 q 590 1072 585 1075 q 594 1067 596 1069 q 544 960 582 997 q 461 924 507 924 z "},"Ằ":{"ha":908,"x_min":-17,"x_max":921,"o":"m 917 17 q 921 8 921 17 q 917 0 921 0 q 839 3 892 0 q 746 6 781 6 q 657 3 710 6 q 583 0 607 0 q 578 8 578 0 q 583 17 578 17 q 643 26 625 17 q 661 58 661 35 q 644 117 661 79 l 522 410 l 303 410 l 208 179 q 186 94 186 126 q 218 35 186 54 q 317 17 250 17 q 322 8 322 17 q 315 0 322 0 q 236 3 297 0 q 131 6 167 6 q 53 3 97 6 q -11 0 14 0 q -17 8 -17 0 q -11 17 -17 17 q 80 62 31 17 q 165 189 129 107 l 458 881 q 468 885 458 885 q 486 879 481 885 l 797 117 q 828 51 818 68 q 858 26 839 35 q 917 17 878 17 m 319 449 l 507 449 l 413 675 l 319 449 m 458 924 q 374 958 413 924 q 322 1058 336 993 q 352 1074 321 1067 q 411 1082 383 1082 q 435 1076 433 1082 q 463 1023 444 1042 q 504 1004 482 1004 q 542 1021 525 1004 q 569 1071 560 1038 q 576 1075 569 1075 q 588 1072 582 1075 q 592 1067 593 1069 q 542 960 579 997 q 458 924 504 924 m 529 1063 q 324 1171 433 1126 q 333 1190 310 1176 q 395 1215 357 1203 q 453 1226 433 1226 q 464 1222 463 1226 q 542 1078 496 1153 l 542 1075 q 538 1065 542 1069 q 529 1063 535 1061 z "},"Ẳ":{"ha":908,"x_min":-17,"x_max":921,"o":"m 917 17 q 921 8 921 17 q 917 0 921 0 q 839 3 892 0 q 746 6 781 6 q 657 3 710 6 q 583 0 607 0 q 578 8 578 0 q 583 17 578 17 q 643 26 625 17 q 661 58 661 35 q 644 117 661 79 l 522 410 l 303 410 l 208 179 q 186 94 186 126 q 218 35 186 54 q 317 17 250 17 q 322 8 322 17 q 315 0 322 0 q 236 3 297 0 q 131 6 167 6 q 53 3 97 6 q -11 0 14 0 q -17 8 -17 0 q -11 17 -17 17 q 80 62 31 17 q 165 189 129 107 l 458 881 q 468 885 458 885 q 486 879 481 885 l 797 117 q 828 51 818 68 q 858 26 839 35 q 917 17 878 17 m 319 449 l 507 449 l 413 675 l 319 449 m 460 924 q 376 958 414 924 q 324 1058 338 993 q 353 1074 322 1067 q 413 1082 385 1082 q 436 1076 435 1082 q 465 1023 446 1042 q 506 1004 483 1004 q 544 1021 526 1004 q 571 1071 561 1038 q 578 1075 571 1075 q 589 1072 583 1075 q 593 1067 594 1069 q 543 960 581 997 q 460 924 506 924 m 496 1053 q 493 1072 493 1067 q 507 1125 493 1092 q 519 1174 519 1160 q 507 1206 519 1196 q 478 1217 494 1217 q 453 1213 463 1217 l 450 1211 q 443 1216 446 1211 q 443 1224 440 1221 q 528 1249 485 1249 q 584 1231 563 1249 q 606 1189 606 1214 q 592 1153 606 1169 q 556 1117 579 1138 q 522 1081 532 1094 q 513 1053 511 1068 q 505 1049 513 1050 q 496 1053 497 1049 z "},"Ẵ":{"ha":908,"x_min":-17,"x_max":921,"o":"m 917 17 q 921 8 921 17 q 917 0 921 0 q 839 3 892 0 q 746 6 781 6 q 657 3 710 6 q 583 0 607 0 q 578 8 578 0 q 583 17 578 17 q 643 26 625 17 q 661 58 661 35 q 644 117 661 79 l 522 410 l 303 410 l 208 179 q 186 94 186 126 q 218 35 186 54 q 317 17 250 17 q 322 8 322 17 q 315 0 322 0 q 236 3 297 0 q 131 6 167 6 q 53 3 97 6 q -11 0 14 0 q -17 8 -17 0 q -11 17 -17 17 q 80 62 31 17 q 165 189 129 107 l 458 881 q 468 885 458 885 q 486 879 481 885 l 797 117 q 828 51 818 68 q 858 26 839 35 q 917 17 878 17 m 319 449 l 507 449 l 413 675 l 319 449 m 460 924 q 376 958 414 924 q 324 1058 338 993 q 353 1074 322 1067 q 413 1082 385 1082 q 436 1076 435 1082 q 465 1023 446 1042 q 506 1004 483 1004 q 544 1021 526 1004 q 571 1071 561 1038 q 578 1075 571 1075 q 589 1072 583 1075 q 593 1067 594 1069 q 543 960 581 997 q 460 924 506 924 m 289 1118 q 286 1117 289 1117 q 280 1121 283 1117 q 278 1128 276 1125 q 396 1240 328 1240 q 463 1226 410 1240 q 517 1212 489 1218 q 568 1206 546 1206 q 615 1214 597 1206 q 650 1243 632 1222 l 651 1243 q 659 1240 656 1243 q 661 1233 663 1236 q 608 1144 632 1167 q 549 1121 585 1121 q 468 1138 526 1121 q 418 1150 444 1144 q 371 1156 392 1156 q 323 1148 336 1156 q 289 1118 310 1140 z "},"Ǎ":{"ha":908,"x_min":-17,"x_max":921,"o":"m 917 17 q 921 8 921 17 q 917 0 921 0 q 839 3 892 0 q 746 6 781 6 q 657 3 710 6 q 583 0 607 0 q 578 8 578 0 q 583 17 578 17 q 643 26 625 17 q 661 58 661 35 q 644 117 661 79 l 522 410 l 303 410 l 208 179 q 186 94 186 126 q 218 35 186 54 q 317 17 250 17 q 322 8 322 17 q 315 0 322 0 q 236 3 297 0 q 131 6 167 6 q 53 3 97 6 q -11 0 14 0 q -17 8 -17 0 q -11 17 -17 17 q 80 62 31 17 q 165 189 129 107 l 458 881 q 468 885 458 885 q 486 879 481 885 l 797 117 q 828 51 818 68 q 858 26 839 35 q 917 17 878 17 m 319 449 l 507 449 l 413 675 l 319 449 m 308 1099 l 307 1101 q 310 1107 307 1104 q 317 1108 314 1110 l 458 1054 l 601 1108 q 609 1105 604 1110 q 611 1099 614 1100 l 478 938 q 465 932 474 932 q 451 938 457 932 l 308 1099 z "},"Â":{"ha":908,"x_min":-17,"x_max":921,"o":"m 917 17 q 921 8 921 17 q 917 0 921 0 q 839 3 892 0 q 746 6 781 6 q 657 3 710 6 q 583 0 607 0 q 578 8 578 0 q 583 17 578 17 q 643 26 625 17 q 661 58 661 35 q 644 117 661 79 l 522 410 l 303 410 l 208 179 q 186 94 186 126 q 218 35 186 54 q 317 17 250 17 q 322 8 322 17 q 315 0 322 0 q 236 3 297 0 q 131 6 167 6 q 53 3 97 6 q -11 0 14 0 q -17 8 -17 0 q -11 17 -17 17 q 80 62 31 17 q 165 189 129 107 l 458 881 q 468 885 458 885 q 486 879 481 885 l 797 117 q 828 51 818 68 q 858 26 839 35 q 917 17 878 17 m 319 449 l 507 449 l 413 675 l 319 449 m 326 917 q 319 920 322 917 q 318 926 315 924 l 450 1086 q 461 1093 454 1093 q 475 1086 468 1093 l 619 926 q 619 919 622 924 q 613 917 615 914 l 471 969 l 328 917 l 326 917 z "},"Ấ":{"ha":908,"x_min":-17,"x_max":921,"o":"m 917 17 q 921 8 921 17 q 917 0 921 0 q 839 3 892 0 q 746 6 781 6 q 657 3 710 6 q 583 0 607 0 q 578 8 578 0 q 583 17 578 17 q 643 26 625 17 q 661 58 661 35 q 644 117 661 79 l 522 410 l 303 410 l 208 179 q 186 94 186 126 q 218 35 186 54 q 317 17 250 17 q 322 8 322 17 q 315 0 322 0 q 236 3 297 0 q 131 6 167 6 q 53 3 97 6 q -11 0 14 0 q -17 8 -17 0 q -11 17 -17 17 q 80 62 31 17 q 165 189 129 107 l 458 881 q 468 885 458 885 q 486 879 481 885 l 797 117 q 828 51 818 68 q 858 26 839 35 q 917 17 878 17 m 319 449 l 507 449 l 413 675 l 319 449 m 322 917 q 315 920 318 917 q 314 926 311 924 l 446 1086 q 457 1093 450 1093 q 471 1086 464 1093 l 615 926 q 615 919 618 924 q 608 917 611 914 l 467 969 l 324 917 l 322 917 m 563 1004 q 556 1010 558 1004 q 556 1021 553 1017 q 635 1165 607 1104 q 646 1169 638 1169 q 703 1158 665 1169 q 766 1133 742 1146 q 778 1114 790 1119 q 668 1066 717 1092 q 565 1006 619 1040 l 563 1004 z "},"Ậ":{"ha":908,"x_min":-17,"x_max":921,"o":"m 917 17 q 921 8 921 17 q 917 0 921 0 q 839 3 892 0 q 746 6 781 6 q 657 3 710 6 q 583 0 607 0 q 578 8 578 0 q 583 17 578 17 q 643 26 625 17 q 661 58 661 35 q 644 117 661 79 l 522 410 l 303 410 l 208 179 q 186 94 186 126 q 218 35 186 54 q 317 17 250 17 q 322 8 322 17 q 315 0 322 0 q 236 3 297 0 q 131 6 167 6 q 53 3 97 6 q -11 0 14 0 q -17 8 -17 0 q -11 17 -17 17 q 80 62 31 17 q 165 189 129 107 l 458 881 q 468 885 458 885 q 486 879 481 885 l 797 117 q 828 51 818 68 q 858 26 839 35 q 917 17 878 17 m 319 449 l 507 449 l 413 675 l 319 449 m 460 -287 q 397 -265 419 -287 q 375 -203 375 -243 q 398 -145 375 -167 q 460 -124 421 -124 q 519 -145 497 -124 q 540 -203 540 -167 q 519 -265 540 -243 q 460 -287 499 -287 m 326 917 q 319 920 322 917 q 318 926 315 924 l 450 1086 q 461 1093 454 1093 q 475 1086 468 1093 l 619 926 q 619 919 622 924 q 613 917 615 914 l 471 969 l 328 917 l 326 917 z "},"Ầ":{"ha":908,"x_min":-17,"x_max":921,"o":"m 917 17 q 921 8 921 17 q 917 0 921 0 q 839 3 892 0 q 746 6 781 6 q 657 3 710 6 q 583 0 607 0 q 578 8 578 0 q 583 17 578 17 q 643 26 625 17 q 661 58 661 35 q 644 117 661 79 l 522 410 l 303 410 l 208 179 q 186 94 186 126 q 218 35 186 54 q 317 17 250 17 q 322 8 322 17 q 315 0 322 0 q 236 3 297 0 q 131 6 167 6 q 53 3 97 6 q -11 0 14 0 q -17 8 -17 0 q -11 17 -17 17 q 80 62 31 17 q 165 189 129 107 l 458 881 q 468 885 458 885 q 486 879 481 885 l 797 117 q 828 51 818 68 q 858 26 839 35 q 917 17 878 17 m 319 449 l 507 449 l 413 675 l 319 449 m 325 917 q 317 920 321 917 q 317 926 314 924 l 449 1086 q 460 1093 453 1093 q 474 1086 467 1093 l 618 926 q 617 919 621 924 q 611 917 614 914 l 469 969 l 326 917 l 325 917 m 694 993 q 489 1101 599 1057 q 499 1120 475 1107 q 560 1145 522 1133 q 618 1157 599 1157 q 629 1153 628 1157 q 707 1008 661 1083 l 707 1006 q 703 996 707 1000 q 694 993 700 992 z "},"Ẩ":{"ha":908,"x_min":-17,"x_max":921,"o":"m 917 17 q 921 8 921 17 q 917 0 921 0 q 839 3 892 0 q 746 6 781 6 q 657 3 710 6 q 583 0 607 0 q 578 8 578 0 q 583 17 578 17 q 643 26 625 17 q 661 58 661 35 q 644 117 661 79 l 522 410 l 303 410 l 208 179 q 186 94 186 126 q 218 35 186 54 q 317 17 250 17 q 322 8 322 17 q 315 0 322 0 q 236 3 297 0 q 131 6 167 6 q 53 3 97 6 q -11 0 14 0 q -17 8 -17 0 q -11 17 -17 17 q 80 62 31 17 q 165 189 129 107 l 458 881 q 468 885 458 885 q 486 879 481 885 l 797 117 q 828 51 818 68 q 858 26 839 35 q 917 17 878 17 m 319 449 l 507 449 l 413 675 l 319 449 m 322 917 q 315 920 318 917 q 314 926 311 924 l 446 1086 q 457 1093 450 1093 q 471 1086 464 1093 l 615 926 q 615 919 618 924 q 608 917 611 914 l 467 969 l 324 917 l 322 917 m 572 996 q 569 1015 569 1010 q 583 1068 569 1035 q 596 1117 596 1103 q 583 1149 596 1139 q 554 1160 571 1160 q 529 1156 539 1160 l 526 1154 q 519 1159 522 1154 q 519 1167 517 1164 q 604 1192 561 1192 q 660 1174 639 1192 q 682 1132 682 1157 q 669 1097 682 1113 q 632 1060 656 1081 q 598 1024 608 1038 q 589 996 588 1011 q 581 992 589 993 q 572 996 574 992 z "},"Ẫ":{"ha":908,"x_min":-17,"x_max":921,"o":"m 917 17 q 921 8 921 17 q 917 0 921 0 q 839 3 892 0 q 746 6 781 6 q 657 3 710 6 q 583 0 607 0 q 578 8 578 0 q 583 17 578 17 q 643 26 625 17 q 661 58 661 35 q 644 117 661 79 l 522 410 l 303 410 l 208 179 q 186 94 186 126 q 218 35 186 54 q 317 17 250 17 q 322 8 322 17 q 315 0 322 0 q 236 3 297 0 q 131 6 167 6 q 53 3 97 6 q -11 0 14 0 q -17 8 -17 0 q -11 17 -17 17 q 80 62 31 17 q 165 189 129 107 l 458 881 q 468 885 458 885 q 486 879 481 885 l 797 117 q 828 51 818 68 q 858 26 839 35 q 917 17 878 17 m 319 449 l 507 449 l 413 675 l 319 449 m 324 917 q 316 920 319 917 q 315 926 313 924 l 447 1086 q 458 1093 451 1093 q 472 1086 465 1093 l 617 926 q 616 919 619 924 q 610 917 613 914 l 468 969 l 325 917 l 324 917 m 289 1104 q 282 1108 286 1104 q 279 1114 278 1111 q 329 1194 303 1163 q 397 1226 356 1226 q 435 1220 411 1226 q 465 1213 458 1214 q 571 1192 536 1192 q 617 1200 600 1192 q 653 1229 635 1208 q 653 1231 653 1231 q 654 1231 654 1231 q 661 1226 657 1231 q 664 1219 665 1222 q 611 1131 635 1153 q 551 1108 588 1108 q 471 1124 525 1108 q 419 1136 446 1131 q 371 1142 393 1142 q 325 1135 338 1142 q 290 1104 313 1128 l 289 1104 z "},"Ä":{"ha":908,"x_min":-17,"x_max":921,"o":"m 917 17 q 921 8 921 17 q 917 0 921 0 q 839 3 892 0 q 746 6 781 6 q 657 3 710 6 q 583 0 607 0 q 578 8 578 0 q 583 17 578 17 q 643 26 625 17 q 661 58 661 35 q 644 117 661 79 l 522 410 l 303 410 l 208 179 q 186 94 186 126 q 218 35 186 54 q 317 17 250 17 q 322 8 322 17 q 315 0 322 0 q 236 3 297 0 q 131 6 167 6 q 53 3 97 6 q -11 0 14 0 q -17 8 -17 0 q -11 17 -17 17 q 80 62 31 17 q 165 189 129 107 l 458 881 q 468 885 458 885 q 486 879 481 885 l 797 117 q 828 51 818 68 q 858 26 839 35 q 917 17 878 17 m 319 449 l 507 449 l 413 675 l 319 449 m 344 976 q 289 997 310 976 q 268 1053 268 1017 q 289 1106 268 1086 q 344 1125 310 1125 q 399 1106 379 1125 q 418 1053 418 1086 q 399 997 418 1017 q 344 976 379 976 m 588 976 q 532 997 551 976 q 513 1053 513 1017 q 533 1105 513 1086 q 588 1124 553 1124 q 640 1105 621 1124 q 658 1053 658 1086 q 640 997 658 1017 q 588 976 621 976 z "},"Ạ":{"ha":908,"x_min":-17,"x_max":921,"o":"m 917 17 q 921 8 921 17 q 917 0 921 0 q 839 3 892 0 q 746 6 781 6 q 657 3 710 6 q 583 0 607 0 q 578 8 578 0 q 583 17 578 17 q 643 26 625 17 q 661 58 661 35 q 644 117 661 79 l 522 410 l 303 410 l 208 179 q 186 94 186 126 q 218 35 186 54 q 317 17 250 17 q 322 8 322 17 q 315 0 322 0 q 236 3 297 0 q 131 6 167 6 q 53 3 97 6 q -11 0 14 0 q -17 8 -17 0 q -11 17 -17 17 q 80 62 31 17 q 165 189 129 107 l 458 881 q 468 885 458 885 q 486 879 481 885 l 797 117 q 828 51 818 68 q 858 26 839 35 q 917 17 878 17 m 319 449 l 507 449 l 413 675 l 319 449 m 460 -287 q 397 -265 419 -287 q 375 -203 375 -243 q 398 -145 375 -167 q 460 -124 421 -124 q 519 -145 497 -124 q 540 -203 540 -167 q 519 -265 540 -243 q 460 -287 499 -287 z "},"À":{"ha":908,"x_min":-17,"x_max":921,"o":"m 917 17 q 921 8 921 17 q 917 0 921 0 q 839 3 892 0 q 746 6 781 6 q 657 3 710 6 q 583 0 607 0 q 578 8 578 0 q 583 17 578 17 q 643 26 625 17 q 661 58 661 35 q 644 117 661 79 l 522 410 l 303 410 l 208 179 q 186 94 186 126 q 218 35 186 54 q 317 17 250 17 q 322 8 322 17 q 315 0 322 0 q 236 3 297 0 q 131 6 167 6 q 53 3 97 6 q -11 0 14 0 q -17 8 -17 0 q -11 17 -17 17 q 80 62 31 17 q 165 189 129 107 l 458 881 q 468 885 458 885 q 486 879 481 885 l 797 117 q 828 51 818 68 q 858 26 839 35 q 917 17 878 17 m 319 449 l 507 449 l 413 675 l 319 449 m 610 961 q 474 1008 531 990 q 326 1050 417 1025 q 333 1067 308 1054 q 399 1092 358 1081 q 461 1103 439 1103 q 474 1100 468 1103 q 568 1017 507 1068 l 619 974 q 622 968 622 972 q 618 962 622 964 q 610 961 614 960 z "},"Ả":{"ha":908,"x_min":-17,"x_max":921,"o":"m 917 17 q 921 8 921 17 q 917 0 921 0 q 839 3 892 0 q 746 6 781 6 q 657 3 710 6 q 583 0 607 0 q 578 8 578 0 q 583 17 578 17 q 643 26 625 17 q 661 58 661 35 q 644 117 661 79 l 522 410 l 303 410 l 208 179 q 186 94 186 126 q 218 35 186 54 q 317 17 250 17 q 322 8 322 17 q 315 0 322 0 q 236 3 297 0 q 131 6 167 6 q 53 3 97 6 q -11 0 14 0 q -17 8 -17 0 q -11 17 -17 17 q 80 62 31 17 q 165 189 129 107 l 458 881 q 468 885 458 885 q 486 879 481 885 l 797 117 q 828 51 818 68 q 858 26 839 35 q 917 17 878 17 m 319 449 l 507 449 l 413 675 l 319 449 m 472 907 q 465 903 472 904 q 457 907 458 903 q 446 968 446 936 q 453 1022 446 981 q 460 1075 460 1050 q 458 1099 460 1090 q 442 1135 453 1124 q 411 1147 431 1147 q 363 1133 388 1147 l 360 1133 q 351 1138 356 1133 q 351 1146 347 1142 q 399 1174 371 1164 q 458 1185 428 1185 q 532 1165 503 1185 q 567 1111 561 1146 q 568 1097 568 1107 q 555 1049 568 1072 q 515 997 542 1026 q 479 946 490 965 q 472 907 468 926 z "},"Ā":{"ha":908,"x_min":-17,"x_max":921,"o":"m 917 17 q 921 8 921 17 q 917 0 921 0 q 839 3 892 0 q 746 6 781 6 q 657 3 710 6 q 583 0 607 0 q 578 8 578 0 q 583 17 578 17 q 643 26 625 17 q 661 58 661 35 q 644 117 661 79 l 522 410 l 303 410 l 208 179 q 186 94 186 126 q 218 35 186 54 q 317 17 250 17 q 322 8 322 17 q 315 0 322 0 q 236 3 297 0 q 131 6 167 6 q 53 3 97 6 q -11 0 14 0 q -17 8 -17 0 q -11 17 -17 17 q 80 62 31 17 q 165 189 129 107 l 458 881 q 468 885 458 885 q 486 879 481 885 l 797 117 q 828 51 818 68 q 858 26 839 35 q 917 17 878 17 m 319 449 l 507 449 l 413 675 l 319 449 m 303 989 q 293 997 297 989 q 289 1017 289 1006 q 293 1036 289 1028 q 303 1044 297 1044 l 619 1044 q 631 1036 626 1044 q 635 1017 635 1028 q 631 997 635 1006 q 619 989 626 989 l 303 989 z "},"Ą":{"ha":908,"x_min":-17,"x_max":921,"o":"m 917 17 q 921 8 921 17 q 917 0 921 0 l 772 1 q 672 -51 710 1 q 635 -182 635 -104 q 672 -281 635 -244 q 769 -318 708 -318 q 806 -312 794 -318 q 833 -293 817 -307 q 836 -292 833 -292 q 843 -297 840 -292 q 843 -304 846 -301 q 771 -364 806 -346 q 692 -382 736 -382 q 570 -347 624 -382 q 517 -246 517 -312 q 535 -169 517 -203 q 592 -92 554 -136 q 644 -18 628 -47 q 661 47 661 11 q 644 117 661 78 l 522 410 l 303 410 l 208 179 q 186 94 186 126 q 218 35 186 54 q 317 17 250 17 q 322 8 322 17 q 315 0 322 0 q 236 3 297 0 q 131 6 167 6 q 53 3 97 6 q -11 0 14 0 q -17 8 -17 0 q -11 17 -17 17 q 80 62 31 17 q 165 189 129 107 l 458 881 q 468 885 458 885 q 486 879 481 885 l 797 117 q 847 37 824 57 q 917 17 871 17 m 319 449 l 507 449 l 413 675 l 319 449 z "},"Å":{"ha":908,"x_min":-17,"x_max":921,"o":"m 917 17 q 921 8 921 17 q 917 0 921 0 q 839 3 892 0 q 746 6 781 6 q 657 3 710 6 q 583 0 607 0 q 578 8 578 0 q 583 17 578 17 q 643 26 625 17 q 661 58 661 35 q 644 117 661 79 l 522 410 l 303 410 l 208 179 q 186 94 186 126 q 218 35 186 54 q 317 17 250 17 q 322 8 322 17 q 315 0 322 0 q 236 3 297 0 q 131 6 167 6 q 53 3 97 6 q -11 0 14 0 q -17 8 -17 0 q -11 17 -17 17 q 80 62 31 17 q 165 189 129 107 l 458 881 q 468 885 458 885 q 486 879 481 885 l 797 117 q 828 51 818 68 q 858 26 839 35 q 917 17 878 17 m 319 449 l 507 449 l 413 675 l 319 449 m 456 917 q 348 949 388 917 q 308 1026 308 981 q 358 1105 308 1076 q 469 1133 407 1133 q 574 1101 531 1133 q 617 1024 617 1069 q 567 946 617 975 q 456 917 518 917 m 478 936 q 505 951 496 936 q 514 999 514 967 q 493 1080 514 1046 q 442 1114 472 1114 q 416 1099 424 1114 q 408 1054 408 1085 q 427 972 408 1008 q 478 936 446 936 z "},"Ǻ":{"ha":908,"x_min":-17,"x_max":921,"o":"m 917 17 q 921 8 921 17 q 917 0 921 0 q 839 3 892 0 q 746 6 781 6 q 657 3 710 6 q 583 0 607 0 q 578 8 578 0 q 583 17 578 17 q 643 26 625 17 q 661 58 661 35 q 644 117 661 79 l 522 410 l 303 410 l 208 179 q 186 94 186 126 q 218 35 186 54 q 317 17 250 17 q 322 8 322 17 q 315 0 322 0 q 236 3 297 0 q 131 6 167 6 q 53 3 97 6 q -11 0 14 0 q -17 8 -17 0 q -11 17 -17 17 q 80 62 31 17 q 165 189 129 107 l 458 881 q 468 885 458 885 q 486 879 481 885 l 797 117 q 828 51 818 68 q 858 26 839 35 q 917 17 878 17 m 319 449 l 507 449 l 413 675 l 319 449 m 338 1143 q 331 1149 333 1143 q 333 1157 329 1156 l 515 1253 q 553 1240 522 1257 q 610 1204 585 1224 q 625 1185 635 1185 q 340 1143 501 1171 l 338 1143 m 457 938 q 363 965 399 938 q 326 1032 326 993 q 371 1099 326 1074 q 471 1124 415 1124 q 574 1096 531 1124 q 618 1029 618 1068 q 569 963 618 988 q 457 938 521 938 m 479 957 q 515 1004 515 957 q 497 1075 515 1046 q 447 1104 478 1104 q 420 1092 431 1104 q 410 1060 410 1081 q 428 989 410 1021 q 479 957 447 957 z "},"Ã":{"ha":908,"x_min":-17,"x_max":921,"o":"m 917 17 q 921 8 921 17 q 917 0 921 0 q 839 3 892 0 q 746 6 781 6 q 657 3 710 6 q 583 0 607 0 q 578 8 578 0 q 583 17 578 17 q 643 26 625 17 q 661 58 661 35 q 644 117 661 79 l 522 410 l 303 410 l 208 179 q 186 94 186 126 q 218 35 186 54 q 317 17 250 17 q 322 8 322 17 q 315 0 322 0 q 236 3 297 0 q 131 6 167 6 q 53 3 97 6 q -11 0 14 0 q -17 8 -17 0 q -11 17 -17 17 q 80 62 31 17 q 165 189 129 107 l 458 881 q 468 885 458 885 q 486 879 481 885 l 797 117 q 828 51 818 68 q 858 26 839 35 q 917 17 878 17 m 319 449 l 507 449 l 413 675 l 319 449 m 297 953 q 294 951 297 951 q 288 956 292 951 q 286 963 285 960 q 404 1075 336 1075 q 471 1061 418 1075 q 526 1047 497 1053 q 576 1040 554 1040 q 623 1049 606 1040 q 658 1078 640 1057 l 660 1078 q 667 1074 664 1078 q 669 1068 671 1071 q 617 978 640 1001 q 557 956 593 956 q 476 972 535 956 q 426 985 453 979 q 379 990 400 990 q 331 983 344 990 q 297 953 318 975 z "},"Æ":{"ha":1163,"x_min":-53,"x_max":1113,"o":"m 1093 221 q 1100 224 1096 224 q 1108 222 1104 224 q 1111 218 1113 219 q 1099 21 1099 149 q 1094 5 1099 10 q 1076 0 1089 0 l 504 0 q 497 8 497 0 q 504 17 497 17 q 572 30 554 17 q 589 83 589 43 q 588 113 589 101 l 571 432 l 367 432 l 219 171 q 201 110 201 139 q 237 42 201 68 q 333 17 272 17 q 340 8 340 17 q 333 0 340 0 q 229 3 310 0 q 101 6 140 6 q 21 3 68 6 q -46 0 -21 0 q -53 8 -53 0 q -46 17 -53 17 q 69 53 18 17 q 175 188 121 89 l 515 801 q 529 833 529 826 q 509 849 529 847 q 418 851 489 851 q 411 860 411 851 q 418 868 411 868 l 1038 868 q 1045 865 1043 868 q 1047 856 1047 863 q 1051 669 1051 775 q 1046 665 1051 665 q 1033 671 1036 665 q 949 801 1011 753 q 801 849 886 849 l 775 849 q 719 826 736 849 q 706 754 703 803 l 721 471 l 856 471 q 959 495 926 471 q 994 576 992 519 q 1003 582 994 582 q 1010 580 1007 582 q 1014 575 1014 578 q 1013 451 1013 515 l 1014 336 q 1015 308 1015 328 q 1007 303 1015 303 q 999 305 1003 303 q 996 310 996 307 q 957 401 994 369 q 853 432 919 432 l 724 432 l 740 118 q 750 58 743 76 q 775 32 757 39 q 832 25 793 25 l 851 25 q 996 78 931 25 q 1093 221 1061 131 m 389 471 l 569 471 l 554 765 l 389 471 z "},"Ǽ":{"ha":1163,"x_min":-53,"x_max":1111,"o":"m 1093 221 q 1100 224 1096 224 q 1108 222 1104 224 q 1111 218 1113 219 q 1099 21 1099 149 q 1094 5 1099 10 q 1076 0 1089 0 l 504 0 q 497 8 497 0 q 504 17 497 17 q 572 30 554 17 q 589 83 589 43 q 588 113 589 101 l 571 432 l 367 432 l 219 171 q 201 110 201 139 q 237 42 201 68 q 333 17 272 17 q 340 8 340 17 q 333 0 340 0 q 229 3 310 0 q 101 6 140 6 q 21 3 68 6 q -46 0 -21 0 q -53 8 -53 0 q -46 17 -53 17 q 69 53 18 17 q 175 188 121 89 l 515 801 q 529 833 529 826 q 509 849 529 847 q 418 851 489 851 q 411 860 411 851 q 418 868 411 868 l 1038 868 q 1045 865 1043 868 q 1047 856 1047 863 q 1051 669 1051 775 q 1046 665 1051 665 q 1033 671 1036 665 q 949 801 1011 753 q 801 849 886 849 l 775 849 q 719 826 736 849 q 706 754 703 803 l 721 471 l 856 471 q 959 495 926 471 q 994 576 992 519 q 1003 582 994 582 q 1010 580 1007 582 q 1014 575 1014 578 q 1013 451 1013 515 l 1014 336 q 1015 308 1015 328 q 1007 303 1015 303 q 999 305 1003 303 q 996 310 996 307 q 957 401 994 369 q 853 432 919 432 l 724 432 l 740 118 q 750 58 743 76 q 775 32 757 39 q 832 25 793 25 l 851 25 q 996 78 931 25 q 1093 221 1061 131 m 389 471 l 569 471 l 554 765 l 389 471 m 650 942 q 642 948 644 942 q 643 957 639 954 q 735 1044 678 985 q 792 1101 792 1101 q 842 1097 799 1108 q 922 1069 886 1085 q 942 1050 957 1053 q 653 943 793 1011 l 650 942 z "},"Ǣ":{"ha":1163,"x_min":-53,"x_max":1111,"o":"m 1093 221 q 1100 224 1096 224 q 1108 222 1104 224 q 1111 218 1113 219 q 1099 21 1099 149 q 1094 5 1099 10 q 1076 0 1089 0 l 504 0 q 497 8 497 0 q 504 17 497 17 q 572 30 554 17 q 589 83 589 43 q 588 113 589 101 l 571 432 l 367 432 l 219 171 q 201 110 201 139 q 237 42 201 68 q 333 17 272 17 q 340 8 340 17 q 333 0 340 0 q 229 3 310 0 q 101 6 140 6 q 21 3 68 6 q -46 0 -21 0 q -53 8 -53 0 q -46 17 -53 17 q 69 53 18 17 q 175 188 121 89 l 515 801 q 529 833 529 826 q 509 849 529 847 q 418 851 489 851 q 411 860 411 851 q 418 868 411 868 l 1038 868 q 1045 865 1043 868 q 1047 856 1047 863 q 1051 669 1051 775 q 1046 665 1051 665 q 1033 671 1036 665 q 949 801 1011 753 q 801 849 886 849 l 775 849 q 719 826 736 849 q 706 754 703 803 l 721 471 l 856 471 q 959 495 926 471 q 994 576 992 519 q 1003 582 994 582 q 1010 580 1007 582 q 1014 575 1014 578 q 1013 451 1013 515 l 1014 336 q 1015 308 1015 328 q 1007 303 1015 303 q 999 305 1003 303 q 996 310 996 307 q 957 401 994 369 q 853 432 919 432 l 724 432 l 740 118 q 750 58 743 76 q 775 32 757 39 q 832 25 793 25 l 851 25 q 996 78 931 25 q 1093 221 1061 131 m 389 471 l 569 471 l 554 765 l 389 471 m 571 989 q 561 997 565 989 q 557 1017 557 1006 q 561 1036 557 1028 q 571 1044 565 1044 l 888 1044 q 899 1036 894 1044 q 903 1017 903 1028 q 899 997 903 1006 q 888 989 894 989 l 571 989 z "},"B":{"ha":839,"x_min":67,"x_max":772,"o":"m 513 486 q 701 409 631 472 q 772 251 772 346 q 729 121 772 179 q 611 28 686 63 q 443 -6 536 -6 q 354 -1 404 -6 q 306 1 335 0 q 243 3 278 3 l 143 1 q 69 0 117 0 q 67 8 67 0 q 69 17 67 17 q 130 24 110 17 q 158 51 150 32 q 167 113 167 71 l 167 756 q 159 816 167 796 q 131 844 151 836 q 71 851 111 851 q 68 860 68 851 q 71 868 68 868 l 144 867 q 243 864 206 864 q 324 868 282 864 q 365 871 338 869 q 414 872 393 872 q 616 826 544 872 q 688 693 688 781 q 643 572 688 626 q 513 486 599 518 m 393 844 q 338 825 353 844 q 322 753 322 806 l 322 489 l 379 488 q 495 542 454 488 q 536 681 536 597 q 499 802 536 760 q 393 844 463 844 m 419 25 q 564 74 518 25 q 610 218 610 122 q 557 388 610 325 q 394 450 504 450 q 322 447 354 450 l 322 113 q 340 44 322 64 q 419 25 358 25 z "},"C":{"ha":882,"x_min":50,"x_max":822,"o":"m 538 -17 q 257 50 367 -17 q 99 219 147 117 q 50 435 50 321 q 117 674 50 572 q 297 830 185 776 q 539 883 408 883 q 672 872 603 883 q 785 843 742 860 q 799 831 796 836 q 803 811 803 825 l 813 625 q 806 621 813 621 q 797 625 800 621 q 666 788 746 731 q 485 846 586 846 q 283 750 353 846 q 213 481 213 654 q 256 247 213 356 q 375 75 300 139 q 540 11 450 11 q 807 222 683 11 q 814 226 810 226 q 822 218 822 226 l 814 58 q 808 35 811 40 q 793 26 806 31 q 538 -17 671 -17 z "},"Ć":{"ha":882,"x_min":50,"x_max":822,"o":"m 538 -17 q 257 50 367 -17 q 99 219 147 117 q 50 435 50 321 q 117 674 50 572 q 297 830 185 776 q 539 883 408 883 q 672 872 603 883 q 785 843 742 860 q 799 831 796 836 q 803 811 803 825 l 813 625 q 806 621 813 621 q 797 625 800 621 q 666 788 746 731 q 485 846 586 846 q 283 750 353 846 q 213 481 213 654 q 256 247 213 356 q 375 75 300 139 q 540 11 450 11 q 807 222 683 11 q 814 226 810 226 q 822 218 822 226 l 814 58 q 808 35 811 40 q 793 26 806 31 q 538 -17 671 -17 m 435 942 q 426 948 429 942 q 428 957 424 954 q 519 1044 463 985 q 576 1101 576 1101 q 627 1097 583 1108 q 706 1069 671 1085 q 726 1050 742 1053 q 438 943 578 1011 l 435 942 z "},"Č":{"ha":882,"x_min":50,"x_max":822,"o":"m 538 -17 q 257 50 367 -17 q 99 219 147 117 q 50 435 50 321 q 117 674 50 572 q 297 830 185 776 q 539 883 408 883 q 672 872 603 883 q 785 843 742 860 q 799 831 796 836 q 803 811 803 825 l 813 625 q 806 621 813 621 q 797 625 800 621 q 666 788 746 731 q 485 846 586 846 q 283 750 353 846 q 213 481 213 654 q 256 247 213 356 q 375 75 300 139 q 540 11 450 11 q 807 222 683 11 q 814 226 810 226 q 822 218 822 226 l 814 58 q 808 35 811 40 q 793 26 806 31 q 538 -17 671 -17 m 361 1099 l 360 1101 q 363 1107 360 1104 q 369 1108 367 1110 l 511 1054 l 654 1108 q 662 1105 657 1110 q 664 1099 667 1100 l 531 938 q 518 932 526 932 q 504 938 510 932 l 361 1099 z "},"Ç":{"ha":882,"x_min":50,"x_max":822,"o":"m 807 222 q 814 226 810 226 q 822 218 822 226 l 814 58 q 808 35 811 40 q 793 26 806 31 q 538 -17 671 -17 l 536 -17 q 535 -33 535 -22 q 550 -85 535 -64 q 603 -144 565 -107 q 653 -207 638 -181 q 668 -260 668 -233 q 654 -315 669 -286 q 606 -362 639 -343 q 524 -382 574 -382 q 437 -361 474 -382 q 400 -308 400 -340 q 413 -273 399 -285 q 449 -261 426 -261 q 487 -274 474 -261 q 513 -312 500 -287 q 534 -346 525 -336 q 560 -356 543 -356 q 584 -347 576 -356 q 590 -322 592 -337 q 563 -267 588 -299 q 497 -192 539 -235 q 479 -146 479 -174 q 492 -83 479 -124 l 513 -17 q 247 56 350 -11 q 97 223 143 122 q 50 435 50 324 q 117 674 50 572 q 297 830 185 776 q 539 883 408 883 q 672 872 603 883 q 785 843 742 860 q 799 831 796 836 q 803 811 803 825 l 813 625 q 806 621 813 621 q 797 625 800 621 q 666 788 746 731 q 485 846 586 846 q 283 750 353 846 q 213 481 213 654 q 256 247 213 356 q 375 75 300 139 q 540 11 450 11 q 807 222 683 11 z "},"Ĉ":{"ha":882,"x_min":50,"x_max":822,"o":"m 538 -17 q 257 50 367 -17 q 99 219 147 117 q 50 435 50 321 q 117 674 50 572 q 297 830 185 776 q 539 883 408 883 q 672 872 603 883 q 785 843 742 860 q 799 831 796 836 q 803 811 803 825 l 813 625 q 806 621 813 621 q 797 625 800 621 q 666 788 746 731 q 485 846 586 846 q 283 750 353 846 q 213 481 213 654 q 256 247 213 356 q 375 75 300 139 q 540 11 450 11 q 807 222 683 11 q 814 226 810 226 q 822 218 822 226 l 814 58 q 808 35 811 40 q 793 26 806 31 q 538 -17 671 -17 m 379 917 q 372 920 375 917 q 371 926 368 924 l 503 1086 q 514 1093 507 1093 q 528 1086 521 1093 l 672 926 q 672 919 675 924 q 665 917 668 914 l 524 969 l 381 917 l 379 917 z "},"Ċ":{"ha":882,"x_min":50,"x_max":822,"o":"m 538 -17 q 257 50 367 -17 q 99 219 147 117 q 50 435 50 321 q 117 674 50 572 q 297 830 185 776 q 539 883 408 883 q 672 872 603 883 q 785 843 742 860 q 799 831 796 836 q 803 811 803 825 l 813 625 q 806 621 813 621 q 797 625 800 621 q 666 788 746 731 q 485 846 586 846 q 283 750 353 846 q 213 481 213 654 q 256 247 213 356 q 375 75 300 139 q 540 11 450 11 q 807 222 683 11 q 814 226 810 226 q 822 218 822 226 l 814 58 q 808 35 811 40 q 793 26 806 31 q 538 -17 671 -17 m 521 990 q 458 1013 481 990 q 436 1075 436 1036 q 459 1133 436 1111 q 521 1156 482 1156 q 580 1134 558 1156 q 601 1075 601 1113 q 581 1013 601 1035 q 521 990 560 990 z "},"D":{"ha":956,"x_min":57,"x_max":904,"o":"m 431 -6 q 343 -1 392 -6 q 296 1 324 0 q 233 3 268 3 l 131 1 q 60 0 106 0 q 57 8 57 0 q 60 17 57 17 q 122 24 103 17 q 149 51 142 31 q 156 113 157 71 l 156 756 q 145 817 153 797 q 118 844 138 836 q 60 851 99 851 q 57 860 57 851 q 60 868 57 868 l 131 867 q 231 864 192 864 q 322 868 276 864 q 408 871 381 871 q 667 817 554 871 q 842 668 779 764 q 904 449 904 572 q 838 212 904 315 q 664 51 772 108 q 431 -6 556 -6 m 418 22 q 588 69 515 22 q 699 204 660 115 q 739 418 739 293 q 704 622 739 525 q 594 781 669 718 q 401 843 518 843 q 326 823 346 843 q 307 753 307 803 l 307 128 q 331 47 308 71 q 418 22 354 22 z "},"Ð":{"ha":956,"x_min":57,"x_max":904,"o":"m 408 871 q 667 817 554 871 q 842 668 779 764 q 904 449 904 572 q 838 212 904 315 q 664 51 772 108 q 431 -6 556 -6 q 343 -1 392 -6 q 296 1 324 0 q 233 3 268 3 l 131 1 q 60 0 106 0 q 57 8 57 0 q 60 17 57 17 q 122 24 103 17 q 149 51 142 31 q 156 113 157 71 l 156 413 l 64 413 q 58 432 58 413 q 64 451 58 451 l 156 451 l 156 756 q 145 817 153 797 q 118 844 138 836 q 60 851 99 851 q 57 860 57 851 q 60 868 57 868 l 131 867 q 231 864 192 864 q 322 868 276 864 q 408 871 381 871 m 418 22 q 588 69 515 22 q 699 204 660 115 q 739 418 739 293 q 704 622 739 525 q 594 781 669 718 q 401 843 518 843 q 326 823 346 843 q 307 753 307 803 l 307 451 l 428 451 q 433 432 433 451 q 428 413 433 413 l 307 413 l 307 128 q 331 47 308 71 q 418 22 354 22 z "},"Ď":{"ha":956,"x_min":57,"x_max":904,"o":"m 431 -6 q 343 -1 392 -6 q 296 1 324 0 q 233 3 268 3 l 131 1 q 60 0 106 0 q 57 8 57 0 q 60 17 57 17 q 122 24 103 17 q 149 51 142 31 q 156 113 157 71 l 156 756 q 145 817 153 797 q 118 844 138 836 q 60 851 99 851 q 57 860 57 851 q 60 868 57 868 l 131 867 q 231 864 192 864 q 322 868 276 864 q 408 871 381 871 q 667 817 554 871 q 842 668 779 764 q 904 449 904 572 q 838 212 904 315 q 664 51 772 108 q 431 -6 556 -6 m 418 22 q 588 69 515 22 q 699 204 660 115 q 739 418 739 293 q 704 622 739 525 q 594 781 669 718 q 401 843 518 843 q 326 823 346 843 q 307 753 307 803 l 307 128 q 331 47 308 71 q 418 22 354 22 m 236 1099 l 235 1101 q 238 1107 235 1104 q 244 1108 242 1110 l 386 1054 l 529 1108 q 537 1105 532 1110 q 539 1099 542 1100 l 406 938 q 393 932 401 932 q 379 938 385 932 l 236 1099 z "},"Đ":{"ha":956,"x_min":57,"x_max":904,"o":"m 408 871 q 667 817 554 871 q 842 668 779 764 q 904 449 904 572 q 838 212 904 315 q 664 51 772 108 q 431 -6 556 -6 q 343 -1 392 -6 q 296 1 324 0 q 233 3 268 3 l 131 1 q 60 0 106 0 q 57 8 57 0 q 60 17 57 17 q 122 24 103 17 q 149 51 142 31 q 156 113 157 71 l 156 413 l 64 413 q 58 432 58 413 q 64 451 58 451 l 156 451 l 156 756 q 145 817 153 797 q 118 844 138 836 q 60 851 99 851 q 57 860 57 851 q 60 868 57 868 l 131 867 q 231 864 192 864 q 322 868 276 864 q 408 871 381 871 m 418 22 q 588 69 515 22 q 699 204 660 115 q 739 418 739 293 q 704 622 739 525 q 594 781 669 718 q 401 843 518 843 q 326 823 346 843 q 307 753 307 803 l 307 451 l 428 451 q 433 432 433 451 q 428 413 433 413 l 307 413 l 307 128 q 331 47 308 71 q 418 22 354 22 z "},"Ḍ":{"ha":956,"x_min":57,"x_max":904,"o":"m 431 -6 q 343 -1 392 -6 q 296 1 324 0 q 233 3 268 3 l 131 1 q 60 0 106 0 q 57 8 57 0 q 60 17 57 17 q 122 24 103 17 q 149 51 142 31 q 156 113 157 71 l 156 756 q 145 817 153 797 q 118 844 138 836 q 60 851 99 851 q 57 860 57 851 q 60 868 57 868 l 131 867 q 231 864 192 864 q 322 868 276 864 q 408 871 381 871 q 667 817 554 871 q 842 668 779 764 q 904 449 904 572 q 838 212 904 315 q 664 51 772 108 q 431 -6 556 -6 m 418 22 q 588 69 515 22 q 699 204 660 115 q 739 418 739 293 q 704 622 739 525 q 594 781 669 718 q 401 843 518 843 q 326 823 346 843 q 307 753 307 803 l 307 128 q 331 47 308 71 q 418 22 354 22 m 479 -287 q 417 -265 439 -287 q 394 -203 394 -243 q 417 -145 394 -167 q 479 -124 440 -124 q 538 -145 517 -124 q 560 -203 560 -167 q 539 -265 560 -243 q 479 -287 518 -287 z "},"Ḏ":{"ha":956,"x_min":57,"x_max":904,"o":"m 431 -6 q 343 -1 392 -6 q 296 1 324 0 q 233 3 268 3 l 131 1 q 60 0 106 0 q 57 8 57 0 q 60 17 57 17 q 122 24 103 17 q 149 51 142 31 q 156 113 157 71 l 156 756 q 145 817 153 797 q 118 844 138 836 q 60 851 99 851 q 57 860 57 851 q 60 868 57 868 l 131 867 q 231 864 192 864 q 322 868 276 864 q 408 871 381 871 q 667 817 554 871 q 842 668 779 764 q 904 449 904 572 q 838 212 904 315 q 664 51 772 108 q 431 -6 556 -6 m 418 22 q 588 69 515 22 q 699 204 660 115 q 739 418 739 293 q 704 622 739 525 q 594 781 669 718 q 401 843 518 843 q 326 823 346 843 q 307 753 307 803 l 307 128 q 331 47 308 71 q 418 22 354 22 m 319 -171 q 309 -162 313 -171 q 306 -143 306 -154 q 309 -124 306 -132 q 319 -115 313 -115 l 636 -115 q 647 -124 643 -115 q 650 -143 650 -132 q 647 -162 650 -154 q 636 -171 643 -171 l 319 -171 z "},"E":{"ha":794,"x_min":68,"x_max":744,"o":"m 725 221 q 732 224 728 224 q 740 222 736 224 q 743 218 744 219 q 729 21 729 128 q 725 5 729 10 q 708 0 721 0 l 75 0 q 69 8 69 0 q 74 17 69 17 q 134 24 115 17 q 159 50 153 31 q 165 113 165 69 l 165 756 q 158 817 165 797 q 132 844 151 836 q 74 851 113 851 q 69 860 69 851 q 71 868 68 868 l 669 868 q 681 856 681 868 l 683 672 q 676 668 683 668 q 667 671 668 668 q 581 794 643 749 q 435 839 519 839 l 408 839 q 347 833 365 839 q 322 810 328 826 q 315 754 317 793 l 315 471 l 489 471 q 593 496 560 471 q 626 576 626 521 q 636 582 626 582 q 646 575 646 582 l 644 499 q 643 451 643 482 q 644 385 643 407 l 646 310 q 638 303 646 303 q 630 305 633 303 q 626 310 626 307 q 590 401 626 369 q 486 432 553 432 l 315 432 l 315 118 q 333 46 315 63 q 406 29 350 29 l 444 29 q 610 81 535 29 q 725 221 685 133 z "},"É":{"ha":794,"x_min":68,"x_max":743,"o":"m 725 221 q 732 224 728 224 q 740 222 736 224 q 743 218 744 219 q 729 21 729 128 q 725 5 729 10 q 708 0 721 0 l 75 0 q 69 8 69 0 q 74 17 69 17 q 134 24 115 17 q 159 50 153 31 q 165 113 165 69 l 165 756 q 158 817 165 797 q 132 844 151 836 q 74 851 113 851 q 69 860 69 851 q 71 868 68 868 l 669 868 q 681 856 681 868 l 683 672 q 676 668 683 668 q 667 671 668 668 q 581 794 643 749 q 435 839 519 839 l 408 839 q 347 833 365 839 q 322 810 328 826 q 315 754 317 793 l 315 471 l 489 471 q 593 496 560 471 q 626 576 626 521 q 636 582 626 582 q 646 575 646 582 l 644 499 q 643 451 643 482 q 644 385 643 407 l 646 310 q 638 303 646 303 q 630 305 633 303 q 626 310 626 307 q 590 401 626 369 q 486 432 553 432 l 315 432 l 315 118 q 333 46 315 63 q 406 29 350 29 l 444 29 q 610 81 535 29 q 725 221 685 133 m 325 942 q 317 948 319 942 q 318 957 314 954 q 410 1044 353 985 q 467 1101 467 1101 q 517 1097 474 1108 q 597 1069 561 1085 q 617 1050 632 1053 q 328 943 468 1011 l 325 942 z "},"Ĕ":{"ha":794,"x_min":68,"x_max":743,"o":"m 725 221 q 732 224 728 224 q 740 222 736 224 q 743 218 744 219 q 729 21 729 128 q 725 5 729 10 q 708 0 721 0 l 75 0 q 69 8 69 0 q 74 17 69 17 q 134 24 115 17 q 159 50 153 31 q 165 113 165 69 l 165 756 q 158 817 165 797 q 132 844 151 836 q 74 851 113 851 q 69 860 69 851 q 71 868 68 868 l 669 868 q 681 856 681 868 l 683 672 q 676 668 683 668 q 667 671 668 668 q 581 794 643 749 q 435 839 519 839 l 408 839 q 347 833 365 839 q 322 810 328 826 q 315 754 317 793 l 315 471 l 489 471 q 593 496 560 471 q 626 576 626 521 q 636 582 626 582 q 646 575 646 582 l 644 499 q 643 451 643 482 q 644 385 643 407 l 646 310 q 638 303 646 303 q 630 305 633 303 q 626 310 626 307 q 590 401 626 369 q 486 432 553 432 l 315 432 l 315 118 q 333 46 315 63 q 406 29 350 29 l 444 29 q 610 81 535 29 q 725 221 685 133 m 411 924 q 327 958 365 924 q 275 1058 289 993 q 305 1074 274 1067 q 364 1082 336 1082 q 388 1076 386 1082 q 416 1023 397 1042 q 457 1004 435 1004 q 495 1021 478 1004 q 522 1071 513 1038 q 529 1075 522 1075 q 540 1072 535 1075 q 544 1067 546 1069 q 494 960 532 997 q 411 924 457 924 z "},"Ě":{"ha":794,"x_min":68,"x_max":743,"o":"m 725 221 q 732 224 728 224 q 740 222 736 224 q 743 218 744 219 q 729 21 729 128 q 725 5 729 10 q 708 0 721 0 l 75 0 q 69 8 69 0 q 74 17 69 17 q 134 24 115 17 q 159 50 153 31 q 165 113 165 69 l 165 756 q 158 817 165 797 q 132 844 151 836 q 74 851 113 851 q 69 860 69 851 q 71 868 68 868 l 669 868 q 681 856 681 868 l 683 672 q 676 668 683 668 q 667 671 668 668 q 581 794 643 749 q 435 839 519 839 l 408 839 q 347 833 365 839 q 322 810 328 826 q 315 754 317 793 l 315 471 l 489 471 q 593 496 560 471 q 626 576 626 521 q 636 582 626 582 q 646 575 646 582 l 644 499 q 643 451 643 482 q 644 385 643 407 l 646 310 q 638 303 646 303 q 630 305 633 303 q 626 310 626 307 q 590 401 626 369 q 486 432 553 432 l 315 432 l 315 118 q 333 46 315 63 q 406 29 350 29 l 444 29 q 610 81 535 29 q 725 221 685 133 m 251 1099 l 250 1101 q 253 1107 250 1104 q 260 1108 257 1110 l 401 1054 l 544 1108 q 552 1105 547 1110 q 554 1099 557 1100 l 421 938 q 408 932 417 932 q 394 938 400 932 l 251 1099 z "},"Ê":{"ha":794,"x_min":68,"x_max":743,"o":"m 725 221 q 732 224 728 224 q 740 222 736 224 q 743 218 744 219 q 729 21 729 128 q 725 5 729 10 q 708 0 721 0 l 75 0 q 69 8 69 0 q 74 17 69 17 q 134 24 115 17 q 159 50 153 31 q 165 113 165 69 l 165 756 q 158 817 165 797 q 132 844 151 836 q 74 851 113 851 q 69 860 69 851 q 71 868 68 868 l 669 868 q 681 856 681 868 l 683 672 q 676 668 683 668 q 667 671 668 668 q 581 794 643 749 q 435 839 519 839 l 408 839 q 347 833 365 839 q 322 810 328 826 q 315 754 317 793 l 315 471 l 489 471 q 593 496 560 471 q 626 576 626 521 q 636 582 626 582 q 646 575 646 582 l 644 499 q 643 451 643 482 q 644 385 643 407 l 646 310 q 638 303 646 303 q 630 305 633 303 q 626 310 626 307 q 590 401 626 369 q 486 432 553 432 l 315 432 l 315 118 q 333 46 315 63 q 406 29 350 29 l 444 29 q 610 81 535 29 q 725 221 685 133 m 269 917 q 262 920 265 917 q 261 926 258 924 l 393 1086 q 404 1093 397 1093 q 418 1086 411 1093 l 563 926 q 562 919 565 924 q 556 917 558 914 l 414 969 l 271 917 l 269 917 z "},"Ế":{"ha":794,"x_min":68,"x_max":743,"o":"m 725 221 q 732 224 728 224 q 740 222 736 224 q 743 218 744 219 q 729 21 729 128 q 725 5 729 10 q 708 0 721 0 l 75 0 q 69 8 69 0 q 74 17 69 17 q 134 24 115 17 q 159 50 153 31 q 165 113 165 69 l 165 756 q 158 817 165 797 q 132 844 151 836 q 74 851 113 851 q 69 860 69 851 q 71 868 68 868 l 669 868 q 681 856 681 868 l 683 672 q 676 668 683 668 q 667 671 668 668 q 581 794 643 749 q 435 839 519 839 l 408 839 q 347 833 365 839 q 322 810 328 826 q 315 754 317 793 l 315 471 l 489 471 q 593 496 560 471 q 626 576 626 521 q 636 582 626 582 q 646 575 646 582 l 644 499 q 643 451 643 482 q 644 385 643 407 l 646 310 q 638 303 646 303 q 630 305 633 303 q 626 310 626 307 q 590 401 626 369 q 486 432 553 432 l 315 432 l 315 118 q 333 46 315 63 q 406 29 350 29 l 444 29 q 610 81 535 29 q 725 221 685 133 m 265 917 q 258 920 261 917 q 257 926 254 924 l 389 1086 q 400 1093 393 1093 q 414 1086 407 1093 l 558 926 q 558 919 561 924 q 551 917 554 914 l 410 969 l 267 917 l 265 917 m 506 1004 q 499 1010 501 1004 q 499 1021 496 1017 q 578 1165 550 1104 q 589 1169 581 1169 q 647 1158 608 1169 q 709 1133 685 1146 q 721 1114 733 1119 q 611 1066 660 1092 q 508 1006 563 1040 l 506 1004 z "},"Ệ":{"ha":794,"x_min":68,"x_max":743,"o":"m 725 221 q 732 224 728 224 q 740 222 736 224 q 743 218 744 219 q 729 21 729 128 q 725 5 729 10 q 708 0 721 0 l 75 0 q 69 8 69 0 q 74 17 69 17 q 134 24 115 17 q 159 50 153 31 q 165 113 165 69 l 165 756 q 158 817 165 797 q 132 844 151 836 q 74 851 113 851 q 69 860 69 851 q 71 868 68 868 l 669 868 q 681 856 681 868 l 683 672 q 676 668 683 668 q 667 671 668 668 q 581 794 643 749 q 435 839 519 839 l 408 839 q 347 833 365 839 q 322 810 328 826 q 315 754 317 793 l 315 471 l 489 471 q 593 496 560 471 q 626 576 626 521 q 636 582 626 582 q 646 575 646 582 l 644 499 q 643 451 643 482 q 644 385 643 407 l 646 310 q 638 303 646 303 q 630 305 633 303 q 626 310 626 307 q 590 401 626 369 q 486 432 553 432 l 315 432 l 315 118 q 333 46 315 63 q 406 29 350 29 l 444 29 q 610 81 535 29 q 725 221 685 133 m 432 -287 q 369 -265 392 -287 q 347 -203 347 -243 q 370 -145 347 -167 q 432 -124 393 -124 q 491 -145 469 -124 q 513 -203 513 -167 q 492 -265 513 -243 q 432 -287 471 -287 m 269 917 q 262 920 265 917 q 261 926 258 924 l 393 1086 q 404 1093 397 1093 q 418 1086 411 1093 l 563 926 q 562 919 565 924 q 556 917 558 914 l 414 969 l 271 917 l 269 917 z "},"Ề":{"ha":794,"x_min":68,"x_max":743,"o":"m 725 221 q 732 224 728 224 q 740 222 736 224 q 743 218 744 219 q 729 21 729 128 q 725 5 729 10 q 708 0 721 0 l 75 0 q 69 8 69 0 q 74 17 69 17 q 134 24 115 17 q 159 50 153 31 q 165 113 165 69 l 165 756 q 158 817 165 797 q 132 844 151 836 q 74 851 113 851 q 69 860 69 851 q 71 868 68 868 l 669 868 q 681 856 681 868 l 683 672 q 676 668 683 668 q 667 671 668 668 q 581 794 643 749 q 435 839 519 839 l 408 839 q 347 833 365 839 q 322 810 328 826 q 315 754 317 793 l 315 471 l 489 471 q 593 496 560 471 q 626 576 626 521 q 636 582 626 582 q 646 575 646 582 l 644 499 q 643 451 643 482 q 644 385 643 407 l 646 310 q 638 303 646 303 q 630 305 633 303 q 626 310 626 307 q 590 401 626 369 q 486 432 553 432 l 315 432 l 315 118 q 333 46 315 63 q 406 29 350 29 l 444 29 q 610 81 535 29 q 725 221 685 133 m 268 917 q 260 920 264 917 q 260 926 257 924 l 392 1086 q 403 1093 396 1093 q 417 1086 410 1093 l 561 926 q 560 919 564 924 q 554 917 557 914 l 413 969 l 269 917 l 268 917 m 638 993 q 432 1101 542 1057 q 442 1120 418 1107 q 503 1145 465 1133 q 561 1157 542 1157 q 572 1153 571 1157 q 650 1008 604 1083 l 650 1006 q 647 996 650 1000 q 638 993 643 992 z "},"Ể":{"ha":794,"x_min":68,"x_max":743,"o":"m 725 221 q 732 224 728 224 q 740 222 736 224 q 743 218 744 219 q 729 21 729 128 q 725 5 729 10 q 708 0 721 0 l 75 0 q 69 8 69 0 q 74 17 69 17 q 134 24 115 17 q 159 50 153 31 q 165 113 165 69 l 165 756 q 158 817 165 797 q 132 844 151 836 q 74 851 113 851 q 69 860 69 851 q 71 868 68 868 l 669 868 q 681 856 681 868 l 683 672 q 676 668 683 668 q 667 671 668 668 q 581 794 643 749 q 435 839 519 839 l 408 839 q 347 833 365 839 q 322 810 328 826 q 315 754 317 793 l 315 471 l 489 471 q 593 496 560 471 q 626 576 626 521 q 636 582 626 582 q 646 575 646 582 l 644 499 q 643 451 643 482 q 644 385 643 407 l 646 310 q 638 303 646 303 q 630 305 633 303 q 626 310 626 307 q 590 401 626 369 q 486 432 553 432 l 315 432 l 315 118 q 333 46 315 63 q 406 29 350 29 l 444 29 q 610 81 535 29 q 725 221 685 133 m 265 917 q 258 920 261 917 q 257 926 254 924 l 389 1086 q 400 1093 393 1093 q 414 1086 407 1093 l 558 926 q 558 919 561 924 q 551 917 554 914 l 410 969 l 267 917 l 265 917 m 515 996 q 513 1015 513 1010 q 526 1068 513 1035 q 539 1117 539 1103 q 526 1149 539 1139 q 497 1160 514 1160 q 472 1156 482 1160 l 469 1154 q 463 1159 465 1154 q 463 1167 460 1164 q 547 1192 504 1192 q 603 1174 582 1192 q 625 1132 625 1157 q 612 1097 625 1113 q 575 1060 599 1081 q 541 1024 551 1038 q 532 996 531 1011 q 524 992 532 993 q 515 996 517 992 z "},"Ễ":{"ha":794,"x_min":68,"x_max":743,"o":"m 725 221 q 732 224 728 224 q 740 222 736 224 q 743 218 744 219 q 729 21 729 128 q 725 5 729 10 q 708 0 721 0 l 75 0 q 69 8 69 0 q 74 17 69 17 q 134 24 115 17 q 159 50 153 31 q 165 113 165 69 l 165 756 q 158 817 165 797 q 132 844 151 836 q 74 851 113 851 q 69 860 69 851 q 71 868 68 868 l 669 868 q 681 856 681 868 l 683 672 q 676 668 683 668 q 667 671 668 668 q 581 794 643 749 q 435 839 519 839 l 408 839 q 347 833 365 839 q 322 810 328 826 q 315 754 317 793 l 315 471 l 489 471 q 593 496 560 471 q 626 576 626 521 q 636 582 626 582 q 646 575 646 582 l 644 499 q 643 451 643 482 q 644 385 643 407 l 646 310 q 638 303 646 303 q 630 305 633 303 q 626 310 626 307 q 590 401 626 369 q 486 432 553 432 l 315 432 l 315 118 q 333 46 315 63 q 406 29 350 29 l 444 29 q 610 81 535 29 q 725 221 685 133 m 267 917 q 259 920 263 917 q 258 926 256 924 l 390 1086 q 401 1093 394 1093 q 415 1086 408 1093 l 560 926 q 559 919 563 924 q 553 917 556 914 l 411 969 l 268 917 l 267 917 m 232 1104 q 225 1108 229 1104 q 222 1114 221 1111 q 272 1194 246 1163 q 340 1226 299 1226 q 378 1220 354 1226 q 408 1213 401 1214 q 514 1192 479 1192 q 560 1200 543 1192 q 596 1229 578 1208 q 597 1231 596 1231 q 597 1231 597 1231 q 604 1226 600 1231 q 607 1219 608 1222 q 554 1131 578 1153 q 494 1108 531 1108 q 414 1124 468 1108 q 363 1136 389 1131 q 314 1142 336 1142 q 268 1135 281 1142 q 233 1104 256 1128 l 232 1104 z "},"Ë":{"ha":794,"x_min":68,"x_max":743,"o":"m 725 221 q 732 224 728 224 q 740 222 736 224 q 743 218 744 219 q 729 21 729 128 q 725 5 729 10 q 708 0 721 0 l 75 0 q 69 8 69 0 q 74 17 69 17 q 134 24 115 17 q 159 50 153 31 q 165 113 165 69 l 165 756 q 158 817 165 797 q 132 844 151 836 q 74 851 113 851 q 69 860 69 851 q 71 868 68 868 l 669 868 q 681 856 681 868 l 683 672 q 676 668 683 668 q 667 671 668 668 q 581 794 643 749 q 435 839 519 839 l 408 839 q 347 833 365 839 q 322 810 328 826 q 315 754 317 793 l 315 471 l 489 471 q 593 496 560 471 q 626 576 626 521 q 636 582 626 582 q 646 575 646 582 l 644 499 q 643 451 643 482 q 644 385 643 407 l 646 310 q 638 303 646 303 q 630 305 633 303 q 626 310 626 307 q 590 401 626 369 q 486 432 553 432 l 315 432 l 315 118 q 333 46 315 63 q 406 29 350 29 l 444 29 q 610 81 535 29 q 725 221 685 133 m 288 976 q 232 997 253 976 q 211 1053 211 1017 q 232 1106 211 1086 q 288 1125 253 1125 q 342 1106 322 1125 q 361 1053 361 1086 q 342 997 361 1017 q 288 976 322 976 m 531 976 q 475 997 494 976 q 456 1053 456 1017 q 476 1105 456 1086 q 531 1124 496 1124 q 583 1105 564 1124 q 601 1053 601 1086 q 583 997 601 1017 q 531 976 564 976 z "},"Ė":{"ha":794,"x_min":68,"x_max":743,"o":"m 725 221 q 732 224 728 224 q 740 222 736 224 q 743 218 744 219 q 729 21 729 128 q 725 5 729 10 q 708 0 721 0 l 75 0 q 69 8 69 0 q 74 17 69 17 q 134 24 115 17 q 159 50 153 31 q 165 113 165 69 l 165 756 q 158 817 165 797 q 132 844 151 836 q 74 851 113 851 q 69 860 69 851 q 71 868 68 868 l 669 868 q 681 856 681 868 l 683 672 q 676 668 683 668 q 667 671 668 668 q 581 794 643 749 q 435 839 519 839 l 408 839 q 347 833 365 839 q 322 810 328 826 q 315 754 317 793 l 315 471 l 489 471 q 593 496 560 471 q 626 576 626 521 q 636 582 626 582 q 646 575 646 582 l 644 499 q 643 451 643 482 q 644 385 643 407 l 646 310 q 638 303 646 303 q 630 305 633 303 q 626 310 626 307 q 590 401 626 369 q 486 432 553 432 l 315 432 l 315 118 q 333 46 315 63 q 406 29 350 29 l 444 29 q 610 81 535 29 q 725 221 685 133 m 411 990 q 349 1013 371 990 q 326 1075 326 1036 q 349 1133 326 1111 q 411 1156 372 1156 q 470 1134 449 1156 q 492 1075 492 1113 q 471 1013 492 1035 q 411 990 450 990 z "},"Ẹ":{"ha":794,"x_min":68,"x_max":743,"o":"m 725 221 q 732 224 728 224 q 740 222 736 224 q 743 218 744 219 q 729 21 729 128 q 725 5 729 10 q 708 0 721 0 l 75 0 q 69 8 69 0 q 74 17 69 17 q 134 24 115 17 q 159 50 153 31 q 165 113 165 69 l 165 756 q 158 817 165 797 q 132 844 151 836 q 74 851 113 851 q 69 860 69 851 q 71 868 68 868 l 669 868 q 681 856 681 868 l 683 672 q 676 668 683 668 q 667 671 668 668 q 581 794 643 749 q 435 839 519 839 l 408 839 q 347 833 365 839 q 322 810 328 826 q 315 754 317 793 l 315 471 l 489 471 q 593 496 560 471 q 626 576 626 521 q 636 582 626 582 q 646 575 646 582 l 644 499 q 643 451 643 482 q 644 385 643 407 l 646 310 q 638 303 646 303 q 630 305 633 303 q 626 310 626 307 q 590 401 626 369 q 486 432 553 432 l 315 432 l 315 118 q 333 46 315 63 q 406 29 350 29 l 444 29 q 610 81 535 29 q 725 221 685 133 m 432 -287 q 369 -265 392 -287 q 347 -203 347 -243 q 370 -145 347 -167 q 432 -124 393 -124 q 491 -145 469 -124 q 513 -203 513 -167 q 492 -265 513 -243 q 432 -287 471 -287 z "},"È":{"ha":794,"x_min":68,"x_max":743,"o":"m 725 221 q 732 224 728 224 q 740 222 736 224 q 743 218 744 219 q 729 21 729 128 q 725 5 729 10 q 708 0 721 0 l 75 0 q 69 8 69 0 q 74 17 69 17 q 134 24 115 17 q 159 50 153 31 q 165 113 165 69 l 165 756 q 158 817 165 797 q 132 844 151 836 q 74 851 113 851 q 69 860 69 851 q 71 868 68 868 l 669 868 q 681 856 681 868 l 683 672 q 676 668 683 668 q 667 671 668 668 q 581 794 643 749 q 435 839 519 839 l 408 839 q 347 833 365 839 q 322 810 328 826 q 315 754 317 793 l 315 471 l 489 471 q 593 496 560 471 q 626 576 626 521 q 636 582 626 582 q 646 575 646 582 l 644 499 q 643 451 643 482 q 644 385 643 407 l 646 310 q 638 303 646 303 q 630 305 633 303 q 626 310 626 307 q 590 401 626 369 q 486 432 553 432 l 315 432 l 315 118 q 333 46 315 63 q 406 29 350 29 l 444 29 q 610 81 535 29 q 725 221 685 133 m 553 961 q 417 1008 474 990 q 269 1050 360 1025 q 276 1067 251 1054 q 342 1092 301 1081 q 404 1103 382 1103 q 417 1100 411 1103 q 511 1017 450 1068 l 563 974 q 565 968 565 972 q 561 962 565 964 q 553 961 557 960 z "},"Ẻ":{"ha":794,"x_min":68,"x_max":743,"o":"m 725 221 q 732 224 728 224 q 740 222 736 224 q 743 218 744 219 q 729 21 729 128 q 725 5 729 10 q 708 0 721 0 l 75 0 q 69 8 69 0 q 74 17 69 17 q 134 24 115 17 q 159 50 153 31 q 165 113 165 69 l 165 756 q 158 817 165 797 q 132 844 151 836 q 74 851 113 851 q 69 860 69 851 q 71 868 68 868 l 669 868 q 681 856 681 868 l 683 672 q 676 668 683 668 q 667 671 668 668 q 581 794 643 749 q 435 839 519 839 l 408 839 q 347 833 365 839 q 322 810 328 826 q 315 754 317 793 l 315 471 l 489 471 q 593 496 560 471 q 626 576 626 521 q 636 582 626 582 q 646 575 646 582 l 644 499 q 643 451 643 482 q 644 385 643 407 l 646 310 q 638 303 646 303 q 630 305 633 303 q 626 310 626 307 q 590 401 626 369 q 486 432 553 432 l 315 432 l 315 118 q 333 46 315 63 q 406 29 350 29 l 444 29 q 610 81 535 29 q 725 221 685 133 m 415 907 q 408 903 415 904 q 400 907 401 903 q 389 968 389 936 q 396 1022 389 981 q 403 1075 403 1050 q 401 1099 403 1090 q 385 1135 396 1124 q 354 1147 374 1147 q 306 1133 331 1147 l 303 1133 q 294 1138 299 1133 q 294 1146 290 1142 q 342 1174 314 1164 q 401 1185 371 1185 q 475 1165 446 1185 q 510 1111 504 1146 q 511 1097 511 1107 q 498 1049 511 1072 q 458 997 485 1026 q 422 946 433 965 q 415 907 411 926 z "},"Ē":{"ha":794,"x_min":68,"x_max":743,"o":"m 725 221 q 732 224 728 224 q 740 222 736 224 q 743 218 744 219 q 729 21 729 128 q 725 5 729 10 q 708 0 721 0 l 75 0 q 69 8 69 0 q 74 17 69 17 q 134 24 115 17 q 159 50 153 31 q 165 113 165 69 l 165 756 q 158 817 165 797 q 132 844 151 836 q 74 851 113 851 q 69 860 69 851 q 71 868 68 868 l 669 868 q 681 856 681 868 l 683 672 q 676 668 683 668 q 667 671 668 668 q 581 794 643 749 q 435 839 519 839 l 408 839 q 347 833 365 839 q 322 810 328 826 q 315 754 317 793 l 315 471 l 489 471 q 593 496 560 471 q 626 576 626 521 q 636 582 626 582 q 646 575 646 582 l 644 499 q 643 451 643 482 q 644 385 643 407 l 646 310 q 638 303 646 303 q 630 305 633 303 q 626 310 626 307 q 590 401 626 369 q 486 432 553 432 l 315 432 l 315 118 q 333 46 315 63 q 406 29 350 29 l 444 29 q 610 81 535 29 q 725 221 685 133 m 246 989 q 236 997 240 989 q 232 1017 232 1006 q 236 1036 232 1028 q 246 1044 240 1044 l 563 1044 q 574 1036 569 1044 q 578 1017 578 1028 q 574 997 578 1006 q 563 989 569 989 l 246 989 z "},"Ę":{"ha":794,"x_min":68,"x_max":747,"o":"m 736 -293 q 744 -299 740 -293 q 744 -307 747 -304 q 681 -365 713 -347 q 611 -382 650 -382 q 508 -341 547 -382 q 468 -239 468 -300 q 507 -124 468 -181 q 621 0 546 -68 l 75 0 q 69 8 69 0 q 74 17 69 17 q 134 24 115 17 q 159 50 153 31 q 165 113 165 69 l 165 756 q 158 817 165 797 q 132 844 151 836 q 74 851 113 851 q 69 860 69 851 q 71 868 68 868 l 669 868 q 681 856 681 868 l 683 672 q 676 668 683 668 q 667 671 668 668 q 581 794 643 749 q 435 839 519 839 l 408 839 q 347 833 365 839 q 322 810 328 826 q 315 754 317 793 l 315 471 l 489 471 q 593 496 560 471 q 626 576 626 521 q 636 582 626 582 q 646 575 646 582 l 644 499 q 643 451 643 482 q 644 385 643 407 l 646 310 q 638 303 646 303 q 630 305 633 303 q 626 310 626 307 q 590 401 626 369 q 486 432 553 432 l 315 432 l 315 118 q 333 46 315 63 q 406 29 350 29 l 444 29 q 610 81 535 29 q 725 221 685 133 q 732 224 728 224 q 740 222 736 224 q 743 218 744 219 q 729 21 729 128 q 725 5 729 10 q 708 0 721 0 l 651 0 q 600 -98 618 -53 q 583 -192 582 -143 q 608 -284 583 -246 q 674 -322 632 -322 q 708 -315 692 -322 q 733 -294 724 -307 l 736 -293 z "},"Ẽ":{"ha":794,"x_min":68,"x_max":743,"o":"m 725 221 q 732 224 728 224 q 740 222 736 224 q 743 218 744 219 q 729 21 729 128 q 725 5 729 10 q 708 0 721 0 l 75 0 q 69 8 69 0 q 74 17 69 17 q 134 24 115 17 q 159 50 153 31 q 165 113 165 69 l 165 756 q 158 817 165 797 q 132 844 151 836 q 74 851 113 851 q 69 860 69 851 q 71 868 68 868 l 669 868 q 681 856 681 868 l 683 672 q 676 668 683 668 q 667 671 668 668 q 581 794 643 749 q 435 839 519 839 l 408 839 q 347 833 365 839 q 322 810 328 826 q 315 754 317 793 l 315 471 l 489 471 q 593 496 560 471 q 626 576 626 521 q 636 582 626 582 q 646 575 646 582 l 644 499 q 643 451 643 482 q 644 385 643 407 l 646 310 q 638 303 646 303 q 630 305 633 303 q 626 310 626 307 q 590 401 626 369 q 486 432 553 432 l 315 432 l 315 118 q 333 46 315 63 q 406 29 350 29 l 444 29 q 610 81 535 29 q 725 221 685 133 m 240 953 q 238 951 240 951 q 231 956 235 951 q 229 963 228 960 q 347 1075 279 1075 q 414 1061 361 1075 q 469 1047 440 1053 q 519 1040 497 1040 q 566 1049 549 1040 q 601 1078 583 1057 l 603 1078 q 610 1074 607 1078 q 613 1068 614 1071 q 560 978 583 1001 q 500 956 536 956 q 419 972 478 956 q 369 985 396 979 q 322 990 343 990 q 274 983 288 990 q 240 953 261 975 z "},"F":{"ha":726,"x_min":63,"x_max":678,"o":"m 674 856 q 678 672 678 775 q 670 668 678 668 q 660 671 663 668 q 577 794 639 749 q 431 839 515 839 l 403 839 q 340 833 358 839 q 317 810 322 826 q 310 754 311 793 l 310 454 l 451 454 q 553 479 521 454 q 588 561 586 504 q 597 567 588 567 q 606 561 606 567 l 604 433 q 606 367 604 389 l 607 293 q 600 288 607 288 q 594 290 597 288 q 590 294 590 292 q 552 384 590 353 q 449 415 514 415 l 310 415 l 310 118 q 322 54 310 75 q 366 25 335 33 q 460 17 397 17 q 465 8 465 17 q 460 0 465 0 q 406 1 428 0 l 233 3 l 138 1 q 67 0 111 0 q 63 8 63 0 q 67 17 63 17 q 128 24 110 17 q 153 50 147 31 q 160 113 160 69 l 160 756 q 153 817 160 797 q 126 844 146 836 q 67 851 107 851 q 63 860 63 851 q 67 868 63 868 l 664 868 q 672 865 669 868 q 674 856 674 863 z "},"G":{"ha":950,"x_min":50,"x_max":903,"o":"m 550 -17 q 283 43 396 -17 q 110 208 169 103 q 50 443 50 313 q 117 670 50 569 q 299 827 183 771 q 556 883 414 883 q 689 872 621 883 q 796 843 757 860 q 810 832 807 838 q 814 811 813 826 l 825 629 q 818 622 825 624 q 808 625 811 621 q 681 790 760 731 q 497 849 601 849 q 288 753 363 849 q 213 494 213 658 q 263 242 213 351 q 399 72 313 132 q 596 13 486 13 q 672 27 646 13 q 709 76 699 42 q 719 175 719 110 q 707 274 719 243 q 661 314 694 304 q 554 324 628 324 q 546 335 546 324 q 548 342 546 339 q 553 346 550 346 q 744 339 668 339 q 894 343 817 339 q 901 333 900 343 q 897 324 903 324 q 869 313 875 325 q 864 256 864 300 l 864 161 q 868 74 864 99 q 872 39 872 49 q 870 28 872 31 q 860 22 868 25 q 550 -17 682 -17 z "},"Ğ":{"ha":950,"x_min":50,"x_max":901,"o":"m 550 -17 q 283 43 396 -17 q 110 208 169 103 q 50 443 50 313 q 117 670 50 569 q 299 827 183 771 q 556 883 414 883 q 689 872 621 883 q 796 843 757 860 q 810 832 807 838 q 814 811 813 826 l 825 629 q 818 622 825 624 q 808 625 811 621 q 681 790 760 731 q 497 849 601 849 q 288 753 363 849 q 213 494 213 658 q 263 242 213 351 q 399 72 313 132 q 596 13 486 13 q 672 27 646 13 q 709 76 699 42 q 719 175 719 110 q 707 274 719 243 q 661 314 694 304 q 554 324 628 324 q 546 335 546 324 q 548 342 546 339 q 553 346 550 346 q 744 339 668 339 q 894 343 817 339 q 901 333 900 343 q 897 324 903 324 q 869 313 875 325 q 864 256 864 300 l 864 161 q 868 74 864 99 q 872 39 872 49 q 870 28 872 31 q 860 22 868 25 q 550 -17 682 -17 m 525 924 q 441 958 479 924 q 389 1058 403 993 q 419 1074 388 1067 q 478 1082 450 1082 q 501 1076 500 1082 q 530 1023 511 1042 q 571 1004 549 1004 q 609 1021 592 1004 q 636 1071 626 1038 q 643 1075 636 1075 q 654 1072 649 1075 q 658 1067 660 1069 q 608 960 646 997 q 525 924 571 924 z "},"Ǧ":{"ha":950,"x_min":50,"x_max":901,"o":"m 550 -17 q 283 43 396 -17 q 110 208 169 103 q 50 443 50 313 q 117 670 50 569 q 299 827 183 771 q 556 883 414 883 q 689 872 621 883 q 796 843 757 860 q 810 832 807 838 q 814 811 813 826 l 825 629 q 818 622 825 624 q 808 625 811 621 q 681 790 760 731 q 497 849 601 849 q 288 753 363 849 q 213 494 213 658 q 263 242 213 351 q 399 72 313 132 q 596 13 486 13 q 672 27 646 13 q 709 76 699 42 q 719 175 719 110 q 707 274 719 243 q 661 314 694 304 q 554 324 628 324 q 546 335 546 324 q 548 342 546 339 q 553 346 550 346 q 744 339 668 339 q 894 343 817 339 q 901 333 900 343 q 897 324 903 324 q 869 313 875 325 q 864 256 864 300 l 864 161 q 868 74 864 99 q 872 39 872 49 q 870 28 872 31 q 860 22 868 25 q 550 -17 682 -17 m 372 1099 l 371 1101 q 374 1107 371 1104 q 381 1108 378 1110 l 522 1054 l 665 1108 q 673 1105 668 1110 q 675 1099 678 1100 l 542 938 q 529 932 538 932 q 515 938 521 932 l 372 1099 z "},"Ĝ":{"ha":950,"x_min":50,"x_max":901,"o":"m 550 -17 q 283 43 396 -17 q 110 208 169 103 q 50 443 50 313 q 117 670 50 569 q 299 827 183 771 q 556 883 414 883 q 689 872 621 883 q 796 843 757 860 q 810 832 807 838 q 814 811 813 826 l 825 629 q 818 622 825 624 q 808 625 811 621 q 681 790 760 731 q 497 849 601 849 q 288 753 363 849 q 213 494 213 658 q 263 242 213 351 q 399 72 313 132 q 596 13 486 13 q 672 27 646 13 q 709 76 699 42 q 719 175 719 110 q 707 274 719 243 q 661 314 694 304 q 554 324 628 324 q 546 335 546 324 q 548 342 546 339 q 553 346 550 346 q 744 339 668 339 q 894 343 817 339 q 901 333 900 343 q 897 324 903 324 q 869 313 875 325 q 864 256 864 300 l 864 161 q 868 74 864 99 q 872 39 872 49 q 870 28 872 31 q 860 22 868 25 q 550 -17 682 -17 m 390 917 q 383 920 386 917 q 382 926 379 924 l 514 1086 q 525 1093 518 1093 q 539 1086 532 1093 l 683 926 q 683 919 686 924 q 676 917 679 914 l 535 969 l 392 917 l 390 917 z "},"Ģ":{"ha":950,"x_min":50,"x_max":901,"o":"m 550 -17 q 283 43 396 -17 q 110 208 169 103 q 50 443 50 313 q 117 670 50 569 q 299 827 183 771 q 556 883 414 883 q 689 872 621 883 q 796 843 757 860 q 810 832 807 838 q 814 811 813 826 l 825 629 q 818 622 825 624 q 808 625 811 621 q 681 790 760 731 q 497 849 601 849 q 288 753 363 849 q 213 494 213 658 q 263 242 213 351 q 399 72 313 132 q 596 13 486 13 q 672 27 646 13 q 709 76 699 42 q 719 175 719 110 q 707 274 719 243 q 661 314 694 304 q 554 324 628 324 q 546 335 546 324 q 548 342 546 339 q 553 346 550 346 q 744 339 668 339 q 894 343 817 339 q 901 333 900 343 q 897 324 903 324 q 869 313 875 325 q 864 256 864 300 l 864 161 q 868 74 864 99 q 872 39 872 49 q 870 28 872 31 q 860 22 868 25 q 550 -17 682 -17 m 564 -96 q 636 -126 611 -96 q 661 -208 661 -157 q 633 -304 661 -262 q 556 -382 606 -346 l 553 -383 q 544 -377 547 -383 q 546 -368 542 -371 q 594 -323 576 -346 q 613 -275 613 -300 q 599 -229 613 -243 q 543 -256 585 -256 q 493 -233 513 -256 q 474 -176 474 -211 q 500 -117 474 -139 q 564 -96 526 -96 z "},"Ġ":{"ha":950,"x_min":50,"x_max":901,"o":"m 550 -17 q 283 43 396 -17 q 110 208 169 103 q 50 443 50 313 q 117 670 50 569 q 299 827 183 771 q 556 883 414 883 q 689 872 621 883 q 796 843 757 860 q 810 832 807 838 q 814 811 813 826 l 825 629 q 818 622 825 624 q 808 625 811 621 q 681 790 760 731 q 497 849 601 849 q 288 753 363 849 q 213 494 213 658 q 263 242 213 351 q 399 72 313 132 q 596 13 486 13 q 672 27 646 13 q 709 76 699 42 q 719 175 719 110 q 707 274 719 243 q 661 314 694 304 q 554 324 628 324 q 546 335 546 324 q 548 342 546 339 q 553 346 550 346 q 744 339 668 339 q 894 343 817 339 q 901 333 900 343 q 897 324 903 324 q 869 313 875 325 q 864 256 864 300 l 864 161 q 868 74 864 99 q 872 39 872 49 q 870 28 872 31 q 860 22 868 25 q 550 -17 682 -17 m 532 990 q 469 1013 492 990 q 447 1075 447 1036 q 470 1133 447 1111 q 532 1156 493 1156 q 591 1134 569 1156 q 613 1075 613 1113 q 592 1013 613 1035 q 532 990 571 990 z "},"Ḡ":{"ha":950,"x_min":50,"x_max":901,"o":"m 550 -17 q 283 43 396 -17 q 110 208 169 103 q 50 443 50 313 q 117 670 50 569 q 299 827 183 771 q 556 883 414 883 q 689 872 621 883 q 796 843 757 860 q 810 832 807 838 q 814 811 813 826 l 825 629 q 818 622 825 624 q 808 625 811 621 q 681 790 760 731 q 497 849 601 849 q 288 753 363 849 q 213 494 213 658 q 263 242 213 351 q 399 72 313 132 q 596 13 486 13 q 672 27 646 13 q 709 76 699 42 q 719 175 719 110 q 707 274 719 243 q 661 314 694 304 q 554 324 628 324 q 546 335 546 324 q 548 342 546 339 q 553 346 550 346 q 744 339 668 339 q 894 343 817 339 q 901 333 900 343 q 897 324 903 324 q 869 313 875 325 q 864 256 864 300 l 864 161 q 868 74 864 99 q 872 39 872 49 q 870 28 872 31 q 860 22 868 25 q 550 -17 682 -17 m 372 989 q 362 997 365 989 q 358 1017 358 1006 q 362 1036 358 1028 q 372 1044 365 1044 l 689 1044 q 699 1036 696 1044 q 703 1017 703 1028 q 699 997 703 1006 q 689 989 696 989 l 372 989 z "},"H":{"ha":1015,"x_min":60,"x_max":958,"o":"m 956 17 q 958 8 958 17 q 956 0 958 0 q 892 1 917 0 l 788 3 l 688 1 q 615 0 661 0 q 612 8 613 0 q 615 17 611 17 q 677 24 658 17 q 701 50 696 31 q 707 113 707 69 l 707 432 l 307 432 l 307 113 q 315 51 307 71 q 342 24 322 32 q 403 17 361 17 q 407 8 407 17 q 403 0 407 0 q 332 1 357 0 l 229 3 l 133 1 q 64 0 107 0 q 60 8 60 0 q 64 17 60 17 q 124 24 106 17 q 149 50 143 31 q 156 113 156 69 l 156 756 q 139 833 157 814 q 64 851 121 851 q 60 860 60 851 q 64 868 60 868 l 131 867 q 229 864 192 864 q 331 867 267 864 l 401 868 q 404 860 404 868 q 401 851 404 851 q 340 843 360 851 q 315 815 321 835 q 307 753 308 794 l 307 471 l 706 471 l 706 753 q 688 832 706 813 q 614 851 671 851 q 610 860 611 851 q 614 868 610 868 l 682 867 q 782 864 743 864 q 881 867 819 864 l 951 868 q 956 860 956 868 q 951 851 956 851 q 891 844 910 851 q 865 817 872 836 q 856 756 858 797 l 856 113 q 865 52 856 72 q 894 24 874 32 q 956 17 915 17 z "},"Ħ":{"ha":1015,"x_min":60,"x_max":958,"o":"m 956 17 q 958 8 958 17 q 956 0 958 0 q 892 1 917 0 l 788 3 l 688 1 q 615 0 661 0 q 612 8 613 0 q 615 17 611 17 q 677 24 658 17 q 701 50 696 31 q 707 113 707 69 l 707 303 l 307 303 l 307 113 q 315 51 307 71 q 342 24 322 32 q 403 17 361 17 q 407 8 407 17 q 403 0 407 0 q 332 1 357 0 l 229 3 l 133 1 q 64 0 107 0 q 60 8 60 0 q 64 17 60 17 q 124 24 106 17 q 149 50 143 31 q 156 113 156 69 l 156 756 q 139 833 157 814 q 64 851 121 851 q 60 860 60 851 q 64 868 60 868 l 131 867 q 229 864 192 864 q 331 867 267 864 l 401 868 q 404 860 404 868 q 401 851 404 851 q 340 843 360 851 q 315 815 321 835 q 307 753 308 794 l 307 601 l 706 601 l 706 753 q 688 832 706 813 q 614 851 671 851 q 610 860 611 851 q 614 868 610 868 l 682 867 q 782 864 743 864 q 881 867 819 864 l 951 868 q 956 860 956 868 q 951 851 956 851 q 891 844 910 851 q 865 817 872 836 q 856 756 858 797 l 856 113 q 865 52 856 72 q 894 24 874 32 q 956 17 915 17 m 307 342 l 707 342 l 706 563 l 307 563 l 307 342 z "},"Ḫ":{"ha":1015,"x_min":60,"x_max":958,"o":"m 956 17 q 958 8 958 17 q 956 0 958 0 q 892 1 917 0 l 788 3 l 688 1 q 615 0 661 0 q 612 8 613 0 q 615 17 611 17 q 677 24 658 17 q 701 50 696 31 q 707 113 707 69 l 707 432 l 307 432 l 307 113 q 315 51 307 71 q 342 24 322 32 q 403 17 361 17 q 407 8 407 17 q 403 0 407 0 q 332 1 357 0 l 229 3 l 133 1 q 64 0 107 0 q 60 8 60 0 q 64 17 60 17 q 124 24 106 17 q 149 50 143 31 q 156 113 156 69 l 156 756 q 139 833 157 814 q 64 851 121 851 q 60 860 60 851 q 64 868 60 868 l 131 867 q 229 864 192 864 q 331 867 267 864 l 401 868 q 404 860 404 868 q 401 851 404 851 q 340 843 360 851 q 315 815 321 835 q 307 753 308 794 l 307 471 l 706 471 l 706 753 q 688 832 706 813 q 614 851 671 851 q 610 860 611 851 q 614 868 610 868 l 682 867 q 782 864 743 864 q 881 867 819 864 l 951 868 q 956 860 956 868 q 951 851 956 851 q 891 844 910 851 q 865 817 872 836 q 856 756 858 797 l 856 113 q 865 52 856 72 q 894 24 874 32 q 956 17 915 17 m 511 -274 q 427 -239 465 -274 q 375 -139 389 -204 q 405 -123 374 -131 q 464 -115 436 -115 q 488 -121 486 -115 q 516 -174 497 -156 q 557 -193 535 -193 q 595 -176 578 -193 q 622 -126 613 -160 q 629 -122 622 -122 q 640 -125 635 -122 q 644 -131 646 -128 q 594 -237 632 -200 q 511 -274 557 -274 z "},"Ĥ":{"ha":1015,"x_min":60,"x_max":958,"o":"m 956 17 q 958 8 958 17 q 956 0 958 0 q 892 1 917 0 l 788 3 l 688 1 q 615 0 661 0 q 612 8 613 0 q 615 17 611 17 q 677 24 658 17 q 701 50 696 31 q 707 113 707 69 l 707 432 l 307 432 l 307 113 q 315 51 307 71 q 342 24 322 32 q 403 17 361 17 q 407 8 407 17 q 403 0 407 0 q 332 1 357 0 l 229 3 l 133 1 q 64 0 107 0 q 60 8 60 0 q 64 17 60 17 q 124 24 106 17 q 149 50 143 31 q 156 113 156 69 l 156 756 q 139 833 157 814 q 64 851 121 851 q 60 860 60 851 q 64 868 60 868 l 131 867 q 229 864 192 864 q 331 867 267 864 l 401 868 q 404 860 404 868 q 401 851 404 851 q 340 843 360 851 q 315 815 321 835 q 307 753 308 794 l 307 471 l 706 471 l 706 753 q 688 832 706 813 q 614 851 671 851 q 610 860 611 851 q 614 868 610 868 l 682 867 q 782 864 743 864 q 881 867 819 864 l 951 868 q 956 860 956 868 q 951 851 956 851 q 891 844 910 851 q 865 817 872 836 q 856 756 858 797 l 856 113 q 865 52 856 72 q 894 24 874 32 q 956 17 915 17 m 368 917 q 360 920 364 917 q 360 926 357 924 l 492 1086 q 503 1093 496 1093 q 517 1086 510 1093 l 661 926 q 660 919 664 924 q 654 917 657 914 l 513 969 l 369 917 l 368 917 z "},"Ḥ":{"ha":1015,"x_min":60,"x_max":958,"o":"m 956 17 q 958 8 958 17 q 956 0 958 0 q 892 1 917 0 l 788 3 l 688 1 q 615 0 661 0 q 612 8 613 0 q 615 17 611 17 q 677 24 658 17 q 701 50 696 31 q 707 113 707 69 l 707 432 l 307 432 l 307 113 q 315 51 307 71 q 342 24 322 32 q 403 17 361 17 q 407 8 407 17 q 403 0 407 0 q 332 1 357 0 l 229 3 l 133 1 q 64 0 107 0 q 60 8 60 0 q 64 17 60 17 q 124 24 106 17 q 149 50 143 31 q 156 113 156 69 l 156 756 q 139 833 157 814 q 64 851 121 851 q 60 860 60 851 q 64 868 60 868 l 131 867 q 229 864 192 864 q 331 867 267 864 l 401 868 q 404 860 404 868 q 401 851 404 851 q 340 843 360 851 q 315 815 321 835 q 307 753 308 794 l 307 471 l 706 471 l 706 753 q 688 832 706 813 q 614 851 671 851 q 610 860 611 851 q 614 868 610 868 l 682 867 q 782 864 743 864 q 881 867 819 864 l 951 868 q 956 860 956 868 q 951 851 956 851 q 891 844 910 851 q 865 817 872 836 q 856 756 858 797 l 856 113 q 865 52 856 72 q 894 24 874 32 q 956 17 915 17 m 526 -287 q 464 -265 486 -287 q 442 -203 442 -243 q 465 -145 442 -167 q 526 -124 488 -124 q 585 -145 564 -124 q 607 -203 607 -167 q 586 -265 607 -243 q 526 -287 565 -287 z "},"I":{"ha":497,"x_min":74,"x_max":422,"o":"m 78 0 q 75 8 75 0 q 78 17 75 17 q 140 24 121 17 q 165 50 158 31 q 172 113 172 69 l 172 756 q 165 816 172 796 q 138 844 157 836 q 78 851 118 851 q 74 860 75 851 q 78 868 74 868 l 147 867 q 246 864 208 864 q 351 867 288 864 l 419 868 q 422 860 422 868 q 419 851 422 851 q 358 843 378 851 q 333 815 339 835 q 325 753 326 796 l 325 113 q 333 51 325 71 q 360 24 340 32 q 419 17 379 17 q 422 8 422 17 q 419 0 422 0 q 350 1 376 0 l 249 3 l 150 1 q 78 0 124 0 z "},"Ĳ":{"ha":929,"x_min":28,"x_max":915,"o":"m 36 374 q 28 382 29 374 q 35 390 28 390 q 99 397 79 390 q 126 424 119 404 q 133 486 133 443 l 133 756 q 126 817 133 797 q 98 844 118 836 q 35 851 78 851 q 29 860 29 851 q 35 868 29 868 l 113 867 q 213 864 174 864 q 322 867 256 864 l 392 868 q 399 860 399 868 q 392 851 399 851 q 326 843 347 851 q 299 815 306 835 q 290 753 292 796 l 290 486 q 298 424 290 444 q 326 397 306 404 q 390 390 347 390 q 397 382 396 390 q 392 374 397 374 q 317 375 344 374 l 210 376 l 110 375 q 36 374 82 374 m 458 -19 q 294 10 368 -19 q 175 88 219 40 q 128 189 131 136 q 144 244 125 224 q 204 265 163 265 q 274 238 256 265 q 303 153 292 210 q 323 78 311 107 q 366 30 335 50 q 457 10 397 10 q 615 81 564 10 q 667 278 667 151 l 667 756 q 658 817 667 797 q 626 844 650 836 q 550 851 601 851 q 546 860 546 851 q 550 868 546 868 l 635 867 q 740 864 701 864 q 842 867 781 864 l 908 868 q 915 860 915 868 q 908 851 915 851 q 851 843 869 851 q 827 815 833 835 q 821 753 821 794 l 824 358 q 777 153 824 239 q 648 24 731 68 q 458 -19 565 -19 z "},"Í":{"ha":497,"x_min":74,"x_max":454,"o":"m 78 0 q 75 8 75 0 q 78 17 75 17 q 140 24 121 17 q 165 50 158 31 q 172 113 172 69 l 172 756 q 165 816 172 796 q 138 844 157 836 q 78 851 118 851 q 74 860 75 851 q 78 868 74 868 l 147 867 q 246 864 208 864 q 351 867 288 864 l 419 868 q 422 860 422 868 q 419 851 422 851 q 358 843 378 851 q 333 815 339 835 q 325 753 326 796 l 325 113 q 333 51 325 71 q 360 24 340 32 q 419 17 379 17 q 422 8 422 17 q 419 0 422 0 q 350 1 376 0 l 249 3 l 150 1 q 78 0 124 0 m 158 942 q 150 948 153 942 q 151 957 147 954 q 243 1044 186 985 q 300 1101 300 1101 q 351 1097 307 1108 q 430 1069 394 1085 q 450 1050 465 1053 q 161 943 301 1011 l 158 942 z "},"Ĭ":{"ha":497,"x_min":74,"x_max":422,"o":"m 78 0 q 75 8 75 0 q 78 17 75 17 q 140 24 121 17 q 165 50 158 31 q 172 113 172 69 l 172 756 q 165 816 172 796 q 138 844 157 836 q 78 851 118 851 q 74 860 75 851 q 78 868 74 868 l 147 867 q 246 864 208 864 q 351 867 288 864 l 419 868 q 422 860 422 868 q 419 851 422 851 q 358 843 378 851 q 333 815 339 835 q 325 753 326 796 l 325 113 q 333 51 325 71 q 360 24 340 32 q 419 17 379 17 q 422 8 422 17 q 419 0 422 0 q 350 1 376 0 l 249 3 l 150 1 q 78 0 124 0 m 244 924 q 160 958 199 924 q 108 1058 122 993 q 138 1074 107 1067 q 197 1082 169 1082 q 221 1076 219 1082 q 249 1023 231 1042 q 290 1004 268 1004 q 328 1021 311 1004 q 356 1071 346 1038 q 363 1075 356 1075 q 374 1072 368 1075 q 378 1067 379 1069 q 328 960 365 997 q 244 924 290 924 z "},"Ǐ":{"ha":497,"x_min":74,"x_max":422,"o":"m 78 0 q 75 8 75 0 q 78 17 75 17 q 140 24 121 17 q 165 50 158 31 q 172 113 172 69 l 172 756 q 165 816 172 796 q 138 844 157 836 q 78 851 118 851 q 74 860 75 851 q 78 868 74 868 l 147 867 q 246 864 208 864 q 351 867 288 864 l 419 868 q 422 860 422 868 q 419 851 422 851 q 358 843 378 851 q 333 815 339 835 q 325 753 326 796 l 325 113 q 333 51 325 71 q 360 24 340 32 q 419 17 379 17 q 422 8 422 17 q 419 0 422 0 q 350 1 376 0 l 249 3 l 150 1 q 78 0 124 0 m 85 1099 l 83 1101 q 87 1107 83 1104 q 93 1108 90 1110 l 235 1054 l 378 1108 q 385 1105 381 1110 q 388 1099 390 1100 l 254 938 q 242 932 250 932 q 228 938 233 932 l 85 1099 z "},"Î":{"ha":497,"x_min":74,"x_max":422,"o":"m 78 0 q 75 8 75 0 q 78 17 75 17 q 140 24 121 17 q 165 50 158 31 q 172 113 172 69 l 172 756 q 165 816 172 796 q 138 844 157 836 q 78 851 118 851 q 74 860 75 851 q 78 868 74 868 l 147 867 q 246 864 208 864 q 351 867 288 864 l 419 868 q 422 860 422 868 q 419 851 422 851 q 358 843 378 851 q 333 815 339 835 q 325 753 326 796 l 325 113 q 333 51 325 71 q 360 24 340 32 q 419 17 379 17 q 422 8 422 17 q 419 0 422 0 q 350 1 376 0 l 249 3 l 150 1 q 78 0 124 0 m 103 917 q 95 920 99 917 q 94 926 92 924 l 226 1086 q 238 1093 231 1093 q 251 1086 244 1093 l 396 926 q 395 919 399 924 q 389 917 392 914 l 247 969 l 104 917 l 103 917 z "},"Ï":{"ha":497,"x_min":64,"x_max":426,"o":"m 78 0 q 75 8 75 0 q 78 17 75 17 q 140 24 121 17 q 165 50 158 31 q 172 113 172 69 l 172 756 q 165 816 172 796 q 138 844 157 836 q 78 851 118 851 q 74 860 75 851 q 78 868 74 868 l 147 867 q 246 864 208 864 q 351 867 288 864 l 419 868 q 422 860 422 868 q 419 851 422 851 q 358 843 378 851 q 333 815 339 835 q 325 753 326 796 l 325 113 q 333 51 325 71 q 360 24 340 32 q 419 17 379 17 q 422 8 422 17 q 419 0 422 0 q 350 1 376 0 l 249 3 l 150 1 q 78 0 124 0 m 140 976 q 84 997 104 976 q 64 1053 64 1017 q 85 1106 64 1086 q 140 1125 106 1125 q 194 1106 175 1125 q 214 1053 214 1086 q 194 997 214 1017 q 140 976 175 976 m 353 976 q 297 997 317 976 q 276 1053 276 1017 q 297 1106 276 1086 q 353 1125 318 1125 q 407 1106 388 1125 q 426 1053 426 1086 q 407 997 426 1017 q 353 976 388 976 z "},"İ":{"ha":497,"x_min":74,"x_max":422,"o":"m 78 0 q 75 8 75 0 q 78 17 75 17 q 140 24 121 17 q 165 50 158 31 q 172 113 172 69 l 172 756 q 165 816 172 796 q 138 844 157 836 q 78 851 118 851 q 74 860 75 851 q 78 868 74 868 l 147 867 q 246 864 208 864 q 351 867 288 864 l 419 868 q 422 860 422 868 q 419 851 422 851 q 358 843 378 851 q 333 815 339 835 q 325 753 326 796 l 325 113 q 333 51 325 71 q 360 24 340 32 q 419 17 379 17 q 422 8 422 17 q 419 0 422 0 q 350 1 376 0 l 249 3 l 150 1 q 78 0 124 0 m 244 990 q 182 1013 204 990 q 160 1075 160 1036 q 183 1133 160 1111 q 244 1156 206 1156 q 303 1134 282 1156 q 325 1075 325 1113 q 304 1013 325 1035 q 244 990 283 990 z "},"Ị":{"ha":497,"x_min":74,"x_max":422,"o":"m 78 0 q 75 8 75 0 q 78 17 75 17 q 140 24 121 17 q 165 50 158 31 q 172 113 172 69 l 172 756 q 165 816 172 796 q 138 844 157 836 q 78 851 118 851 q 74 860 75 851 q 78 868 74 868 l 147 867 q 246 864 208 864 q 351 867 288 864 l 419 868 q 422 860 422 868 q 419 851 422 851 q 358 843 378 851 q 333 815 339 835 q 325 753 326 796 l 325 113 q 333 51 325 71 q 360 24 340 32 q 419 17 379 17 q 422 8 422 17 q 419 0 422 0 q 350 1 376 0 l 249 3 l 150 1 q 78 0 124 0 m 250 -287 q 188 -265 210 -287 q 165 -203 165 -243 q 188 -145 165 -167 q 250 -124 211 -124 q 309 -145 288 -124 q 331 -203 331 -167 q 310 -265 331 -243 q 250 -287 289 -287 z "},"Ì":{"ha":497,"x_min":74,"x_max":422,"o":"m 78 0 q 75 8 75 0 q 78 17 75 17 q 140 24 121 17 q 165 50 158 31 q 172 113 172 69 l 172 756 q 165 816 172 796 q 138 844 157 836 q 78 851 118 851 q 74 860 75 851 q 78 868 74 868 l 147 867 q 246 864 208 864 q 351 867 288 864 l 419 868 q 422 860 422 868 q 419 851 422 851 q 358 843 378 851 q 333 815 339 835 q 325 753 326 796 l 325 113 q 333 51 325 71 q 360 24 340 32 q 419 17 379 17 q 422 8 422 17 q 419 0 422 0 q 350 1 376 0 l 249 3 l 150 1 q 78 0 124 0 m 386 961 q 250 1008 307 990 q 103 1050 193 1025 q 110 1067 85 1054 q 175 1092 135 1081 q 238 1103 215 1103 q 250 1100 244 1103 q 344 1017 283 1068 l 396 974 q 399 968 399 972 q 394 962 399 964 q 386 961 390 960 z "},"Ỉ":{"ha":497,"x_min":74,"x_max":422,"o":"m 78 0 q 75 8 75 0 q 78 17 75 17 q 140 24 121 17 q 165 50 158 31 q 172 113 172 69 l 172 756 q 165 816 172 796 q 138 844 157 836 q 78 851 118 851 q 74 860 75 851 q 78 868 74 868 l 147 867 q 246 864 208 864 q 351 867 288 864 l 419 868 q 422 860 422 868 q 419 851 422 851 q 358 843 378 851 q 333 815 339 835 q 325 753 326 796 l 325 113 q 333 51 325 71 q 360 24 340 32 q 419 17 379 17 q 422 8 422 17 q 419 0 422 0 q 350 1 376 0 l 249 3 l 150 1 q 78 0 124 0 m 249 907 q 242 903 249 904 q 233 907 235 903 q 222 968 222 936 q 229 1022 222 981 q 236 1075 236 1050 q 235 1099 236 1090 q 218 1135 229 1124 q 188 1147 207 1147 q 139 1133 164 1147 l 136 1133 q 128 1138 132 1133 q 128 1146 124 1142 q 176 1174 147 1164 q 235 1185 204 1185 q 308 1165 279 1185 q 343 1111 338 1146 q 344 1097 344 1107 q 331 1049 344 1072 q 292 997 318 1026 q 256 946 267 965 q 249 907 244 926 z "},"Ī":{"ha":497,"x_min":65,"x_max":422,"o":"m 78 0 q 75 8 75 0 q 78 17 75 17 q 140 24 121 17 q 165 50 158 31 q 172 113 172 69 l 172 756 q 165 816 172 796 q 138 844 157 836 q 78 851 118 851 q 74 860 75 851 q 78 868 74 868 l 147 867 q 246 864 208 864 q 351 867 288 864 l 419 868 q 422 860 422 868 q 419 851 422 851 q 358 843 378 851 q 333 815 339 835 q 325 753 326 796 l 325 113 q 333 51 325 71 q 360 24 340 32 q 419 17 379 17 q 422 8 422 17 q 419 0 422 0 q 350 1 376 0 l 249 3 l 150 1 q 78 0 124 0 m 79 989 q 69 997 74 989 q 65 1017 65 1006 q 69 1036 65 1028 q 79 1044 74 1044 l 396 1044 q 407 1036 403 1044 q 411 1017 411 1028 q 407 997 411 1006 q 396 989 403 989 l 79 989 z "},"Į":{"ha":497,"x_min":74,"x_max":422,"o":"m 419 17 q 422 8 422 17 q 419 0 422 0 q 360 1 381 0 l 272 3 q 243 -157 243 -87 q 244 -192 243 -179 q 268 -282 246 -246 q 328 -318 290 -318 q 378 -294 361 -318 l 381 -293 q 388 -299 385 -293 q 389 -307 392 -304 q 326 -365 357 -347 q 256 -382 294 -382 q 165 -340 200 -382 q 129 -236 129 -297 q 158 -122 128 -178 q 247 3 188 -67 l 149 1 q 78 0 124 0 q 75 8 75 0 q 78 17 75 17 q 140 24 121 17 q 165 50 158 31 q 172 113 172 69 l 172 756 q 165 816 172 796 q 138 844 157 836 q 78 851 118 851 q 74 860 75 851 q 78 868 74 868 l 147 867 q 246 864 208 864 q 351 867 288 864 l 419 868 q 422 860 422 868 q 419 851 422 851 q 358 843 378 851 q 333 815 339 835 q 325 753 326 796 l 325 113 q 333 51 325 71 q 360 24 340 32 q 419 17 379 17 z "},"Ĩ":{"ha":497,"x_min":53,"x_max":438,"o":"m 78 0 q 75 8 75 0 q 78 17 75 17 q 140 24 121 17 q 165 50 158 31 q 172 113 172 69 l 172 756 q 165 816 172 796 q 138 844 157 836 q 78 851 118 851 q 74 860 75 851 q 78 868 74 868 l 147 867 q 246 864 208 864 q 351 867 288 864 l 419 868 q 422 860 422 868 q 419 851 422 851 q 358 843 378 851 q 333 815 339 835 q 325 753 326 796 l 325 113 q 333 51 325 71 q 360 24 340 32 q 419 17 379 17 q 422 8 422 17 q 419 0 422 0 q 350 1 376 0 l 249 3 l 150 1 q 78 0 124 0 m 64 953 q 63 951 64 951 q 63 951 63 951 q 56 956 60 951 q 53 963 51 960 q 103 1042 75 1010 q 172 1075 131 1075 q 238 1061 185 1075 q 346 1040 313 1040 q 392 1049 375 1040 q 426 1078 410 1057 l 428 1078 q 435 1074 431 1078 q 438 1068 439 1071 q 385 978 408 1000 q 326 956 363 956 q 244 972 303 956 q 206 982 238 974 q 146 990 174 990 q 102 984 115 990 q 78 967 89 978 q 64 953 68 957 z "},"J":{"ha":468,"x_min":46,"x_max":411,"o":"m 58 -268 q 49 -262 53 -269 q 49 -253 46 -256 q 136 -140 110 -215 q 160 56 163 -64 l 160 756 q 152 816 160 796 q 125 844 144 836 q 65 851 106 851 q 61 860 61 851 q 65 868 61 868 l 138 867 q 232 864 196 864 q 340 867 279 864 l 406 868 q 410 860 410 868 q 406 851 411 851 q 346 843 365 851 q 320 815 326 835 q 313 753 314 794 l 313 93 q 287 -83 313 -15 q 207 -192 261 -150 q 58 -268 153 -233 z "},"Ĵ":{"ha":468,"x_min":47,"x_max":410,"o":"m 58 -268 q 49 -262 53 -269 q 49 -253 46 -256 q 136 -140 110 -215 q 160 56 163 -64 l 160 756 q 152 816 160 796 q 125 844 144 836 q 65 851 106 851 q 61 860 61 851 q 65 868 61 868 l 138 867 q 232 864 196 864 q 340 867 279 864 l 406 868 q 410 860 410 868 q 406 851 411 851 q 346 843 365 851 q 320 815 326 835 q 313 753 314 794 l 313 93 q 287 -83 313 -15 q 207 -192 261 -150 q 58 -268 153 -233 m 86 917 q 78 920 82 917 q 78 926 75 924 l 210 1086 q 221 1093 214 1093 q 235 1086 228 1093 l 379 926 q 378 919 382 924 q 372 917 375 914 l 231 969 l 88 917 l 86 917 z "},"K":{"ha":938,"x_min":57,"x_max":946,"o":"m 940 17 q 945 8 944 17 q 940 0 946 0 l 799 0 q 697 8 717 0 q 631 89 676 17 q 540 222 586 161 l 361 465 l 307 411 l 307 113 q 311 48 307 65 q 334 24 315 31 q 400 17 353 17 q 403 8 403 17 q 400 0 403 0 q 331 1 354 0 l 226 3 l 131 1 q 60 0 104 0 q 57 8 57 0 q 60 17 57 17 q 122 24 103 17 q 149 51 142 31 q 156 113 156 71 l 156 756 q 149 817 156 797 q 122 844 142 836 q 64 851 103 851 q 60 860 60 851 q 64 868 60 868 l 131 867 q 229 864 192 864 q 331 867 267 864 l 401 868 q 404 860 404 868 q 401 851 404 851 q 340 843 360 851 q 315 815 321 835 q 307 753 308 796 l 307 454 l 574 728 q 610 797 610 764 q 590 837 610 822 q 538 851 571 851 q 532 860 532 851 q 536 868 532 868 l 613 867 q 735 864 690 864 q 832 867 782 864 l 885 868 q 889 860 889 868 q 885 851 889 851 q 750 816 824 851 q 614 719 676 781 l 458 564 l 653 300 q 802 106 758 160 q 874 35 846 53 q 940 17 903 17 z "},"Ḱ":{"ha":938,"x_min":57,"x_max":944,"o":"m 940 17 q 945 8 944 17 q 940 0 946 0 l 799 0 q 697 8 717 0 q 631 89 676 17 q 540 222 586 161 l 361 465 l 307 411 l 307 113 q 311 48 307 65 q 334 24 315 31 q 400 17 353 17 q 403 8 403 17 q 400 0 403 0 q 331 1 354 0 l 226 3 l 131 1 q 60 0 104 0 q 57 8 57 0 q 60 17 57 17 q 122 24 103 17 q 149 51 142 31 q 156 113 156 71 l 156 756 q 149 817 156 797 q 122 844 142 836 q 64 851 103 851 q 60 860 60 851 q 64 868 60 868 l 131 867 q 229 864 192 864 q 331 867 267 864 l 401 868 q 404 860 404 868 q 401 851 404 851 q 340 843 360 851 q 315 815 321 835 q 307 753 308 796 l 307 454 l 574 728 q 610 797 610 764 q 590 837 610 822 q 538 851 571 851 q 532 860 532 851 q 536 868 532 868 l 613 867 q 735 864 690 864 q 832 867 782 864 l 885 868 q 889 860 889 868 q 885 851 889 851 q 750 816 824 851 q 614 719 676 781 l 458 564 l 653 300 q 802 106 758 160 q 874 35 846 53 q 940 17 903 17 m 392 942 q 383 948 386 942 q 385 957 381 954 q 476 1044 419 985 q 533 1101 533 1101 q 584 1097 540 1108 q 663 1069 628 1085 q 683 1050 699 1053 q 394 943 535 1011 l 392 942 z "},"Ǩ":{"ha":938,"x_min":57,"x_max":944,"o":"m 940 17 q 945 8 944 17 q 940 0 946 0 l 799 0 q 697 8 717 0 q 631 89 676 17 q 540 222 586 161 l 361 465 l 307 411 l 307 113 q 311 48 307 65 q 334 24 315 31 q 400 17 353 17 q 403 8 403 17 q 400 0 403 0 q 331 1 354 0 l 226 3 l 131 1 q 60 0 104 0 q 57 8 57 0 q 60 17 57 17 q 122 24 103 17 q 149 51 142 31 q 156 113 156 71 l 156 756 q 149 817 156 797 q 122 844 142 836 q 64 851 103 851 q 60 860 60 851 q 64 868 60 868 l 131 867 q 229 864 192 864 q 331 867 267 864 l 401 868 q 404 860 404 868 q 401 851 404 851 q 340 843 360 851 q 315 815 321 835 q 307 753 308 796 l 307 454 l 574 728 q 610 797 610 764 q 590 837 610 822 q 538 851 571 851 q 532 860 532 851 q 536 868 532 868 l 613 867 q 735 864 690 864 q 832 867 782 864 l 885 868 q 889 860 889 868 q 885 851 889 851 q 750 816 824 851 q 614 719 676 781 l 458 564 l 653 300 q 802 106 758 160 q 874 35 846 53 q 940 17 903 17 m 318 1099 l 317 1101 q 320 1107 317 1104 q 326 1108 324 1110 l 468 1054 l 611 1108 q 619 1105 614 1110 q 621 1099 624 1100 l 488 938 q 475 932 483 932 q 461 938 467 932 l 318 1099 z "},"Ķ":{"ha":938,"x_min":57,"x_max":944,"o":"m 940 17 q 945 8 944 17 q 940 0 946 0 l 799 0 q 697 8 717 0 q 631 89 676 17 q 540 222 586 161 l 361 465 l 307 411 l 307 113 q 311 48 307 65 q 334 24 315 31 q 400 17 353 17 q 403 8 403 17 q 400 0 403 0 q 331 1 354 0 l 226 3 l 131 1 q 60 0 104 0 q 57 8 57 0 q 60 17 57 17 q 122 24 103 17 q 149 51 142 31 q 156 113 156 71 l 156 756 q 149 817 156 797 q 122 844 142 836 q 64 851 103 851 q 60 860 60 851 q 64 868 60 868 l 131 867 q 229 864 192 864 q 331 867 267 864 l 401 868 q 404 860 404 868 q 401 851 404 851 q 340 843 360 851 q 315 815 321 835 q 307 753 308 796 l 307 454 l 574 728 q 610 797 610 764 q 590 837 610 822 q 538 851 571 851 q 532 860 532 851 q 536 868 532 868 l 613 867 q 735 864 690 864 q 832 867 782 864 l 885 868 q 889 860 889 868 q 885 851 889 851 q 750 816 824 851 q 614 719 676 781 l 458 564 l 653 300 q 802 106 758 160 q 874 35 846 53 q 940 17 903 17 m 507 -96 q 579 -126 554 -96 q 604 -208 604 -157 q 576 -304 604 -262 q 499 -382 549 -346 l 496 -383 q 488 -377 490 -383 q 489 -368 485 -371 q 538 -323 519 -346 q 556 -275 556 -300 q 542 -229 556 -243 q 486 -256 528 -256 q 436 -233 456 -256 q 417 -176 417 -211 q 443 -117 417 -139 q 507 -96 469 -96 z "},"L":{"ha":756,"x_min":58,"x_max":749,"o":"m 61 0 q 58 8 58 0 q 61 17 58 17 q 124 24 104 17 q 149 50 143 31 q 156 113 156 69 l 156 756 q 149 817 156 797 q 122 844 142 836 q 64 851 103 851 q 60 860 60 851 q 64 868 60 868 l 131 867 q 229 864 192 864 q 331 867 267 864 l 401 868 q 404 860 404 868 q 401 851 404 851 q 340 844 358 851 q 315 817 321 836 q 307 754 308 797 l 307 118 q 322 47 307 64 q 381 29 338 29 l 419 29 q 608 80 532 29 q 729 238 683 131 q 736 240 732 240 q 744 238 740 240 q 749 233 749 236 q 738 21 738 119 q 717 0 738 0 l 61 0 z "},"Ĺ":{"ha":756,"x_min":58,"x_max":749,"o":"m 61 0 q 58 8 58 0 q 61 17 58 17 q 124 24 104 17 q 149 50 143 31 q 156 113 156 69 l 156 756 q 149 817 156 797 q 122 844 142 836 q 64 851 103 851 q 60 860 60 851 q 64 868 60 868 l 131 867 q 229 864 192 864 q 331 867 267 864 l 401 868 q 404 860 404 868 q 401 851 404 851 q 340 844 358 851 q 315 817 321 836 q 307 754 308 797 l 307 118 q 322 47 307 64 q 381 29 338 29 l 419 29 q 608 80 532 29 q 729 238 683 131 q 736 240 732 240 q 744 238 740 240 q 749 233 749 236 q 738 21 738 119 q 717 0 738 0 l 61 0 m 143 942 q 135 948 138 942 q 136 957 132 954 q 228 1044 171 985 q 285 1101 285 1101 q 335 1097 292 1108 q 415 1069 379 1085 q 435 1050 450 1053 q 146 943 286 1011 l 143 942 z "},"Ľ":{"ha":756,"x_min":58,"x_max":749,"o":"m 61 0 q 58 8 58 0 q 61 17 58 17 q 124 24 104 17 q 149 50 143 31 q 156 113 156 69 l 156 756 q 149 817 156 797 q 122 844 142 836 q 64 851 103 851 q 60 860 60 851 q 64 868 60 868 l 131 867 q 229 864 192 864 q 331 867 267 864 l 401 868 q 404 860 404 868 q 401 851 404 851 q 340 844 358 851 q 315 817 321 836 q 307 754 308 797 l 307 118 q 322 47 307 64 q 381 29 338 29 l 419 29 q 608 80 532 29 q 729 238 683 131 q 736 240 732 240 q 744 238 740 240 q 749 233 749 236 q 738 21 738 119 q 717 0 738 0 l 61 0 m 550 868 q 578 865 551 875 q 630 837 606 854 q 651 807 654 819 l 575 490 q 567 488 574 488 q 560 490 561 488 l 550 868 z "},"Ļ":{"ha":756,"x_min":58,"x_max":749,"o":"m 61 0 q 58 8 58 0 q 61 17 58 17 q 124 24 104 17 q 149 50 143 31 q 156 113 156 69 l 156 756 q 149 817 156 797 q 122 844 142 836 q 64 851 103 851 q 60 860 60 851 q 64 868 60 868 l 131 867 q 229 864 192 864 q 331 867 267 864 l 401 868 q 404 860 404 868 q 401 851 404 851 q 340 844 358 851 q 315 817 321 836 q 307 754 308 797 l 307 118 q 322 47 307 64 q 381 29 338 29 l 419 29 q 608 80 532 29 q 729 238 683 131 q 736 240 732 240 q 744 238 740 240 q 749 233 749 236 q 738 21 738 119 q 717 0 738 0 l 61 0 m 440 -96 q 513 -126 488 -96 q 538 -208 538 -157 q 510 -304 538 -262 q 432 -382 482 -346 l 429 -383 q 421 -377 424 -383 q 422 -368 418 -371 q 471 -323 453 -346 q 489 -275 489 -300 q 475 -229 489 -243 q 419 -256 461 -256 q 369 -233 389 -256 q 350 -176 350 -211 q 376 -117 350 -139 q 440 -96 403 -96 z "},"Ŀ":{"ha":756,"x_min":58,"x_max":749,"o":"m 61 0 q 58 8 58 0 q 61 17 58 17 q 124 24 104 17 q 149 50 143 31 q 156 113 156 69 l 156 756 q 149 817 156 797 q 122 844 142 836 q 64 851 103 851 q 60 860 60 851 q 64 868 60 868 l 131 867 q 229 864 192 864 q 331 867 267 864 l 401 868 q 404 860 404 868 q 401 851 404 851 q 340 844 358 851 q 315 817 321 836 q 307 754 308 797 l 307 118 q 322 47 307 64 q 381 29 338 29 l 419 29 q 608 80 532 29 q 729 238 683 131 q 736 240 732 240 q 744 238 740 240 q 749 233 749 236 q 738 21 738 119 q 717 0 738 0 l 61 0 m 617 342 q 555 365 578 342 q 532 426 532 388 q 555 485 532 463 q 617 507 578 507 q 677 485 656 507 q 699 426 699 464 q 677 364 699 386 q 617 342 656 342 z "},"Ḷ":{"ha":756,"x_min":58,"x_max":749,"o":"m 61 0 q 58 8 58 0 q 61 17 58 17 q 124 24 104 17 q 149 50 143 31 q 156 113 156 69 l 156 756 q 149 817 156 797 q 122 844 142 836 q 64 851 103 851 q 60 860 60 851 q 64 868 60 868 l 131 867 q 229 864 192 864 q 331 867 267 864 l 401 868 q 404 860 404 868 q 401 851 404 851 q 340 844 358 851 q 315 817 321 836 q 307 754 308 797 l 307 118 q 322 47 307 64 q 381 29 338 29 l 419 29 q 608 80 532 29 q 729 238 683 131 q 736 240 732 240 q 744 238 740 240 q 749 233 749 236 q 738 21 738 119 q 717 0 738 0 l 61 0 m 443 -287 q 381 -265 403 -287 q 358 -203 358 -243 q 381 -145 358 -167 q 443 -124 404 -124 q 502 -145 481 -124 q 524 -203 524 -167 q 503 -265 524 -243 q 443 -287 482 -287 z "},"Ḹ":{"ha":756,"x_min":56,"x_max":749,"o":"m 61 0 q 58 8 58 0 q 61 17 58 17 q 124 24 104 17 q 149 50 143 31 q 156 113 156 69 l 156 756 q 149 817 156 797 q 122 844 142 836 q 64 851 103 851 q 60 860 60 851 q 64 868 60 868 l 131 867 q 229 864 192 864 q 331 867 267 864 l 401 868 q 404 860 404 868 q 401 851 404 851 q 340 844 358 851 q 315 817 321 836 q 307 754 308 797 l 307 118 q 322 47 307 64 q 381 29 338 29 l 419 29 q 608 80 532 29 q 729 238 683 131 q 736 240 732 240 q 744 238 740 240 q 749 233 749 236 q 738 21 738 119 q 717 0 738 0 l 61 0 m 443 -287 q 381 -265 403 -287 q 358 -203 358 -243 q 381 -145 358 -167 q 443 -124 404 -124 q 502 -145 481 -124 q 524 -203 524 -167 q 503 -265 524 -243 q 443 -287 482 -287 m 69 989 q 59 997 63 989 q 56 1017 56 1006 q 59 1036 56 1028 q 69 1044 63 1044 l 386 1044 q 397 1036 393 1044 q 400 1017 400 1028 q 397 997 400 1006 q 386 989 393 989 l 69 989 z "},"Ḻ":{"ha":756,"x_min":58,"x_max":749,"o":"m 61 0 q 58 8 58 0 q 61 17 58 17 q 124 24 104 17 q 149 50 143 31 q 156 113 156 69 l 156 756 q 149 817 156 797 q 122 844 142 836 q 64 851 103 851 q 60 860 60 851 q 64 868 60 868 l 131 867 q 229 864 192 864 q 331 867 267 864 l 401 868 q 404 860 404 868 q 401 851 404 851 q 340 844 358 851 q 315 817 321 836 q 307 754 308 797 l 307 118 q 322 47 307 64 q 381 29 338 29 l 419 29 q 608 80 532 29 q 729 238 683 131 q 736 240 732 240 q 744 238 740 240 q 749 233 749 236 q 738 21 738 119 q 717 0 738 0 l 61 0 m 283 -171 q 273 -162 276 -171 q 269 -143 269 -154 q 273 -124 269 -132 q 283 -115 276 -115 l 600 -115 q 610 -124 607 -115 q 614 -143 614 -132 q 610 -162 614 -154 q 600 -171 607 -171 l 283 -171 z "},"Ł":{"ha":756,"x_min":58,"x_max":749,"o":"m 729 238 q 736 240 732 240 q 744 238 740 240 q 749 233 749 236 q 738 21 738 119 q 717 0 738 0 l 61 0 q 58 8 58 0 q 61 17 58 17 q 124 24 104 17 q 149 50 143 31 q 156 113 156 69 l 156 353 l 81 300 l 79 300 q 67 310 74 300 q 64 324 60 321 l 156 388 l 156 756 q 149 817 156 797 q 122 844 142 836 q 64 851 103 851 q 60 860 60 851 q 64 868 60 868 l 131 867 q 229 864 192 864 q 331 867 267 864 l 401 868 q 404 860 404 868 q 401 851 404 851 q 340 844 358 851 q 315 817 321 836 q 307 754 308 797 l 307 493 l 385 547 l 388 549 q 400 538 393 549 q 403 525 407 528 l 307 458 l 307 118 q 322 47 307 64 q 381 29 338 29 l 419 29 q 608 80 532 29 q 729 238 683 131 z "},"M":{"ha":1117,"x_min":57,"x_max":1089,"o":"m 1083 17 q 1088 8 1088 17 q 1083 0 1089 0 q 1017 1 1042 0 l 914 3 l 815 1 q 744 0 790 0 q 740 8 740 0 q 744 17 740 17 q 808 24 788 17 q 835 51 828 31 q 839 113 842 71 l 819 775 l 553 10 q 543 4 550 4 q 531 11 535 4 l 222 740 l 219 181 q 247 60 217 104 q 329 17 276 17 q 333 8 333 17 q 329 0 333 0 q 274 1 294 0 l 192 3 l 119 1 q 60 0 99 0 q 57 8 57 0 q 60 17 57 17 q 144 60 113 17 q 175 176 175 103 l 182 806 q 65 851 139 851 q 61 860 61 851 q 65 868 61 868 q 100 867 86 868 l 160 865 l 251 867 q 289 868 267 868 q 319 854 307 868 q 349 796 331 840 l 593 225 l 803 833 q 820 858 807 849 q 851 868 833 868 q 889 867 874 868 l 951 865 l 1014 867 q 1054 868 1028 868 q 1058 860 1058 868 q 1056 851 1058 851 q 990 837 1011 851 q 968 782 968 822 q 969 758 968 767 l 989 113 q 999 51 992 71 q 1025 24 1007 31 q 1083 17 1043 17 z "},"Ṁ":{"ha":1117,"x_min":57,"x_max":1088,"o":"m 1083 17 q 1088 8 1088 17 q 1083 0 1089 0 q 1017 1 1042 0 l 914 3 l 815 1 q 744 0 790 0 q 740 8 740 0 q 744 17 740 17 q 808 24 788 17 q 835 51 828 31 q 839 113 842 71 l 819 775 l 553 10 q 543 4 550 4 q 531 11 535 4 l 222 740 l 219 181 q 247 60 217 104 q 329 17 276 17 q 333 8 333 17 q 329 0 333 0 q 274 1 294 0 l 192 3 l 119 1 q 60 0 99 0 q 57 8 57 0 q 60 17 57 17 q 144 60 113 17 q 175 176 175 103 l 182 806 q 65 851 139 851 q 61 860 61 851 q 65 868 61 868 q 100 867 86 868 l 160 865 l 251 867 q 289 868 267 868 q 319 854 307 868 q 349 796 331 840 l 593 225 l 803 833 q 820 858 807 849 q 851 868 833 868 q 889 867 874 868 l 951 865 l 1014 867 q 1054 868 1028 868 q 1058 860 1058 868 q 1056 851 1058 851 q 990 837 1011 851 q 968 782 968 822 q 969 758 968 767 l 989 113 q 999 51 992 71 q 1025 24 1007 31 q 1083 17 1043 17 m 576 990 q 514 1013 536 990 q 492 1075 492 1036 q 515 1133 492 1111 q 576 1156 538 1156 q 635 1134 614 1156 q 657 1075 657 1113 q 636 1013 657 1035 q 576 990 615 990 z "},"Ṃ":{"ha":1117,"x_min":57,"x_max":1088,"o":"m 1083 17 q 1088 8 1088 17 q 1083 0 1089 0 q 1017 1 1042 0 l 914 3 l 815 1 q 744 0 790 0 q 740 8 740 0 q 744 17 740 17 q 808 24 788 17 q 835 51 828 31 q 839 113 842 71 l 819 775 l 553 10 q 543 4 550 4 q 531 11 535 4 l 222 740 l 219 181 q 247 60 217 104 q 329 17 276 17 q 333 8 333 17 q 329 0 333 0 q 274 1 294 0 l 192 3 l 119 1 q 60 0 99 0 q 57 8 57 0 q 60 17 57 17 q 144 60 113 17 q 175 176 175 103 l 182 806 q 65 851 139 851 q 61 860 61 851 q 65 868 61 868 q 100 867 86 868 l 160 865 l 251 867 q 289 868 267 868 q 319 854 307 868 q 349 796 331 840 l 593 225 l 803 833 q 820 858 807 849 q 851 868 833 868 q 889 867 874 868 l 951 865 l 1014 867 q 1054 868 1028 868 q 1058 860 1058 868 q 1056 851 1058 851 q 990 837 1011 851 q 968 782 968 822 q 969 758 968 767 l 989 113 q 999 51 992 71 q 1025 24 1007 31 q 1083 17 1043 17 m 560 -287 q 497 -265 519 -287 q 475 -203 475 -243 q 498 -145 475 -167 q 560 -124 521 -124 q 619 -145 597 -124 q 640 -203 640 -167 q 619 -265 640 -243 q 560 -287 599 -287 z "},"N":{"ha":985,"x_min":28,"x_max":968,"o":"m 964 868 q 968 860 968 868 q 964 851 968 851 q 872 813 907 851 q 835 707 836 774 l 833 -10 q 827 -17 835 -14 q 810 -21 819 -21 q 792 -12 796 -21 l 210 718 l 208 161 q 242 56 207 94 q 335 17 276 17 q 340 8 340 17 q 335 0 340 0 q 275 1 296 0 l 188 3 l 104 1 q 38 0 81 0 q 32 8 32 0 q 38 17 32 17 q 130 56 96 17 q 165 161 164 94 l 167 771 q 95 833 126 815 q 31 851 64 851 q 28 860 28 851 q 31 868 28 868 l 106 867 q 165 865 128 865 q 228 867 203 865 q 263 868 254 868 q 280 863 274 868 q 294 842 286 857 q 328 796 311 817 l 790 218 l 793 707 q 760 813 794 774 q 667 851 726 851 q 661 860 661 851 q 667 868 661 868 l 721 867 q 814 864 776 864 q 896 867 843 864 l 964 868 z "},"Ń":{"ha":985,"x_min":28,"x_max":968,"o":"m 964 868 q 968 860 968 868 q 964 851 968 851 q 872 813 907 851 q 835 707 836 774 l 833 -10 q 827 -17 835 -14 q 810 -21 819 -21 q 792 -12 796 -21 l 210 718 l 208 161 q 242 56 207 94 q 335 17 276 17 q 340 8 340 17 q 335 0 340 0 q 275 1 296 0 l 188 3 l 104 1 q 38 0 81 0 q 32 8 32 0 q 38 17 32 17 q 130 56 96 17 q 165 161 164 94 l 167 771 q 95 833 126 815 q 31 851 64 851 q 28 860 28 851 q 31 868 28 868 l 106 867 q 165 865 128 865 q 228 867 203 865 q 263 868 254 868 q 280 863 274 868 q 294 842 286 857 q 328 796 311 817 l 790 218 l 793 707 q 760 813 794 774 q 667 851 726 851 q 661 860 661 851 q 667 868 661 868 l 721 867 q 814 864 776 864 q 896 867 843 864 l 964 868 m 404 942 q 396 948 399 942 q 397 957 393 954 q 489 1044 432 985 q 546 1101 546 1101 q 597 1097 553 1108 q 676 1069 640 1085 q 696 1050 711 1053 q 407 943 547 1011 l 404 942 z "},"Ň":{"ha":985,"x_min":28,"x_max":968,"o":"m 964 868 q 968 860 968 868 q 964 851 968 851 q 872 813 907 851 q 835 707 836 774 l 833 -10 q 827 -17 835 -14 q 810 -21 819 -21 q 792 -12 796 -21 l 210 718 l 208 161 q 242 56 207 94 q 335 17 276 17 q 340 8 340 17 q 335 0 340 0 q 275 1 296 0 l 188 3 l 104 1 q 38 0 81 0 q 32 8 32 0 q 38 17 32 17 q 130 56 96 17 q 165 161 164 94 l 167 771 q 95 833 126 815 q 31 851 64 851 q 28 860 28 851 q 31 868 28 868 l 106 867 q 165 865 128 865 q 228 867 203 865 q 263 868 254 868 q 280 863 274 868 q 294 842 286 857 q 328 796 311 817 l 790 218 l 793 707 q 760 813 794 774 q 667 851 726 851 q 661 860 661 851 q 667 868 661 868 l 721 867 q 814 864 776 864 q 896 867 843 864 l 964 868 m 331 1099 l 329 1101 q 333 1107 329 1104 q 339 1108 336 1110 l 481 1054 l 624 1108 q 631 1105 626 1110 q 633 1099 636 1100 l 500 938 q 488 932 496 932 q 474 938 479 932 l 331 1099 z "},"Ņ":{"ha":985,"x_min":28,"x_max":968,"o":"m 964 868 q 968 860 968 868 q 964 851 968 851 q 872 813 907 851 q 835 707 836 774 l 833 -10 q 827 -17 835 -14 q 810 -21 819 -21 q 792 -12 796 -21 l 210 718 l 208 161 q 242 56 207 94 q 335 17 276 17 q 340 8 340 17 q 335 0 340 0 q 275 1 296 0 l 188 3 l 104 1 q 38 0 81 0 q 32 8 32 0 q 38 17 32 17 q 130 56 96 17 q 165 161 164 94 l 167 771 q 95 833 126 815 q 31 851 64 851 q 28 860 28 851 q 31 868 28 868 l 106 867 q 165 865 128 865 q 228 867 203 865 q 263 868 254 868 q 280 863 274 868 q 294 842 286 857 q 328 796 311 817 l 790 218 l 793 707 q 760 813 794 774 q 667 851 726 851 q 661 860 661 851 q 667 868 661 868 l 721 867 q 814 864 776 864 q 896 867 843 864 l 964 868 m 524 -96 q 596 -126 571 -96 q 621 -208 621 -157 q 593 -304 621 -262 q 515 -382 565 -346 l 513 -383 q 504 -377 507 -383 q 506 -368 501 -371 q 554 -323 536 -346 q 572 -275 572 -300 q 558 -229 572 -243 q 503 -256 544 -256 q 453 -233 472 -256 q 433 -176 433 -211 q 460 -117 433 -139 q 524 -96 486 -96 z "},"Ṅ":{"ha":985,"x_min":28,"x_max":968,"o":"m 964 868 q 968 860 968 868 q 964 851 968 851 q 872 813 907 851 q 835 707 836 774 l 833 -10 q 827 -17 835 -14 q 810 -21 819 -21 q 792 -12 796 -21 l 210 718 l 208 161 q 242 56 207 94 q 335 17 276 17 q 340 8 340 17 q 335 0 340 0 q 275 1 296 0 l 188 3 l 104 1 q 38 0 81 0 q 32 8 32 0 q 38 17 32 17 q 130 56 96 17 q 165 161 164 94 l 167 771 q 95 833 126 815 q 31 851 64 851 q 28 860 28 851 q 31 868 28 868 l 106 867 q 165 865 128 865 q 228 867 203 865 q 263 868 254 868 q 280 863 274 868 q 294 842 286 857 q 328 796 311 817 l 790 218 l 793 707 q 760 813 794 774 q 667 851 726 851 q 661 860 661 851 q 667 868 661 868 l 721 867 q 814 864 776 864 q 896 867 843 864 l 964 868 m 490 990 q 428 1013 450 990 q 406 1075 406 1036 q 428 1133 406 1111 q 490 1156 451 1156 q 549 1134 528 1156 q 571 1075 571 1113 q 550 1013 571 1035 q 490 990 529 990 z "},"Ṇ":{"ha":985,"x_min":28,"x_max":968,"o":"m 964 868 q 968 860 968 868 q 964 851 968 851 q 872 813 907 851 q 835 707 836 774 l 833 -10 q 827 -17 835 -14 q 810 -21 819 -21 q 792 -12 796 -21 l 210 718 l 208 161 q 242 56 207 94 q 335 17 276 17 q 340 8 340 17 q 335 0 340 0 q 275 1 296 0 l 188 3 l 104 1 q 38 0 81 0 q 32 8 32 0 q 38 17 32 17 q 130 56 96 17 q 165 161 164 94 l 167 771 q 95 833 126 815 q 31 851 64 851 q 28 860 28 851 q 31 868 28 868 l 106 867 q 165 865 128 865 q 228 867 203 865 q 263 868 254 868 q 280 863 274 868 q 294 842 286 857 q 328 796 311 817 l 790 218 l 793 707 q 760 813 794 774 q 667 851 726 851 q 661 860 661 851 q 667 868 661 868 l 721 867 q 814 864 776 864 q 896 867 843 864 l 964 868 m 526 -287 q 464 -265 486 -287 q 442 -203 442 -243 q 465 -145 442 -167 q 526 -124 488 -124 q 585 -145 564 -124 q 607 -203 607 -167 q 586 -265 607 -243 q 526 -287 565 -287 z "},"Ŋ":{"ha":985,"x_min":28,"x_max":968,"o":"m 964 868 q 968 860 968 868 q 964 851 968 851 q 872 813 907 851 q 835 707 836 774 l 833 -10 l 833 -11 q 657 -265 832 -265 q 551 -235 593 -265 q 508 -157 508 -206 q 575 -96 508 -96 q 625 -112 610 -96 q 654 -158 640 -128 q 678 -195 667 -183 q 710 -207 689 -207 q 794 -17 793 -207 q 792 -12 792 -14 l 210 718 l 208 161 q 242 56 207 94 q 335 17 276 17 q 340 8 340 17 q 335 0 340 0 q 275 1 296 0 l 188 3 l 104 1 q 38 0 81 0 q 32 8 32 0 q 38 17 32 17 q 130 56 96 17 q 165 161 164 94 l 167 771 q 95 833 126 815 q 31 851 64 851 q 28 860 28 851 q 31 868 28 868 l 106 867 q 165 865 128 865 q 228 867 203 865 q 263 868 254 868 q 280 863 274 868 q 294 842 286 857 q 328 796 311 817 l 790 218 l 793 707 q 760 813 794 774 q 667 851 726 851 q 661 860 661 851 q 667 868 661 868 l 721 867 q 814 864 776 864 q 896 867 843 864 l 964 868 z "},"Ṉ":{"ha":985,"x_min":28,"x_max":968,"o":"m 964 868 q 968 860 968 868 q 964 851 968 851 q 872 813 907 851 q 835 707 836 774 l 833 -10 q 827 -17 835 -14 q 810 -21 819 -21 q 792 -12 796 -21 l 210 718 l 208 161 q 242 56 207 94 q 335 17 276 17 q 340 8 340 17 q 335 0 340 0 q 275 1 296 0 l 188 3 l 104 1 q 38 0 81 0 q 32 8 32 0 q 38 17 32 17 q 130 56 96 17 q 165 161 164 94 l 167 771 q 95 833 126 815 q 31 851 64 851 q 28 860 28 851 q 31 868 28 868 l 106 867 q 165 865 128 865 q 228 867 203 865 q 263 868 254 868 q 280 863 274 868 q 294 842 286 857 q 328 796 311 817 l 790 218 l 793 707 q 760 813 794 774 q 667 851 726 851 q 661 860 661 851 q 667 868 661 868 l 721 867 q 814 864 776 864 q 896 867 843 864 l 964 868 m 367 -171 q 356 -162 360 -171 q 353 -143 353 -154 q 356 -124 353 -132 q 367 -115 360 -115 l 683 -115 q 694 -124 690 -115 q 697 -143 697 -132 q 694 -162 697 -154 q 683 -171 690 -171 l 367 -171 z "},"Ñ":{"ha":985,"x_min":28,"x_max":968,"o":"m 964 868 q 968 860 968 868 q 964 851 968 851 q 872 813 907 851 q 835 707 836 774 l 833 -10 q 827 -17 835 -14 q 810 -21 819 -21 q 792 -12 796 -21 l 210 718 l 208 161 q 242 56 207 94 q 335 17 276 17 q 340 8 340 17 q 335 0 340 0 q 275 1 296 0 l 188 3 l 104 1 q 38 0 81 0 q 32 8 32 0 q 38 17 32 17 q 130 56 96 17 q 165 161 164 94 l 167 771 q 95 833 126 815 q 31 851 64 851 q 28 860 28 851 q 31 868 28 868 l 106 867 q 165 865 128 865 q 228 867 203 865 q 263 868 254 868 q 280 863 274 868 q 294 842 286 857 q 328 796 311 817 l 790 218 l 793 707 q 760 813 794 774 q 667 851 726 851 q 661 860 661 851 q 667 868 661 868 l 721 867 q 814 864 776 864 q 896 867 843 864 l 964 868 m 319 953 q 317 951 319 951 q 310 956 314 951 q 308 963 307 960 q 426 1075 358 1075 q 493 1061 440 1075 q 548 1047 519 1053 q 599 1040 576 1040 q 645 1049 628 1040 q 681 1078 663 1057 l 682 1078 q 690 1074 686 1078 q 692 1068 693 1071 q 639 978 663 1001 q 579 956 615 956 q 499 972 557 956 q 449 985 475 979 q 401 990 422 990 q 353 983 367 990 q 319 953 340 975 z "},"O":{"ha":1021,"x_min":50,"x_max":969,"o":"m 494 -17 q 261 43 363 -17 q 105 205 160 103 q 50 432 50 307 q 110 663 50 560 q 277 824 171 765 q 517 883 383 883 q 754 826 651 883 q 913 667 857 768 q 969 443 969 567 q 905 201 969 306 q 731 40 840 96 q 494 -17 622 -17 m 553 19 q 687 61 629 19 q 776 180 744 103 q 808 361 808 257 q 765 601 808 489 q 644 782 722 714 q 467 850 567 850 q 332 808 390 850 q 242 690 274 767 q 210 508 210 613 q 253 270 210 383 q 374 88 296 157 q 553 19 453 19 z "},"Ó":{"ha":1021,"x_min":50,"x_max":969,"o":"m 494 -17 q 261 43 363 -17 q 105 205 160 103 q 50 432 50 307 q 110 663 50 560 q 277 824 171 765 q 517 883 383 883 q 754 826 651 883 q 913 667 857 768 q 969 443 969 567 q 905 201 969 306 q 731 40 840 96 q 494 -17 622 -17 m 553 19 q 687 61 629 19 q 776 180 744 103 q 808 361 808 257 q 765 601 808 489 q 644 782 722 714 q 467 850 567 850 q 332 808 390 850 q 242 690 274 767 q 210 508 210 613 q 253 270 210 383 q 374 88 296 157 q 553 19 453 19 m 429 942 q 421 948 424 942 q 422 957 418 954 q 514 1044 457 985 q 571 1101 571 1101 q 622 1097 578 1108 q 701 1069 665 1085 q 721 1050 736 1053 q 432 943 572 1011 l 429 942 z "},"Ŏ":{"ha":1021,"x_min":50,"x_max":969,"o":"m 494 -17 q 261 43 363 -17 q 105 205 160 103 q 50 432 50 307 q 110 663 50 560 q 277 824 171 765 q 517 883 383 883 q 754 826 651 883 q 913 667 857 768 q 969 443 969 567 q 905 201 969 306 q 731 40 840 96 q 494 -17 622 -17 m 553 19 q 687 61 629 19 q 776 180 744 103 q 808 361 808 257 q 765 601 808 489 q 644 782 722 714 q 467 850 567 850 q 332 808 390 850 q 242 690 274 767 q 210 508 210 613 q 253 270 210 383 q 374 88 296 157 q 553 19 453 19 m 515 924 q 431 958 469 924 q 379 1058 393 993 q 409 1074 378 1067 q 468 1082 440 1082 q 492 1076 490 1082 q 520 1023 501 1042 q 561 1004 539 1004 q 599 1021 582 1004 q 626 1071 617 1038 q 633 1075 626 1075 q 644 1072 639 1075 q 649 1067 650 1069 q 599 960 636 997 q 515 924 561 924 z "},"Ǒ":{"ha":1021,"x_min":50,"x_max":969,"o":"m 494 -17 q 261 43 363 -17 q 105 205 160 103 q 50 432 50 307 q 110 663 50 560 q 277 824 171 765 q 517 883 383 883 q 754 826 651 883 q 913 667 857 768 q 969 443 969 567 q 905 201 969 306 q 731 40 840 96 q 494 -17 622 -17 m 553 19 q 687 61 629 19 q 776 180 744 103 q 808 361 808 257 q 765 601 808 489 q 644 782 722 714 q 467 850 567 850 q 332 808 390 850 q 242 690 274 767 q 210 508 210 613 q 253 270 210 383 q 374 88 296 157 q 553 19 453 19 m 356 1099 l 354 1101 q 358 1107 354 1104 q 364 1108 361 1110 l 506 1054 l 649 1108 q 656 1105 651 1110 q 658 1099 661 1100 l 525 938 q 513 932 521 932 q 499 938 504 932 l 356 1099 z "},"Ô":{"ha":1021,"x_min":50,"x_max":969,"o":"m 494 -17 q 261 43 363 -17 q 105 205 160 103 q 50 432 50 307 q 110 663 50 560 q 277 824 171 765 q 517 883 383 883 q 754 826 651 883 q 913 667 857 768 q 969 443 969 567 q 905 201 969 306 q 731 40 840 96 q 494 -17 622 -17 m 553 19 q 687 61 629 19 q 776 180 744 103 q 808 361 808 257 q 765 601 808 489 q 644 782 722 714 q 467 850 567 850 q 332 808 390 850 q 242 690 274 767 q 210 508 210 613 q 253 270 210 383 q 374 88 296 157 q 553 19 453 19 m 374 917 q 366 920 369 917 q 365 926 363 924 l 497 1086 q 508 1093 501 1093 q 522 1086 515 1093 l 667 926 q 666 919 669 924 q 660 917 663 914 l 518 969 l 375 917 l 374 917 z "},"Ố":{"ha":1021,"x_min":50,"x_max":969,"o":"m 494 -17 q 261 43 363 -17 q 105 205 160 103 q 50 432 50 307 q 110 663 50 560 q 277 824 171 765 q 517 883 383 883 q 754 826 651 883 q 913 667 857 768 q 969 443 969 567 q 905 201 969 306 q 731 40 840 96 q 494 -17 622 -17 m 553 19 q 687 61 629 19 q 776 180 744 103 q 808 361 808 257 q 765 601 808 489 q 644 782 722 714 q 467 850 567 850 q 332 808 390 850 q 242 690 274 767 q 210 508 210 613 q 253 270 210 383 q 374 88 296 157 q 553 19 453 19 m 369 917 q 362 920 365 917 q 361 926 358 924 l 493 1086 q 504 1093 497 1093 q 518 1086 511 1093 l 663 926 q 662 919 665 924 q 656 917 658 914 l 514 969 l 371 917 l 369 917 m 610 1004 q 603 1010 606 1004 q 603 1021 600 1017 q 682 1165 654 1104 q 693 1169 685 1169 q 751 1158 713 1169 q 813 1133 789 1146 q 825 1114 838 1119 q 715 1066 764 1092 q 613 1006 667 1040 l 610 1004 z "},"Ộ":{"ha":1021,"x_min":50,"x_max":969,"o":"m 494 -17 q 261 43 363 -17 q 105 205 160 103 q 50 432 50 307 q 110 663 50 560 q 277 824 171 765 q 517 883 383 883 q 754 826 651 883 q 913 667 857 768 q 969 443 969 567 q 905 201 969 306 q 731 40 840 96 q 494 -17 622 -17 m 553 19 q 687 61 629 19 q 776 180 744 103 q 808 361 808 257 q 765 601 808 489 q 644 782 722 714 q 467 850 567 850 q 332 808 390 850 q 242 690 274 767 q 210 508 210 613 q 253 270 210 383 q 374 88 296 157 q 553 19 453 19 m 532 -287 q 469 -265 492 -287 q 447 -203 447 -243 q 470 -145 447 -167 q 532 -124 493 -124 q 591 -145 569 -124 q 613 -203 613 -167 q 592 -265 613 -243 q 532 -287 571 -287 m 374 917 q 366 920 369 917 q 365 926 363 924 l 497 1086 q 508 1093 501 1093 q 522 1086 515 1093 l 667 926 q 666 919 669 924 q 660 917 663 914 l 518 969 l 375 917 l 374 917 z "},"Ồ":{"ha":1021,"x_min":50,"x_max":969,"o":"m 494 -17 q 261 43 363 -17 q 105 205 160 103 q 50 432 50 307 q 110 663 50 560 q 277 824 171 765 q 517 883 383 883 q 754 826 651 883 q 913 667 857 768 q 969 443 969 567 q 905 201 969 306 q 731 40 840 96 q 494 -17 622 -17 m 553 19 q 687 61 629 19 q 776 180 744 103 q 808 361 808 257 q 765 601 808 489 q 644 782 722 714 q 467 850 567 850 q 332 808 390 850 q 242 690 274 767 q 210 508 210 613 q 253 270 210 383 q 374 88 296 157 q 553 19 453 19 m 372 917 q 365 920 368 917 q 364 926 361 924 l 496 1086 q 507 1093 500 1093 q 521 1086 514 1093 l 665 926 q 665 919 668 924 q 658 917 661 914 l 517 969 l 374 917 l 372 917 m 742 993 q 536 1101 646 1057 q 546 1120 522 1107 q 608 1145 569 1133 q 665 1157 646 1157 q 676 1153 675 1157 q 754 1008 708 1083 l 754 1006 q 751 996 754 1000 q 742 993 747 992 z "},"Ổ":{"ha":1021,"x_min":50,"x_max":969,"o":"m 494 -17 q 261 43 363 -17 q 105 205 160 103 q 50 432 50 307 q 110 663 50 560 q 277 824 171 765 q 517 883 383 883 q 754 826 651 883 q 913 667 857 768 q 969 443 969 567 q 905 201 969 306 q 731 40 840 96 q 494 -17 622 -17 m 553 19 q 687 61 629 19 q 776 180 744 103 q 808 361 808 257 q 765 601 808 489 q 644 782 722 714 q 467 850 567 850 q 332 808 390 850 q 242 690 274 767 q 210 508 210 613 q 253 270 210 383 q 374 88 296 157 q 553 19 453 19 m 369 917 q 362 920 365 917 q 361 926 358 924 l 493 1086 q 504 1093 497 1093 q 518 1086 511 1093 l 663 926 q 662 919 665 924 q 656 917 658 914 l 514 969 l 371 917 l 369 917 m 619 996 q 617 1015 617 1010 q 631 1068 617 1035 q 643 1117 643 1103 q 631 1149 643 1139 q 601 1160 618 1160 q 576 1156 586 1160 l 574 1154 q 567 1159 569 1154 q 567 1167 564 1164 q 651 1192 608 1192 q 708 1174 686 1192 q 729 1132 729 1157 q 716 1097 729 1113 q 679 1060 703 1081 q 645 1024 656 1038 q 636 996 635 1011 q 628 992 636 993 q 619 996 621 992 z "},"Ỗ":{"ha":1021,"x_min":50,"x_max":969,"o":"m 494 -17 q 261 43 363 -17 q 105 205 160 103 q 50 432 50 307 q 110 663 50 560 q 277 824 171 765 q 517 883 383 883 q 754 826 651 883 q 913 667 857 768 q 969 443 969 567 q 905 201 969 306 q 731 40 840 96 q 494 -17 622 -17 m 553 19 q 687 61 629 19 q 776 180 744 103 q 808 361 808 257 q 765 601 808 489 q 644 782 722 714 q 467 850 567 850 q 332 808 390 850 q 242 690 274 767 q 210 508 210 613 q 253 270 210 383 q 374 88 296 157 q 553 19 453 19 m 371 917 q 363 920 367 917 q 363 926 360 924 l 494 1086 q 506 1093 499 1093 q 519 1086 513 1093 l 664 926 q 663 919 667 924 q 657 917 660 914 l 515 969 l 372 917 l 371 917 m 336 1104 q 329 1108 333 1104 q 326 1114 325 1111 q 376 1194 350 1163 q 444 1226 403 1226 q 482 1220 458 1226 q 513 1213 506 1214 q 618 1192 583 1192 q 665 1200 647 1192 q 700 1229 682 1208 q 701 1231 700 1231 q 701 1231 701 1231 q 708 1226 704 1231 q 711 1219 713 1222 q 658 1131 682 1153 q 599 1108 635 1108 q 518 1124 572 1108 q 467 1136 493 1131 q 418 1142 440 1142 q 372 1135 385 1142 q 338 1104 360 1128 l 336 1104 z "},"Ö":{"ha":1021,"x_min":50,"x_max":969,"o":"m 494 -17 q 261 43 363 -17 q 105 205 160 103 q 50 432 50 307 q 110 663 50 560 q 277 824 171 765 q 517 883 383 883 q 754 826 651 883 q 913 667 857 768 q 969 443 969 567 q 905 201 969 306 q 731 40 840 96 q 494 -17 622 -17 m 553 19 q 687 61 629 19 q 776 180 744 103 q 808 361 808 257 q 765 601 808 489 q 644 782 722 714 q 467 850 567 850 q 332 808 390 850 q 242 690 274 767 q 210 508 210 613 q 253 270 210 383 q 374 88 296 157 q 553 19 453 19 m 392 976 q 336 997 357 976 q 315 1053 315 1017 q 336 1106 315 1086 q 392 1125 357 1125 q 446 1106 426 1125 q 465 1053 465 1086 q 446 997 465 1017 q 392 976 426 976 m 635 976 q 579 997 599 976 q 560 1053 560 1017 q 580 1105 560 1086 q 635 1124 600 1124 q 687 1105 668 1124 q 706 1053 706 1086 q 687 997 706 1017 q 635 976 668 976 z "},"Ọ":{"ha":1021,"x_min":50,"x_max":969,"o":"m 494 -17 q 261 43 363 -17 q 105 205 160 103 q 50 432 50 307 q 110 663 50 560 q 277 824 171 765 q 517 883 383 883 q 754 826 651 883 q 913 667 857 768 q 969 443 969 567 q 905 201 969 306 q 731 40 840 96 q 494 -17 622 -17 m 553 19 q 687 61 629 19 q 776 180 744 103 q 808 361 808 257 q 765 601 808 489 q 644 782 722 714 q 467 850 567 850 q 332 808 390 850 q 242 690 274 767 q 210 508 210 613 q 253 270 210 383 q 374 88 296 157 q 553 19 453 19 m 532 -287 q 469 -265 492 -287 q 447 -203 447 -243 q 470 -145 447 -167 q 532 -124 493 -124 q 591 -145 569 -124 q 613 -203 613 -167 q 592 -265 613 -243 q 532 -287 571 -287 z "},"Ò":{"ha":1021,"x_min":50,"x_max":969,"o":"m 494 -17 q 261 43 363 -17 q 105 205 160 103 q 50 432 50 307 q 110 663 50 560 q 277 824 171 765 q 517 883 383 883 q 754 826 651 883 q 913 667 857 768 q 969 443 969 567 q 905 201 969 306 q 731 40 840 96 q 494 -17 622 -17 m 553 19 q 687 61 629 19 q 776 180 744 103 q 808 361 808 257 q 765 601 808 489 q 644 782 722 714 q 467 850 567 850 q 332 808 390 850 q 242 690 274 767 q 210 508 210 613 q 253 270 210 383 q 374 88 296 157 q 553 19 453 19 m 657 961 q 521 1008 578 990 q 374 1050 464 1025 q 381 1067 356 1054 q 446 1092 406 1081 q 508 1103 486 1103 q 521 1100 515 1103 q 615 1017 554 1068 l 667 974 q 669 968 669 972 q 665 962 669 964 q 657 961 661 960 z "},"Ỏ":{"ha":1021,"x_min":50,"x_max":969,"o":"m 494 -17 q 261 43 363 -17 q 105 205 160 103 q 50 432 50 307 q 110 663 50 560 q 277 824 171 765 q 517 883 383 883 q 754 826 651 883 q 913 667 857 768 q 969 443 969 567 q 905 201 969 306 q 731 40 840 96 q 494 -17 622 -17 m 553 19 q 687 61 629 19 q 776 180 744 103 q 808 361 808 257 q 765 601 808 489 q 644 782 722 714 q 467 850 567 850 q 332 808 390 850 q 242 690 274 767 q 210 508 210 613 q 253 270 210 383 q 374 88 296 157 q 553 19 453 19 m 519 907 q 513 903 519 904 q 504 907 506 903 q 493 968 493 936 q 500 1022 493 981 q 507 1075 507 1050 q 506 1099 507 1090 q 489 1135 500 1124 q 458 1147 478 1147 q 410 1133 435 1147 l 407 1133 q 399 1138 403 1133 q 399 1146 394 1142 q 447 1174 418 1164 q 506 1185 475 1185 q 579 1165 550 1185 q 614 1111 608 1146 q 615 1097 615 1107 q 602 1049 615 1072 q 563 997 589 1026 q 526 946 538 965 q 519 907 515 926 z "},"Ơ":{"ha":1021,"x_min":50,"x_max":1026,"o":"m 1026 918 q 979 822 1026 861 q 851 750 932 783 q 939 611 908 690 q 969 440 969 532 q 904 199 969 303 q 730 40 839 96 q 494 -17 621 -17 q 261 43 363 -17 q 105 205 160 103 q 50 432 50 307 q 110 663 50 560 q 277 824 171 765 q 517 883 383 883 q 695 853 614 883 q 836 765 776 822 q 915 842 918 800 q 903 872 915 854 q 894 886 901 874 q 886 919 886 899 q 908 972 886 953 q 958 990 929 990 q 1008 968 990 990 q 1026 918 1026 946 m 553 19 q 687 61 629 19 q 776 180 744 103 q 808 361 808 257 q 765 601 808 489 q 644 782 722 714 q 467 850 567 850 q 332 808 390 850 q 242 690 274 767 q 210 508 210 613 q 253 270 210 383 q 374 88 296 157 q 553 19 453 19 z "},"Ớ":{"ha":1021,"x_min":50,"x_max":1026,"o":"m 1026 918 q 979 822 1026 861 q 851 750 932 783 q 939 611 908 690 q 969 440 969 532 q 904 199 969 303 q 730 40 839 96 q 494 -17 621 -17 q 261 43 363 -17 q 105 205 160 103 q 50 432 50 307 q 110 663 50 560 q 277 824 171 765 q 517 883 383 883 q 695 853 614 883 q 836 765 776 822 q 915 842 918 800 q 903 872 915 854 q 894 886 901 874 q 886 919 886 899 q 908 972 886 953 q 958 990 929 990 q 1008 968 990 990 q 1026 918 1026 946 m 553 19 q 687 61 629 19 q 776 180 744 103 q 808 361 808 257 q 765 601 808 489 q 644 782 722 714 q 467 850 567 850 q 332 808 390 850 q 242 690 274 767 q 210 508 210 613 q 253 270 210 383 q 374 88 296 157 q 553 19 453 19 m 388 942 q 378 948 382 942 q 379 957 375 954 q 472 1044 407 979 q 529 1101 500 1074 q 579 1095 535 1107 q 659 1068 624 1083 q 678 1050 694 1053 q 389 942 518 1007 l 388 942 z "},"Ợ":{"ha":1021,"x_min":50,"x_max":1026,"o":"m 1026 918 q 979 822 1026 861 q 851 750 932 783 q 939 611 908 690 q 969 440 969 532 q 904 199 969 303 q 730 40 839 96 q 494 -17 621 -17 q 261 43 363 -17 q 105 205 160 103 q 50 432 50 307 q 110 663 50 560 q 277 824 171 765 q 517 883 383 883 q 695 853 614 883 q 836 765 776 822 q 915 842 918 800 q 903 872 915 854 q 894 886 901 874 q 886 919 886 899 q 908 972 886 953 q 958 990 929 990 q 1008 968 990 990 q 1026 918 1026 946 m 553 19 q 687 61 629 19 q 776 180 744 103 q 808 361 808 257 q 765 601 808 489 q 644 782 722 714 q 467 850 567 850 q 332 808 390 850 q 242 690 274 767 q 210 508 210 613 q 253 270 210 383 q 374 88 296 157 q 553 19 453 19 m 532 -287 q 469 -265 492 -287 q 447 -203 447 -243 q 470 -145 447 -167 q 532 -124 493 -124 q 591 -145 569 -124 q 613 -203 613 -167 q 592 -265 613 -243 q 532 -287 571 -287 z "},"Ờ":{"ha":1021,"x_min":50,"x_max":1026,"o":"m 1026 918 q 979 822 1026 861 q 851 750 932 783 q 939 611 908 690 q 969 440 969 532 q 904 199 969 303 q 730 40 839 96 q 494 -17 621 -17 q 261 43 363 -17 q 105 205 160 103 q 50 432 50 307 q 110 663 50 560 q 277 824 171 765 q 517 883 383 883 q 695 853 614 883 q 836 765 776 822 q 915 842 918 800 q 903 872 915 854 q 894 886 901 874 q 886 919 886 899 q 908 972 886 953 q 958 990 929 990 q 1008 968 990 990 q 1026 918 1026 946 m 553 19 q 687 61 629 19 q 776 180 744 103 q 808 361 808 257 q 765 601 808 489 q 644 782 722 714 q 467 850 567 850 q 332 808 390 850 q 242 690 274 767 q 210 508 210 613 q 253 270 210 383 q 374 88 296 157 q 553 19 453 19 m 631 943 q 468 1003 544 978 q 301 1050 392 1029 q 314 1069 283 1053 q 385 1097 344 1085 q 435 1101 425 1108 l 504 1050 q 633 957 589 986 q 638 948 639 956 q 631 943 636 940 z "},"Ở":{"ha":1021,"x_min":50,"x_max":1026,"o":"m 1026 918 q 979 822 1026 861 q 851 750 932 783 q 939 611 908 690 q 969 440 969 532 q 904 199 969 303 q 730 40 839 96 q 494 -17 621 -17 q 261 43 363 -17 q 105 205 160 103 q 50 432 50 307 q 110 663 50 560 q 277 824 171 765 q 517 883 383 883 q 695 853 614 883 q 836 765 776 822 q 915 842 918 800 q 903 872 915 854 q 894 886 901 874 q 886 919 886 899 q 908 972 886 953 q 958 990 929 990 q 1008 968 990 990 q 1026 918 1026 946 m 553 19 q 687 61 629 19 q 776 180 744 103 q 808 361 808 257 q 765 601 808 489 q 644 782 722 714 q 467 850 567 850 q 332 808 390 850 q 242 690 274 767 q 210 508 210 613 q 253 270 210 383 q 374 88 296 157 q 553 19 453 19 m 510 907 q 503 903 510 904 q 494 907 496 903 q 483 968 483 936 q 490 1022 483 981 q 497 1075 497 1050 q 496 1099 497 1090 q 479 1135 490 1124 q 449 1147 468 1147 q 400 1133 425 1147 l 397 1133 q 389 1138 393 1133 q 389 1146 385 1142 q 437 1174 408 1164 q 496 1185 465 1185 q 569 1165 540 1185 q 604 1111 599 1146 q 606 1097 606 1107 q 592 1049 606 1072 q 553 997 579 1026 q 517 946 528 965 q 510 907 506 926 z "},"Ỡ":{"ha":1021,"x_min":50,"x_max":1026,"o":"m 1026 918 q 979 822 1026 861 q 851 750 932 783 q 939 611 908 690 q 969 440 969 532 q 904 199 969 303 q 730 40 839 96 q 494 -17 621 -17 q 261 43 363 -17 q 105 205 160 103 q 50 432 50 307 q 110 663 50 560 q 277 824 171 765 q 517 883 383 883 q 695 853 614 883 q 836 765 776 822 q 915 842 918 800 q 903 872 915 854 q 894 886 901 874 q 886 919 886 899 q 908 972 886 953 q 958 990 929 990 q 1008 968 990 990 q 1026 918 1026 946 m 553 19 q 687 61 629 19 q 776 180 744 103 q 808 361 808 257 q 765 601 808 489 q 644 782 722 714 q 467 850 567 850 q 332 808 390 850 q 242 690 274 767 q 210 508 210 613 q 253 270 210 383 q 374 88 296 157 q 553 19 453 19 m 321 985 q 314 988 318 985 q 311 994 310 992 q 361 1075 335 1043 q 429 1107 388 1107 q 467 1101 443 1107 q 497 1093 490 1094 q 603 1072 568 1072 q 649 1081 632 1072 q 685 1110 667 1089 q 685 1111 685 1111 q 686 1111 686 1111 q 693 1107 689 1111 q 696 1100 697 1103 q 643 1011 667 1033 q 583 989 619 989 q 503 1004 557 989 q 451 1017 478 1011 q 403 1022 425 1022 q 357 1015 369 1022 q 322 985 344 1008 l 321 985 z "},"Ő":{"ha":1021,"x_min":50,"x_max":969,"o":"m 494 -17 q 261 43 363 -17 q 105 205 160 103 q 50 432 50 307 q 110 663 50 560 q 277 824 171 765 q 517 883 383 883 q 754 826 651 883 q 913 667 857 768 q 969 443 969 567 q 905 201 969 306 q 731 40 840 96 q 494 -17 622 -17 m 553 19 q 687 61 629 19 q 776 180 744 103 q 808 361 808 257 q 765 601 808 489 q 644 782 722 714 q 467 850 567 850 q 332 808 390 850 q 242 690 274 767 q 210 508 210 613 q 253 270 210 383 q 374 88 296 157 q 553 19 453 19 m 357 925 q 353 931 354 925 q 354 940 351 938 l 400 993 q 494 1110 469 1075 q 510 1114 497 1114 q 563 1105 529 1114 q 615 1084 596 1096 q 621 1065 635 1072 q 542 1026 594 1051 q 447 978 494 1004 q 360 926 399 953 l 357 925 m 553 925 q 547 931 549 925 q 549 940 544 938 q 690 1110 639 1038 q 704 1114 693 1114 q 756 1104 724 1114 q 808 1083 789 1094 q 815 1065 828 1072 q 556 926 671 1000 l 553 925 z "},"Ō":{"ha":1021,"x_min":50,"x_max":969,"o":"m 494 -17 q 261 43 363 -17 q 105 205 160 103 q 50 432 50 307 q 110 663 50 560 q 277 824 171 765 q 517 883 383 883 q 754 826 651 883 q 913 667 857 768 q 969 443 969 567 q 905 201 969 306 q 731 40 840 96 q 494 -17 622 -17 m 553 19 q 687 61 629 19 q 776 180 744 103 q 808 361 808 257 q 765 601 808 489 q 644 782 722 714 q 467 850 567 850 q 332 808 390 850 q 242 690 274 767 q 210 508 210 613 q 253 270 210 383 q 374 88 296 157 q 553 19 453 19 m 350 989 q 340 997 344 989 q 336 1017 336 1006 q 340 1036 336 1028 q 350 1044 344 1044 l 667 1044 q 678 1036 674 1044 q 682 1017 682 1028 q 678 997 682 1006 q 667 989 674 989 l 350 989 z "},"Ǫ":{"ha":1021,"x_min":50,"x_max":969,"o":"m 517 883 q 754 826 651 883 q 913 667 857 768 q 969 443 969 567 q 926 241 969 332 q 808 90 883 150 q 638 3 733 29 q 585 -97 603 -51 q 568 -192 567 -142 q 592 -284 568 -246 q 658 -322 617 -322 q 692 -315 676 -322 q 718 -294 708 -307 l 721 -293 q 728 -299 725 -293 q 729 -307 732 -304 q 666 -365 697 -347 q 596 -382 635 -382 q 492 -341 532 -382 q 453 -239 453 -300 q 490 -127 453 -181 q 599 -7 526 -74 q 494 -17 551 -17 q 261 43 363 -17 q 105 205 160 103 q 50 432 50 307 q 110 663 50 560 q 277 824 171 765 q 517 883 383 883 m 553 19 q 687 61 629 19 q 776 180 744 103 q 808 361 808 257 q 765 601 808 489 q 644 782 722 714 q 467 850 567 850 q 332 808 390 850 q 242 690 274 767 q 210 508 210 613 q 253 270 210 383 q 374 88 296 157 q 553 19 453 19 z "},"Ø":{"ha":1021,"x_min":50,"x_max":969,"o":"m 808 789 q 927 639 885 728 q 969 444 969 550 q 905 201 969 306 q 731 40 840 96 q 494 -17 622 -17 q 217 72 332 -17 l 140 -19 q 121 -10 138 -24 q 107 10 104 4 l 183 101 q 85 248 119 163 q 50 429 50 333 q 110 662 50 558 q 277 824 171 765 q 517 883 383 883 q 774 814 665 883 l 831 882 l 832 883 q 854 872 840 883 q 864 856 868 861 l 808 789 m 210 508 q 278 215 210 344 l 699 724 q 595 817 654 783 q 467 850 536 850 q 332 808 390 850 q 242 690 274 767 q 210 508 210 613 m 553 19 q 687 61 629 19 q 776 180 744 103 q 808 361 808 257 q 786 535 808 451 q 724 686 764 619 l 300 175 q 412 60 347 101 q 553 19 476 19 z "},"Ǿ":{"ha":1021,"x_min":50,"x_max":969,"o":"m 808 789 q 927 639 885 728 q 969 444 969 550 q 905 201 969 306 q 731 40 840 96 q 494 -17 622 -17 q 217 72 332 -17 l 140 -19 q 121 -10 138 -24 q 107 10 104 4 l 183 101 q 85 248 119 163 q 50 429 50 333 q 110 662 50 558 q 277 824 171 765 q 517 883 383 883 q 774 814 665 883 l 831 882 l 832 883 q 854 872 840 883 q 864 856 868 861 l 808 789 m 210 508 q 278 215 210 344 l 699 724 q 595 817 654 783 q 467 850 536 850 q 332 808 390 850 q 242 690 274 767 q 210 508 210 613 m 553 19 q 687 61 629 19 q 776 180 744 103 q 808 361 808 257 q 786 535 808 451 q 724 686 764 619 l 300 175 q 412 60 347 101 q 553 19 476 19 m 424 942 q 415 948 418 942 q 417 957 413 954 q 508 1044 451 985 q 565 1101 565 1101 q 616 1097 572 1108 q 695 1069 660 1085 q 715 1050 731 1053 q 426 943 567 1011 l 424 942 z "},"Õ":{"ha":1021,"x_min":50,"x_max":969,"o":"m 494 -17 q 261 43 363 -17 q 105 205 160 103 q 50 432 50 307 q 110 663 50 560 q 277 824 171 765 q 517 883 383 883 q 754 826 651 883 q 913 667 857 768 q 969 443 969 567 q 905 201 969 306 q 731 40 840 96 q 494 -17 622 -17 m 553 19 q 687 61 629 19 q 776 180 744 103 q 808 361 808 257 q 765 601 808 489 q 644 782 722 714 q 467 850 567 850 q 332 808 390 850 q 242 690 274 767 q 210 508 210 613 q 253 270 210 383 q 374 88 296 157 q 553 19 453 19 m 344 953 q 342 951 344 951 q 335 956 339 951 q 333 963 332 960 q 451 1075 383 1075 q 518 1061 465 1075 q 573 1047 544 1053 q 624 1040 601 1040 q 670 1049 653 1040 q 706 1078 688 1057 l 707 1078 q 715 1074 711 1078 q 717 1068 718 1071 q 664 978 688 1001 q 604 956 640 956 q 524 972 582 956 q 474 985 500 979 q 426 990 447 990 q 378 983 392 990 q 344 953 365 975 z "},"Œ":{"ha":1238,"x_min":50,"x_max":1188,"o":"m 1168 221 q 1175 224 1169 224 q 1183 222 1179 224 q 1186 218 1188 219 q 1172 21 1172 140 q 1168 5 1172 10 q 1151 0 1164 0 l 749 0 q 646 -3 715 0 q 563 -6 585 -6 q 297 51 414 -6 q 115 207 179 108 q 50 426 50 306 q 117 659 50 558 q 297 815 185 760 q 543 871 410 871 q 632 869 599 871 l 740 868 l 1128 868 q 1135 865 1133 868 q 1138 856 1138 863 l 1140 669 q 1132 664 1140 664 q 1122 668 1124 664 q 1056 795 1100 751 q 935 839 1013 839 l 907 839 q 844 833 863 839 q 821 810 826 826 q 814 754 815 793 l 814 471 l 951 471 q 1054 495 1021 471 q 1089 576 1088 519 q 1100 583 1092 583 q 1110 576 1110 583 q 1107 499 1110 540 l 1106 451 q 1108 386 1106 428 q 1111 310 1111 339 q 1101 304 1111 304 q 1092 310 1092 304 q 1053 401 1092 369 q 949 432 1015 432 l 814 432 l 814 118 q 822 58 815 78 q 847 32 829 39 q 904 25 865 25 l 944 25 q 1076 73 1028 25 q 1168 221 1125 121 m 546 22 q 620 27 596 22 q 655 51 644 32 q 664 114 665 71 l 663 738 q 651 801 660 779 q 621 832 642 822 q 558 842 600 842 q 309 743 401 842 q 217 460 217 644 q 259 236 217 336 q 376 79 301 136 q 546 22 451 22 z "},"P":{"ha":797,"x_min":60,"x_max":744,"o":"m 64 0 q 60 8 60 0 q 64 17 60 17 q 126 24 107 17 q 153 51 146 31 q 160 113 160 71 l 160 756 q 152 817 160 797 q 124 844 144 836 q 64 851 104 851 q 60 860 60 851 q 64 868 60 868 l 132 867 q 229 864 190 864 q 350 869 283 864 q 413 872 397 872 q 652 813 560 872 q 744 640 744 753 q 694 486 744 549 q 569 394 644 424 q 419 364 494 364 q 354 371 378 364 q 351 381 351 371 q 353 394 351 388 q 358 399 356 400 q 403 393 376 393 q 531 448 481 393 q 582 613 582 503 q 554 735 582 683 q 483 815 526 788 q 390 843 439 843 q 326 826 342 843 q 308 753 310 808 l 310 113 q 317 51 310 71 q 344 24 325 32 q 403 17 363 17 q 408 8 407 17 q 403 0 408 0 q 333 1 358 0 l 233 3 l 135 1 q 64 0 108 0 z "},"Þ":{"ha":822,"x_min":63,"x_max":785,"o":"m 424 217 q 562 263 503 217 q 621 414 621 308 q 595 538 621 479 q 518 632 569 596 q 393 668 467 668 q 313 658 358 668 l 314 113 q 322 49 314 68 q 356 24 331 31 q 442 17 382 17 q 447 8 446 17 q 442 0 447 0 q 358 1 389 0 l 238 3 l 138 1 q 67 0 113 0 q 63 8 63 0 q 67 17 63 17 q 129 24 110 17 q 156 50 149 31 q 163 113 163 69 l 163 756 q 156 817 163 797 q 129 844 149 836 q 69 851 110 851 q 67 860 67 851 q 69 868 67 868 l 138 867 q 232 864 196 864 q 364 867 286 864 l 444 868 q 449 860 449 868 q 444 851 450 851 q 356 845 382 851 q 322 819 331 839 q 313 753 314 800 l 313 686 q 442 697 372 697 q 691 629 597 697 q 785 444 785 561 q 731 299 785 357 q 599 215 678 242 q 439 189 519 189 q 374 194 401 189 q 371 204 371 196 q 373 217 371 211 q 376 221 375 222 q 424 217 401 217 z "},"Q":{"ha":1021,"x_min":50,"x_max":1135,"o":"m 1122 -242 q 1131 -248 1126 -240 q 1131 -257 1135 -256 q 1032 -278 1072 -278 q 822 -207 931 -278 q 618 -3 714 -136 q 494 -17 551 -17 q 261 43 363 -17 q 105 205 160 103 q 50 432 50 307 q 110 663 50 560 q 277 824 171 765 q 517 883 383 883 q 754 826 651 883 q 913 667 857 768 q 969 443 969 567 q 908 206 969 308 q 743 46 847 104 q 855 -103 790 -36 q 981 -209 919 -171 q 1081 -247 1043 -247 q 1122 -242 1106 -247 m 210 508 q 253 270 210 383 q 374 88 296 157 q 553 19 453 19 q 687 61 629 19 q 776 180 744 103 q 808 361 808 257 q 765 601 808 489 q 644 782 722 714 q 467 850 567 850 q 332 808 390 850 q 242 690 274 767 q 210 508 210 613 z "},"R":{"ha":954,"x_min":63,"x_max":979,"o":"m 974 17 q 978 8 978 17 q 974 0 979 0 l 746 0 q 630 112 713 0 q 431 449 547 224 q 344 439 392 439 q 326 442 338 439 l 326 113 q 333 52 325 72 q 360 24 340 32 q 422 17 381 17 q 428 8 428 17 q 424 0 429 0 q 351 1 376 0 l 249 3 l 144 1 q 69 0 117 0 q 63 8 64 0 q 68 17 63 17 q 136 24 114 17 q 166 52 158 32 q 175 113 174 72 l 175 756 q 167 817 175 797 q 139 844 160 836 q 75 851 118 851 q 69 860 69 851 q 75 868 69 868 l 149 867 q 249 864 210 864 q 351 869 296 864 q 410 872 396 872 q 620 826 550 872 q 690 699 690 781 q 651 583 690 639 q 546 490 611 528 q 730 209 654 311 q 863 62 806 107 q 974 17 921 17 m 326 481 q 367 476 343 476 q 497 517 458 476 q 535 651 535 557 q 497 797 535 750 q 403 843 458 843 q 351 838 365 843 q 333 816 338 833 q 326 753 328 799 l 326 481 z "},"Ŕ":{"ha":954,"x_min":63,"x_max":978,"o":"m 974 17 q 978 8 978 17 q 974 0 979 0 l 746 0 q 630 112 713 0 q 431 449 547 224 q 344 439 392 439 q 326 442 338 439 l 326 113 q 333 52 325 72 q 360 24 340 32 q 422 17 381 17 q 428 8 428 17 q 424 0 429 0 q 351 1 376 0 l 249 3 l 144 1 q 69 0 117 0 q 63 8 64 0 q 68 17 63 17 q 136 24 114 17 q 166 52 158 32 q 175 113 174 72 l 175 756 q 167 817 175 797 q 139 844 160 836 q 75 851 118 851 q 69 860 69 851 q 75 868 69 868 l 149 867 q 249 864 210 864 q 351 869 296 864 q 410 872 396 872 q 620 826 550 872 q 690 699 690 781 q 651 583 690 639 q 546 490 611 528 q 730 209 654 311 q 863 62 806 107 q 974 17 921 17 m 326 481 q 367 476 343 476 q 497 517 458 476 q 535 651 535 557 q 497 797 535 750 q 403 843 458 843 q 351 838 365 843 q 333 816 338 833 q 326 753 328 799 l 326 481 m 315 942 q 307 948 310 942 q 308 957 304 954 q 400 1044 343 985 q 457 1101 457 1101 q 508 1097 464 1108 q 587 1069 551 1085 q 607 1050 622 1053 q 318 943 458 1011 l 315 942 z "},"Ř":{"ha":954,"x_min":63,"x_max":978,"o":"m 974 17 q 978 8 978 17 q 974 0 979 0 l 746 0 q 630 112 713 0 q 431 449 547 224 q 344 439 392 439 q 326 442 338 439 l 326 113 q 333 52 325 72 q 360 24 340 32 q 422 17 381 17 q 428 8 428 17 q 424 0 429 0 q 351 1 376 0 l 249 3 l 144 1 q 69 0 117 0 q 63 8 64 0 q 68 17 63 17 q 136 24 114 17 q 166 52 158 32 q 175 113 174 72 l 175 756 q 167 817 175 797 q 139 844 160 836 q 75 851 118 851 q 69 860 69 851 q 75 868 69 868 l 149 867 q 249 864 210 864 q 351 869 296 864 q 410 872 396 872 q 620 826 550 872 q 690 699 690 781 q 651 583 690 639 q 546 490 611 528 q 730 209 654 311 q 863 62 806 107 q 974 17 921 17 m 326 481 q 367 476 343 476 q 497 517 458 476 q 535 651 535 557 q 497 797 535 750 q 403 843 458 843 q 351 838 365 843 q 333 816 338 833 q 326 753 328 799 l 326 481 m 242 1099 l 240 1101 q 244 1107 240 1104 q 250 1108 247 1110 l 392 1054 l 535 1108 q 542 1105 538 1110 q 544 1099 547 1100 l 411 938 q 399 932 407 932 q 385 938 390 932 l 242 1099 z "},"Ŗ":{"ha":954,"x_min":63,"x_max":978,"o":"m 974 17 q 978 8 978 17 q 974 0 979 0 l 746 0 q 630 112 713 0 q 431 449 547 224 q 344 439 392 439 q 326 442 338 439 l 326 113 q 333 52 325 72 q 360 24 340 32 q 422 17 381 17 q 428 8 428 17 q 424 0 429 0 q 351 1 376 0 l 249 3 l 144 1 q 69 0 117 0 q 63 8 64 0 q 68 17 63 17 q 136 24 114 17 q 166 52 158 32 q 175 113 174 72 l 175 756 q 167 817 175 797 q 139 844 160 836 q 75 851 118 851 q 69 860 69 851 q 75 868 69 868 l 149 867 q 249 864 210 864 q 351 869 296 864 q 410 872 396 872 q 620 826 550 872 q 690 699 690 781 q 651 583 690 639 q 546 490 611 528 q 730 209 654 311 q 863 62 806 107 q 974 17 921 17 m 326 481 q 367 476 343 476 q 497 517 458 476 q 535 651 535 557 q 497 797 535 750 q 403 843 458 843 q 351 838 365 843 q 333 816 338 833 q 326 753 328 799 l 326 481 m 515 -96 q 588 -126 563 -96 q 613 -208 613 -157 q 585 -304 613 -262 q 507 -382 557 -346 l 504 -383 q 496 -377 499 -383 q 497 -368 493 -371 q 546 -323 528 -346 q 564 -275 564 -300 q 550 -229 564 -243 q 494 -256 536 -256 q 444 -233 464 -256 q 425 -176 425 -211 q 451 -117 425 -139 q 515 -96 478 -96 z "},"Ṛ":{"ha":954,"x_min":63,"x_max":978,"o":"m 974 17 q 978 8 978 17 q 974 0 979 0 l 746 0 q 630 112 713 0 q 431 449 547 224 q 344 439 392 439 q 326 442 338 439 l 326 113 q 333 52 325 72 q 360 24 340 32 q 422 17 381 17 q 428 8 428 17 q 424 0 429 0 q 351 1 376 0 l 249 3 l 144 1 q 69 0 117 0 q 63 8 64 0 q 68 17 63 17 q 136 24 114 17 q 166 52 158 32 q 175 113 174 72 l 175 756 q 167 817 175 797 q 139 844 160 836 q 75 851 118 851 q 69 860 69 851 q 75 868 69 868 l 149 867 q 249 864 210 864 q 351 869 296 864 q 410 872 396 872 q 620 826 550 872 q 690 699 690 781 q 651 583 690 639 q 546 490 611 528 q 730 209 654 311 q 863 62 806 107 q 974 17 921 17 m 326 481 q 367 476 343 476 q 497 517 458 476 q 535 651 535 557 q 497 797 535 750 q 403 843 458 843 q 351 838 365 843 q 333 816 338 833 q 326 753 328 799 l 326 481 m 518 -287 q 456 -265 478 -287 q 433 -203 433 -243 q 456 -145 433 -167 q 518 -124 479 -124 q 577 -145 556 -124 q 599 -203 599 -167 q 578 -265 599 -243 q 518 -287 557 -287 z "},"Ṝ":{"ha":954,"x_min":63,"x_max":978,"o":"m 974 17 q 978 8 978 17 q 974 0 979 0 l 746 0 q 630 112 713 0 q 431 449 547 224 q 344 439 392 439 q 326 442 338 439 l 326 113 q 333 52 325 72 q 360 24 340 32 q 422 17 381 17 q 428 8 428 17 q 424 0 429 0 q 351 1 376 0 l 249 3 l 144 1 q 69 0 117 0 q 63 8 64 0 q 68 17 63 17 q 136 24 114 17 q 166 52 158 32 q 175 113 174 72 l 175 756 q 167 817 175 797 q 139 844 160 836 q 75 851 118 851 q 69 860 69 851 q 75 868 69 868 l 149 867 q 249 864 210 864 q 351 869 296 864 q 410 872 396 872 q 620 826 550 872 q 690 699 690 781 q 651 583 690 639 q 546 490 611 528 q 730 209 654 311 q 863 62 806 107 q 974 17 921 17 m 326 481 q 367 476 343 476 q 497 517 458 476 q 535 651 535 557 q 497 797 535 750 q 403 843 458 843 q 351 838 365 843 q 333 816 338 833 q 326 753 328 799 l 326 481 m 518 -287 q 456 -265 478 -287 q 433 -203 433 -243 q 456 -145 433 -167 q 518 -124 479 -124 q 577 -145 556 -124 q 599 -203 599 -167 q 578 -265 599 -243 q 518 -287 557 -287 m 242 989 q 231 997 235 989 q 228 1017 228 1006 q 231 1036 228 1028 q 242 1044 235 1044 l 558 1044 q 569 1036 565 1044 q 572 1017 572 1028 q 569 997 572 1006 q 558 989 565 989 l 242 989 z "},"Ṟ":{"ha":954,"x_min":63,"x_max":978,"o":"m 974 17 q 978 8 978 17 q 974 0 979 0 l 746 0 q 630 112 713 0 q 431 449 547 224 q 344 439 392 439 q 326 442 338 439 l 326 113 q 333 52 325 72 q 360 24 340 32 q 422 17 381 17 q 428 8 428 17 q 424 0 429 0 q 351 1 376 0 l 249 3 l 144 1 q 69 0 117 0 q 63 8 64 0 q 68 17 63 17 q 136 24 114 17 q 166 52 158 32 q 175 113 174 72 l 175 756 q 167 817 175 797 q 139 844 160 836 q 75 851 118 851 q 69 860 69 851 q 75 868 69 868 l 149 867 q 249 864 210 864 q 351 869 296 864 q 410 872 396 872 q 620 826 550 872 q 690 699 690 781 q 651 583 690 639 q 546 490 611 528 q 730 209 654 311 q 863 62 806 107 q 974 17 921 17 m 326 481 q 367 476 343 476 q 497 517 458 476 q 535 651 535 557 q 497 797 535 750 q 403 843 458 843 q 351 838 365 843 q 333 816 338 833 q 326 753 328 799 l 326 481 m 358 -171 q 348 -162 351 -171 q 344 -143 344 -154 q 348 -124 344 -132 q 358 -115 351 -115 l 675 -115 q 685 -124 682 -115 q 689 -143 689 -132 q 685 -162 689 -154 q 675 -171 682 -171 l 358 -171 z "},"S":{"ha":701,"x_min":96,"x_max":639,"o":"m 233 736 q 260 646 233 686 q 324 576 286 606 q 428 504 363 546 q 540 425 499 458 q 610 345 581 392 q 639 239 639 299 q 556 52 639 121 q 343 -17 474 -17 q 210 1 281 -17 q 115 39 139 18 q 106 48 108 43 q 103 65 104 53 l 97 286 q 103 293 96 292 q 114 289 111 294 q 187 153 153 208 q 269 58 221 99 q 379 18 318 18 q 501 151 501 18 q 473 264 501 215 q 403 345 444 313 q 294 422 363 378 q 194 492 232 463 q 131 564 157 522 q 106 658 106 606 q 148 784 106 733 q 257 859 190 835 q 399 883 324 883 q 501 874 447 883 q 583 853 554 865 q 600 840 596 846 q 604 825 604 833 l 604 621 q 597 615 604 617 q 588 617 590 613 q 558 688 583 625 q 480 802 532 751 q 361 853 428 853 q 269 820 306 853 q 233 736 233 788 z "},"Ś":{"ha":701,"x_min":97,"x_max":639,"o":"m 233 736 q 260 646 233 686 q 324 576 286 606 q 428 504 363 546 q 540 425 499 458 q 610 345 581 392 q 639 239 639 299 q 556 52 639 121 q 343 -17 474 -17 q 210 1 281 -17 q 115 39 139 18 q 106 48 108 43 q 103 65 104 53 l 97 286 q 103 293 96 292 q 114 289 111 294 q 187 153 153 208 q 269 58 221 99 q 379 18 318 18 q 501 151 501 18 q 473 264 501 215 q 403 345 444 313 q 294 422 363 378 q 194 492 232 463 q 131 564 157 522 q 106 658 106 606 q 148 784 106 733 q 257 859 190 835 q 399 883 324 883 q 501 874 447 883 q 583 853 554 865 q 600 840 596 846 q 604 825 604 833 l 604 621 q 597 615 604 617 q 588 617 590 613 q 558 688 583 625 q 480 802 532 751 q 361 853 428 853 q 269 820 306 853 q 233 736 233 788 m 279 942 q 271 948 274 942 q 272 957 268 954 q 364 1044 307 985 q 421 1101 421 1101 q 472 1097 428 1108 q 551 1069 515 1085 q 571 1050 586 1053 q 282 943 422 1011 l 279 942 z "},"Š":{"ha":701,"x_min":97,"x_max":639,"o":"m 233 736 q 260 646 233 686 q 324 576 286 606 q 428 504 363 546 q 540 425 499 458 q 610 345 581 392 q 639 239 639 299 q 556 52 639 121 q 343 -17 474 -17 q 210 1 281 -17 q 115 39 139 18 q 106 48 108 43 q 103 65 104 53 l 97 286 q 103 293 96 292 q 114 289 111 294 q 187 153 153 208 q 269 58 221 99 q 379 18 318 18 q 501 151 501 18 q 473 264 501 215 q 403 345 444 313 q 294 422 363 378 q 194 492 232 463 q 131 564 157 522 q 106 658 106 606 q 148 784 106 733 q 257 859 190 835 q 399 883 324 883 q 501 874 447 883 q 583 853 554 865 q 600 840 596 846 q 604 825 604 833 l 604 621 q 597 615 604 617 q 588 617 590 613 q 558 688 583 625 q 480 802 532 751 q 361 853 428 853 q 269 820 306 853 q 233 736 233 788 m 206 1099 l 204 1101 q 208 1107 204 1104 q 214 1108 211 1110 l 356 1054 l 499 1108 q 506 1105 501 1110 q 508 1099 511 1100 l 375 938 q 363 932 371 932 q 349 938 354 932 l 206 1099 z "},"Ş":{"ha":701,"x_min":96,"x_max":639,"o":"m 639 239 q 578 72 639 138 q 413 -11 517 6 q 410 -35 410 -28 q 425 -86 410 -65 q 478 -144 440 -107 q 528 -207 513 -181 q 543 -260 543 -233 q 529 -315 544 -286 q 481 -362 514 -343 q 399 -382 449 -382 q 312 -361 349 -382 q 275 -308 275 -340 q 288 -273 274 -285 q 324 -261 301 -261 q 362 -274 349 -261 q 388 -312 375 -287 q 409 -346 400 -336 q 435 -356 418 -356 q 459 -347 451 -356 q 465 -322 467 -337 q 438 -267 463 -299 q 372 -192 414 -235 q 354 -146 354 -174 q 367 -83 354 -124 l 389 -14 q 343 -17 358 -17 q 210 1 281 -17 q 115 39 139 18 q 106 48 108 43 q 103 65 104 53 l 97 286 q 103 293 96 292 q 114 289 111 294 q 187 153 153 208 q 269 58 221 99 q 379 18 318 18 q 501 151 501 18 q 473 264 501 215 q 403 345 444 313 q 294 422 363 378 q 194 492 232 463 q 131 564 157 522 q 106 658 106 606 q 148 784 106 733 q 257 859 190 835 q 399 883 324 883 q 501 874 447 883 q 583 853 554 865 q 600 840 596 846 q 604 825 604 833 l 604 621 q 597 615 604 617 q 588 617 590 613 q 558 688 583 625 q 480 802 532 751 q 361 853 428 853 q 269 820 306 853 q 233 736 233 788 q 260 646 233 686 q 324 576 286 606 q 428 504 363 546 q 540 425 499 458 q 610 345 581 392 q 639 239 639 299 z "},"Ŝ":{"ha":701,"x_min":97,"x_max":639,"o":"m 233 736 q 260 646 233 686 q 324 576 286 606 q 428 504 363 546 q 540 425 499 458 q 610 345 581 392 q 639 239 639 299 q 556 52 639 121 q 343 -17 474 -17 q 210 1 281 -17 q 115 39 139 18 q 106 48 108 43 q 103 65 104 53 l 97 286 q 103 293 96 292 q 114 289 111 294 q 187 153 153 208 q 269 58 221 99 q 379 18 318 18 q 501 151 501 18 q 473 264 501 215 q 403 345 444 313 q 294 422 363 378 q 194 492 232 463 q 131 564 157 522 q 106 658 106 606 q 148 784 106 733 q 257 859 190 835 q 399 883 324 883 q 501 874 447 883 q 583 853 554 865 q 600 840 596 846 q 604 825 604 833 l 604 621 q 597 615 604 617 q 588 617 590 613 q 558 688 583 625 q 480 802 532 751 q 361 853 428 853 q 269 820 306 853 q 233 736 233 788 m 224 917 q 216 920 219 917 q 215 926 213 924 l 347 1086 q 358 1093 351 1093 q 372 1086 365 1093 l 517 926 q 516 919 519 924 q 510 917 513 914 l 368 969 l 225 917 l 224 917 z "},"Ș":{"ha":701,"x_min":97,"x_max":639,"o":"m 233 736 q 260 646 233 686 q 324 576 286 606 q 428 504 363 546 q 540 425 499 458 q 610 345 581 392 q 639 239 639 299 q 556 52 639 121 q 343 -17 474 -17 q 210 1 281 -17 q 115 39 139 18 q 106 48 108 43 q 103 65 104 53 l 97 286 q 103 293 96 292 q 114 289 111 294 q 187 153 153 208 q 269 58 221 99 q 379 18 318 18 q 501 151 501 18 q 473 264 501 215 q 403 345 444 313 q 294 422 363 378 q 194 492 232 463 q 131 564 157 522 q 106 658 106 606 q 148 784 106 733 q 257 859 190 835 q 399 883 324 883 q 501 874 447 883 q 583 853 554 865 q 600 840 596 846 q 604 825 604 833 l 604 621 q 597 615 604 617 q 588 617 590 613 q 558 688 583 625 q 480 802 532 751 q 361 853 428 853 q 269 820 306 853 q 233 736 233 788 m 389 -96 q 461 -126 436 -96 q 486 -208 486 -157 q 458 -304 486 -262 q 381 -382 431 -346 l 378 -383 q 369 -377 372 -383 q 371 -368 367 -371 q 419 -323 401 -346 q 438 -275 438 -300 q 424 -229 438 -243 q 368 -256 410 -256 q 318 -233 338 -256 q 299 -176 299 -211 q 325 -117 299 -139 q 389 -96 351 -96 z "},"Ṡ":{"ha":701,"x_min":97,"x_max":639,"o":"m 233 736 q 260 646 233 686 q 324 576 286 606 q 428 504 363 546 q 540 425 499 458 q 610 345 581 392 q 639 239 639 299 q 556 52 639 121 q 343 -17 474 -17 q 210 1 281 -17 q 115 39 139 18 q 106 48 108 43 q 103 65 104 53 l 97 286 q 103 293 96 292 q 114 289 111 294 q 187 153 153 208 q 269 58 221 99 q 379 18 318 18 q 501 151 501 18 q 473 264 501 215 q 403 345 444 313 q 294 422 363 378 q 194 492 232 463 q 131 564 157 522 q 106 658 106 606 q 148 784 106 733 q 257 859 190 835 q 399 883 324 883 q 501 874 447 883 q 583 853 554 865 q 600 840 596 846 q 604 825 604 833 l 604 621 q 597 615 604 617 q 588 617 590 613 q 558 688 583 625 q 480 802 532 751 q 361 853 428 853 q 269 820 306 853 q 233 736 233 788 m 365 990 q 303 1013 325 990 q 281 1075 281 1036 q 303 1133 281 1111 q 365 1156 326 1156 q 424 1134 403 1156 q 446 1075 446 1113 q 425 1013 446 1035 q 365 990 404 990 z "},"Ṣ":{"ha":701,"x_min":97,"x_max":639,"o":"m 233 736 q 260 646 233 686 q 324 576 286 606 q 428 504 363 546 q 540 425 499 458 q 610 345 581 392 q 639 239 639 299 q 556 52 639 121 q 343 -17 474 -17 q 210 1 281 -17 q 115 39 139 18 q 106 48 108 43 q 103 65 104 53 l 97 286 q 103 293 96 292 q 114 289 111 294 q 187 153 153 208 q 269 58 221 99 q 379 18 318 18 q 501 151 501 18 q 473 264 501 215 q 403 345 444 313 q 294 422 363 378 q 194 492 232 463 q 131 564 157 522 q 106 658 106 606 q 148 784 106 733 q 257 859 190 835 q 399 883 324 883 q 501 874 447 883 q 583 853 554 865 q 600 840 596 846 q 604 825 604 833 l 604 621 q 597 615 604 617 q 588 617 590 613 q 558 688 583 625 q 480 802 532 751 q 361 853 428 853 q 269 820 306 853 q 233 736 233 788 m 392 -287 q 329 -265 351 -287 q 307 -203 307 -243 q 330 -145 307 -167 q 392 -124 353 -124 q 451 -145 429 -124 q 472 -203 472 -167 q 451 -265 472 -243 q 392 -287 431 -287 z "},"ẞ":{"ha":985,"x_min":11,"x_max":951,"o":"m 667 -17 q 567 -4 614 -17 q 486 31 519 8 q 472 57 472 38 l 461 221 l 461 222 q 469 229 461 229 q 479 224 476 229 q 603 85 526 143 q 736 26 681 26 q 800 61 779 26 q 821 144 821 96 q 754 315 821 238 q 574 460 688 392 q 565 469 565 465 q 567 481 564 474 l 722 718 q 544 790 638 763 q 392 817 450 817 q 322 799 344 817 q 289 740 299 782 q 278 617 279 699 l 278 113 q 285 51 278 71 q 310 24 292 32 q 368 17 329 17 q 375 8 375 17 q 368 0 375 0 l 201 1 l 18 0 q 12 8 13 0 q 17 17 11 17 q 85 24 63 17 q 115 51 107 32 q 124 113 124 71 l 124 531 q 174 706 125 625 q 311 835 222 788 q 517 883 400 883 q 635 872 576 883 q 774 839 694 860 q 793 836 785 836 q 849 874 824 836 q 853 876 851 876 q 860 872 857 876 q 863 865 864 868 l 664 567 q 881 399 811 481 q 951 229 951 318 q 917 108 951 164 q 817 17 882 51 q 667 -17 753 -17 z "},"Ə":{"ha":888,"x_min":61,"x_max":835,"o":"m 390 883 q 734 756 633 883 q 835 450 835 629 q 774 200 835 306 q 610 39 714 94 q 381 -17 507 -17 q 201 21 274 -17 q 95 114 129 58 q 61 224 61 169 q 65 240 61 236 q 78 243 69 243 l 639 246 q 650 400 650 306 q 581 731 649 608 q 386 854 514 854 q 233 802 307 854 q 96 643 158 750 q 90 640 93 640 q 81 643 86 640 q 78 649 76 646 l 122 903 q 131 907 122 907 q 139 905 135 907 q 142 900 143 903 q 140 886 140 894 q 167 858 140 858 q 181 860 175 858 q 298 878 251 872 q 390 883 344 883 m 433 18 q 635 217 590 18 l 232 213 q 297 72 244 125 q 433 18 349 18 z "},"T":{"ha":828,"x_min":33,"x_max":797,"o":"m 214 0 q 210 8 210 0 q 213 17 210 17 q 298 24 271 17 q 335 51 325 31 q 344 113 344 71 l 344 756 q 332 820 346 804 q 279 836 318 836 l 261 836 q 168 806 214 836 q 90 727 122 776 q 51 619 58 678 q 44 617 51 617 q 37 619 40 617 q 35 622 33 621 q 56 899 42 675 q 63 903 56 903 q 70 901 67 903 q 74 897 74 900 q 136 868 74 868 q 418 864 249 864 q 589 867 494 864 l 686 868 q 753 875 732 868 q 779 903 774 882 q 790 906 782 907 q 796 900 797 906 q 788 747 792 839 q 785 622 783 654 q 776 618 785 618 q 765 624 765 618 q 740 729 765 681 q 669 807 714 778 q 571 836 624 836 l 553 836 q 513 829 525 836 q 499 806 501 822 q 494 753 496 790 l 496 113 q 505 50 496 69 q 540 24 514 31 q 626 17 567 17 q 631 8 631 17 q 626 0 631 0 q 546 1 575 0 l 419 3 l 300 1 q 214 0 269 0 z "},"Ŧ":{"ha":828,"x_min":33,"x_max":797,"o":"m 779 903 q 790 906 782 907 q 796 900 797 906 q 788 747 792 839 q 785 622 783 654 q 776 618 785 618 q 765 624 765 618 q 740 729 765 681 q 669 807 714 778 q 571 836 624 836 l 553 836 q 513 829 525 836 q 499 806 501 822 q 494 753 496 790 l 494 468 l 614 468 q 619 462 617 468 q 621 449 621 456 q 619 435 621 442 q 614 429 617 429 l 496 429 l 496 113 q 505 50 496 69 q 540 24 514 31 q 626 17 567 17 q 631 8 631 17 q 626 0 631 0 q 546 1 575 0 l 419 3 l 300 1 q 214 0 269 0 q 210 8 210 0 q 213 17 210 17 q 298 24 271 17 q 335 51 325 31 q 344 113 344 71 l 344 429 l 224 429 q 220 435 222 429 q 218 449 218 442 q 220 462 218 456 q 224 468 222 468 l 344 468 l 344 756 q 332 820 346 804 q 279 836 318 836 l 261 836 q 168 806 214 836 q 90 727 122 776 q 51 619 58 678 q 44 617 51 617 q 37 619 40 617 q 35 622 33 621 q 56 899 42 675 q 63 903 56 903 q 70 901 67 903 q 74 897 74 900 q 136 868 74 868 q 418 864 249 864 q 589 867 494 864 l 686 868 q 753 875 732 868 q 779 903 774 882 z "},"Ť":{"ha":828,"x_min":35,"x_max":796,"o":"m 214 0 q 210 8 210 0 q 213 17 210 17 q 298 24 271 17 q 335 51 325 31 q 344 113 344 71 l 344 756 q 332 820 346 804 q 279 836 318 836 l 261 836 q 168 806 214 836 q 90 727 122 776 q 51 619 58 678 q 44 617 51 617 q 37 619 40 617 q 35 622 33 621 q 56 899 42 675 q 63 903 56 903 q 70 901 67 903 q 74 897 74 900 q 136 868 74 868 q 418 864 249 864 q 589 867 494 864 l 686 868 q 753 875 732 868 q 779 903 774 882 q 790 906 782 907 q 796 900 797 906 q 788 747 792 839 q 785 622 783 654 q 776 618 785 618 q 765 624 765 618 q 740 729 765 681 q 669 807 714 778 q 571 836 624 836 l 553 836 q 513 829 525 836 q 499 806 501 822 q 494 753 496 790 l 496 113 q 505 50 496 69 q 540 24 514 31 q 626 17 567 17 q 631 8 631 17 q 626 0 631 0 q 546 1 575 0 l 419 3 l 300 1 q 214 0 269 0 m 257 1099 l 256 1101 q 259 1107 256 1104 q 265 1108 263 1110 l 407 1054 l 550 1108 q 558 1105 553 1110 q 560 1099 563 1100 l 426 938 q 414 932 422 932 q 400 938 406 932 l 257 1099 z "},"Ţ":{"ha":828,"x_min":33,"x_max":797,"o":"m 779 903 q 790 906 782 907 q 796 900 797 906 q 788 747 792 839 q 785 622 783 654 q 776 618 785 618 q 765 624 765 618 q 740 729 765 681 q 669 807 714 778 q 571 836 624 836 l 553 836 q 513 829 525 836 q 499 806 501 822 q 494 753 496 790 l 496 113 q 505 50 496 69 q 540 24 514 31 q 626 17 567 17 q 631 8 631 17 q 626 0 631 0 q 551 1 579 0 l 436 3 q 432 -39 432 -22 q 444 -92 432 -72 q 492 -144 457 -111 q 542 -207 526 -181 q 557 -260 557 -233 q 543 -315 558 -286 q 495 -362 528 -343 q 413 -382 463 -382 q 326 -361 363 -382 q 289 -308 289 -340 q 301 -273 288 -285 q 338 -261 315 -261 q 376 -274 363 -261 q 401 -312 389 -287 q 423 -346 414 -336 q 449 -356 432 -356 q 473 -347 465 -356 q 479 -322 481 -337 q 452 -267 476 -299 q 386 -192 428 -235 q 368 -146 368 -174 q 381 -83 368 -124 l 408 3 l 296 1 q 214 0 267 0 q 210 8 210 0 q 213 17 210 17 q 298 24 271 17 q 335 51 325 31 q 344 113 344 71 l 344 756 q 332 820 346 804 q 279 836 318 836 l 261 836 q 168 806 214 836 q 90 727 122 776 q 51 619 58 678 q 44 617 51 617 q 37 619 40 617 q 35 622 33 621 q 56 899 42 675 q 63 903 56 903 q 70 901 67 903 q 74 897 74 900 q 136 868 74 868 q 418 864 249 864 q 589 867 494 864 l 686 868 q 753 875 732 868 q 779 903 774 882 z "},"Ț":{"ha":828,"x_min":35,"x_max":796,"o":"m 214 0 q 210 8 210 0 q 213 17 210 17 q 298 24 271 17 q 335 51 325 31 q 344 113 344 71 l 344 756 q 332 820 346 804 q 279 836 318 836 l 261 836 q 168 806 214 836 q 90 727 122 776 q 51 619 58 678 q 44 617 51 617 q 37 619 40 617 q 35 622 33 621 q 56 899 42 675 q 63 903 56 903 q 70 901 67 903 q 74 897 74 900 q 136 868 74 868 q 418 864 249 864 q 589 867 494 864 l 686 868 q 753 875 732 868 q 779 903 774 882 q 790 906 782 907 q 796 900 797 906 q 788 747 792 839 q 785 622 783 654 q 776 618 785 618 q 765 624 765 618 q 740 729 765 681 q 669 807 714 778 q 571 836 624 836 l 553 836 q 513 829 525 836 q 499 806 501 822 q 494 753 496 790 l 496 113 q 505 50 496 69 q 540 24 514 31 q 626 17 567 17 q 631 8 631 17 q 626 0 631 0 q 546 1 575 0 l 419 3 l 300 1 q 214 0 269 0 m 418 -96 q 490 -126 465 -96 q 515 -208 515 -157 q 488 -304 515 -262 q 410 -382 460 -346 l 407 -383 q 399 -377 401 -383 q 400 -368 396 -371 q 449 -323 431 -346 q 467 -275 467 -300 q 453 -229 467 -243 q 397 -256 439 -256 q 347 -233 367 -256 q 328 -176 328 -211 q 354 -117 328 -139 q 418 -96 381 -96 z "},"Ṭ":{"ha":828,"x_min":35,"x_max":796,"o":"m 214 0 q 210 8 210 0 q 213 17 210 17 q 298 24 271 17 q 335 51 325 31 q 344 113 344 71 l 344 756 q 332 820 346 804 q 279 836 318 836 l 261 836 q 168 806 214 836 q 90 727 122 776 q 51 619 58 678 q 44 617 51 617 q 37 619 40 617 q 35 622 33 621 q 56 899 42 675 q 63 903 56 903 q 70 901 67 903 q 74 897 74 900 q 136 868 74 868 q 418 864 249 864 q 589 867 494 864 l 686 868 q 753 875 732 868 q 779 903 774 882 q 790 906 782 907 q 796 900 797 906 q 788 747 792 839 q 785 622 783 654 q 776 618 785 618 q 765 624 765 618 q 740 729 765 681 q 669 807 714 778 q 571 836 624 836 l 553 836 q 513 829 525 836 q 499 806 501 822 q 494 753 496 790 l 496 113 q 505 50 496 69 q 540 24 514 31 q 626 17 567 17 q 631 8 631 17 q 626 0 631 0 q 546 1 575 0 l 419 3 l 300 1 q 214 0 269 0 m 421 -287 q 358 -265 381 -287 q 336 -203 336 -243 q 359 -145 336 -167 q 421 -124 382 -124 q 480 -145 458 -124 q 501 -203 501 -167 q 481 -265 501 -243 q 421 -287 460 -287 z "},"Ṯ":{"ha":828,"x_min":35,"x_max":796,"o":"m 214 0 q 210 8 210 0 q 213 17 210 17 q 298 24 271 17 q 335 51 325 31 q 344 113 344 71 l 344 756 q 332 820 346 804 q 279 836 318 836 l 261 836 q 168 806 214 836 q 90 727 122 776 q 51 619 58 678 q 44 617 51 617 q 37 619 40 617 q 35 622 33 621 q 56 899 42 675 q 63 903 56 903 q 70 901 67 903 q 74 897 74 900 q 136 868 74 868 q 418 864 249 864 q 589 867 494 864 l 686 868 q 753 875 732 868 q 779 903 774 882 q 790 906 782 907 q 796 900 797 906 q 788 747 792 839 q 785 622 783 654 q 776 618 785 618 q 765 624 765 618 q 740 729 765 681 q 669 807 714 778 q 571 836 624 836 l 553 836 q 513 829 525 836 q 499 806 501 822 q 494 753 496 790 l 496 113 q 505 50 496 69 q 540 24 514 31 q 626 17 567 17 q 631 8 631 17 q 626 0 631 0 q 546 1 575 0 l 419 3 l 300 1 q 214 0 269 0 m 261 -171 q 251 -162 254 -171 q 247 -143 247 -154 q 251 -124 247 -132 q 261 -115 254 -115 l 578 -115 q 588 -124 585 -115 q 592 -143 592 -132 q 588 -162 592 -154 q 578 -171 585 -171 l 261 -171 z "},"U":{"ha":1076,"x_min":36,"x_max":1025,"o":"m 1021 17 q 1025 8 1025 17 q 1021 0 1025 0 l 885 1 l 779 0 q 760 4 764 0 q 757 26 757 8 l 757 88 q 623 8 690 32 q 476 -17 556 -17 q 300 17 378 -17 q 178 113 222 50 q 133 258 133 175 l 133 756 q 126 816 133 796 q 99 844 118 836 q 40 851 79 851 q 36 860 36 851 q 40 868 36 868 l 108 867 q 207 864 167 864 q 307 867 243 864 l 376 868 q 383 860 382 868 q 379 851 383 851 q 317 843 338 851 q 291 815 297 835 q 283 753 285 796 l 283 307 q 347 106 282 178 q 529 35 413 35 q 643 56 589 35 q 757 128 697 78 l 756 753 q 739 832 757 813 q 664 851 721 851 q 660 860 660 851 q 663 868 660 868 l 732 867 q 832 864 793 864 q 931 867 867 864 l 1000 868 q 1006 860 1006 868 q 1003 851 1007 851 q 941 844 961 851 q 914 817 921 836 q 907 756 907 797 l 907 113 q 915 51 907 71 q 947 24 924 31 q 1021 17 971 17 z "},"Ú":{"ha":1076,"x_min":36,"x_max":1025,"o":"m 1021 17 q 1025 8 1025 17 q 1021 0 1025 0 l 885 1 l 779 0 q 760 4 764 0 q 757 26 757 8 l 757 88 q 623 8 690 32 q 476 -17 556 -17 q 300 17 378 -17 q 178 113 222 50 q 133 258 133 175 l 133 756 q 126 816 133 796 q 99 844 118 836 q 40 851 79 851 q 36 860 36 851 q 40 868 36 868 l 108 867 q 207 864 167 864 q 307 867 243 864 l 376 868 q 383 860 382 868 q 379 851 383 851 q 317 843 338 851 q 291 815 297 835 q 283 753 285 796 l 283 307 q 347 106 282 178 q 529 35 413 35 q 643 56 589 35 q 757 128 697 78 l 756 753 q 739 832 757 813 q 664 851 721 851 q 660 860 660 851 q 663 868 660 868 l 732 867 q 832 864 793 864 q 931 867 867 864 l 1000 868 q 1006 860 1006 868 q 1003 851 1007 851 q 941 844 961 851 q 914 817 921 836 q 907 756 907 797 l 907 113 q 915 51 907 71 q 947 24 924 31 q 1021 17 971 17 m 435 942 q 426 948 429 942 q 428 957 424 954 q 519 1044 463 985 q 576 1101 576 1101 q 627 1097 583 1108 q 706 1069 671 1085 q 726 1050 742 1053 q 438 943 578 1011 l 435 942 z "},"Ŭ":{"ha":1076,"x_min":36,"x_max":1025,"o":"m 1021 17 q 1025 8 1025 17 q 1021 0 1025 0 l 885 1 l 779 0 q 760 4 764 0 q 757 26 757 8 l 757 88 q 623 8 690 32 q 476 -17 556 -17 q 300 17 378 -17 q 178 113 222 50 q 133 258 133 175 l 133 756 q 126 816 133 796 q 99 844 118 836 q 40 851 79 851 q 36 860 36 851 q 40 868 36 868 l 108 867 q 207 864 167 864 q 307 867 243 864 l 376 868 q 383 860 382 868 q 379 851 383 851 q 317 843 338 851 q 291 815 297 835 q 283 753 285 796 l 283 307 q 347 106 282 178 q 529 35 413 35 q 643 56 589 35 q 757 128 697 78 l 756 753 q 739 832 757 813 q 664 851 721 851 q 660 860 660 851 q 663 868 660 868 l 732 867 q 832 864 793 864 q 931 867 867 864 l 1000 868 q 1006 860 1006 868 q 1003 851 1007 851 q 941 844 961 851 q 914 817 921 836 q 907 756 907 797 l 907 113 q 915 51 907 71 q 947 24 924 31 q 1021 17 971 17 m 521 924 q 437 958 475 924 q 385 1058 399 993 q 415 1074 383 1067 q 474 1082 446 1082 q 497 1076 496 1082 q 526 1023 507 1042 q 567 1004 544 1004 q 605 1021 588 1004 q 632 1071 622 1038 q 639 1075 632 1075 q 650 1072 644 1075 q 654 1067 656 1069 q 604 960 642 997 q 521 924 567 924 z "},"Ǔ":{"ha":1076,"x_min":36,"x_max":1025,"o":"m 1021 17 q 1025 8 1025 17 q 1021 0 1025 0 l 885 1 l 779 0 q 760 4 764 0 q 757 26 757 8 l 757 88 q 623 8 690 32 q 476 -17 556 -17 q 300 17 378 -17 q 178 113 222 50 q 133 258 133 175 l 133 756 q 126 816 133 796 q 99 844 118 836 q 40 851 79 851 q 36 860 36 851 q 40 868 36 868 l 108 867 q 207 864 167 864 q 307 867 243 864 l 376 868 q 383 860 382 868 q 379 851 383 851 q 317 843 338 851 q 291 815 297 835 q 283 753 285 796 l 283 307 q 347 106 282 178 q 529 35 413 35 q 643 56 589 35 q 757 128 697 78 l 756 753 q 739 832 757 813 q 664 851 721 851 q 660 860 660 851 q 663 868 660 868 l 732 867 q 832 864 793 864 q 931 867 867 864 l 1000 868 q 1006 860 1006 868 q 1003 851 1007 851 q 941 844 961 851 q 914 817 921 836 q 907 756 907 797 l 907 113 q 915 51 907 71 q 947 24 924 31 q 1021 17 971 17 m 361 1099 l 360 1101 q 363 1107 360 1104 q 369 1108 367 1110 l 511 1054 l 654 1108 q 662 1105 657 1110 q 664 1099 667 1100 l 531 938 q 518 932 526 932 q 504 938 510 932 l 361 1099 z "},"Û":{"ha":1076,"x_min":36,"x_max":1025,"o":"m 1021 17 q 1025 8 1025 17 q 1021 0 1025 0 l 885 1 l 779 0 q 760 4 764 0 q 757 26 757 8 l 757 88 q 623 8 690 32 q 476 -17 556 -17 q 300 17 378 -17 q 178 113 222 50 q 133 258 133 175 l 133 756 q 126 816 133 796 q 99 844 118 836 q 40 851 79 851 q 36 860 36 851 q 40 868 36 868 l 108 867 q 207 864 167 864 q 307 867 243 864 l 376 868 q 383 860 382 868 q 379 851 383 851 q 317 843 338 851 q 291 815 297 835 q 283 753 285 796 l 283 307 q 347 106 282 178 q 529 35 413 35 q 643 56 589 35 q 757 128 697 78 l 756 753 q 739 832 757 813 q 664 851 721 851 q 660 860 660 851 q 663 868 660 868 l 732 867 q 832 864 793 864 q 931 867 867 864 l 1000 868 q 1006 860 1006 868 q 1003 851 1007 851 q 941 844 961 851 q 914 817 921 836 q 907 756 907 797 l 907 113 q 915 51 907 71 q 947 24 924 31 q 1021 17 971 17 m 379 917 q 372 920 375 917 q 371 926 368 924 l 503 1086 q 514 1093 507 1093 q 528 1086 521 1093 l 672 926 q 672 919 675 924 q 665 917 668 914 l 524 969 l 381 917 l 379 917 z "},"Ü":{"ha":1076,"x_min":36,"x_max":1025,"o":"m 1021 17 q 1025 8 1025 17 q 1021 0 1025 0 l 885 1 l 779 0 q 760 4 764 0 q 757 26 757 8 l 757 88 q 623 8 690 32 q 476 -17 556 -17 q 300 17 378 -17 q 178 113 222 50 q 133 258 133 175 l 133 756 q 126 816 133 796 q 99 844 118 836 q 40 851 79 851 q 36 860 36 851 q 40 868 36 868 l 108 867 q 207 864 167 864 q 307 867 243 864 l 376 868 q 383 860 382 868 q 379 851 383 851 q 317 843 338 851 q 291 815 297 835 q 283 753 285 796 l 283 307 q 347 106 282 178 q 529 35 413 35 q 643 56 589 35 q 757 128 697 78 l 756 753 q 739 832 757 813 q 664 851 721 851 q 660 860 660 851 q 663 868 660 868 l 732 867 q 832 864 793 864 q 931 867 867 864 l 1000 868 q 1006 860 1006 868 q 1003 851 1007 851 q 941 844 961 851 q 914 817 921 836 q 907 756 907 797 l 907 113 q 915 51 907 71 q 947 24 924 31 q 1021 17 971 17 m 397 976 q 342 997 363 976 q 321 1053 321 1017 q 342 1106 321 1086 q 397 1125 363 1125 q 451 1106 432 1125 q 471 1053 471 1086 q 451 997 471 1017 q 397 976 432 976 m 640 976 q 585 997 604 976 q 565 1053 565 1017 q 585 1105 565 1086 q 640 1124 606 1124 q 692 1105 674 1124 q 711 1053 711 1086 q 692 997 711 1017 q 640 976 674 976 z "},"Ǘ":{"ha":1076,"x_min":36,"x_max":1025,"o":"m 1021 17 q 1025 8 1025 17 q 1021 0 1025 0 l 885 1 l 779 0 q 760 4 764 0 q 757 26 757 8 l 757 88 q 623 8 690 32 q 476 -17 556 -17 q 300 17 378 -17 q 178 113 222 50 q 133 258 133 175 l 133 756 q 126 816 133 796 q 99 844 118 836 q 40 851 79 851 q 36 860 36 851 q 40 868 36 868 l 108 867 q 207 864 167 864 q 307 867 243 864 l 376 868 q 383 860 382 868 q 379 851 383 851 q 317 843 338 851 q 291 815 297 835 q 283 753 285 796 l 283 307 q 347 106 282 178 q 529 35 413 35 q 643 56 589 35 q 757 128 697 78 l 756 753 q 739 832 757 813 q 664 851 721 851 q 660 860 660 851 q 663 868 660 868 l 732 867 q 832 864 793 864 q 931 867 867 864 l 1000 868 q 1006 860 1006 868 q 1003 851 1007 851 q 941 844 961 851 q 914 817 921 836 q 907 756 907 797 l 907 113 q 915 51 907 71 q 947 24 924 31 q 1021 17 971 17 m 404 944 q 349 965 369 944 q 328 1021 328 985 q 349 1074 328 1054 q 404 1093 369 1093 q 458 1074 439 1093 q 478 1021 478 1054 q 458 965 478 985 q 404 944 439 944 m 647 944 q 592 965 611 944 q 572 1021 572 985 q 592 1073 572 1054 q 647 1092 613 1092 q 699 1073 681 1092 q 718 1021 718 1054 q 699 965 718 985 q 647 944 681 944 m 385 1121 q 376 1127 379 1121 q 378 1136 374 1133 q 469 1224 413 1164 q 526 1281 526 1281 q 577 1276 533 1288 q 656 1248 621 1264 q 676 1229 692 1232 q 388 1122 528 1190 l 385 1121 z "},"Ǚ":{"ha":1076,"x_min":36,"x_max":1025,"o":"m 1021 17 q 1025 8 1025 17 q 1021 0 1025 0 l 885 1 l 779 0 q 760 4 764 0 q 757 26 757 8 l 757 88 q 623 8 690 32 q 476 -17 556 -17 q 300 17 378 -17 q 178 113 222 50 q 133 258 133 175 l 133 756 q 126 816 133 796 q 99 844 118 836 q 40 851 79 851 q 36 860 36 851 q 40 868 36 868 l 108 867 q 207 864 167 864 q 307 867 243 864 l 376 868 q 383 860 382 868 q 379 851 383 851 q 317 843 338 851 q 291 815 297 835 q 283 753 285 796 l 283 307 q 347 106 282 178 q 529 35 413 35 q 643 56 589 35 q 757 128 697 78 l 756 753 q 739 832 757 813 q 664 851 721 851 q 660 860 660 851 q 663 868 660 868 l 732 867 q 832 864 793 864 q 931 867 867 864 l 1000 868 q 1006 860 1006 868 q 1003 851 1007 851 q 941 844 961 851 q 914 817 921 836 q 907 756 907 797 l 907 113 q 915 51 907 71 q 947 24 924 31 q 1021 17 971 17 m 399 944 q 343 965 364 944 q 322 1021 322 985 q 343 1074 322 1054 q 399 1093 364 1093 q 453 1074 433 1093 q 472 1021 472 1054 q 453 965 472 985 q 399 944 433 944 m 642 944 q 586 965 606 944 q 567 1021 567 985 q 587 1073 567 1054 q 642 1092 607 1092 q 694 1073 675 1092 q 713 1021 713 1054 q 694 965 713 985 q 642 944 675 944 m 375 1111 q 367 1115 372 1110 q 365 1121 363 1119 l 499 1282 q 511 1289 506 1289 q 525 1282 518 1289 l 668 1121 l 668 1119 q 665 1113 668 1115 q 660 1111 663 1110 l 518 1165 l 375 1111 z "},"Ǜ":{"ha":1076,"x_min":36,"x_max":1025,"o":"m 1021 17 q 1025 8 1025 17 q 1021 0 1025 0 l 885 1 l 779 0 q 760 4 764 0 q 757 26 757 8 l 757 88 q 623 8 690 32 q 476 -17 556 -17 q 300 17 378 -17 q 178 113 222 50 q 133 258 133 175 l 133 756 q 126 816 133 796 q 99 844 118 836 q 40 851 79 851 q 36 860 36 851 q 40 868 36 868 l 108 867 q 207 864 167 864 q 307 867 243 864 l 376 868 q 383 860 382 868 q 379 851 383 851 q 317 843 338 851 q 291 815 297 835 q 283 753 285 796 l 283 307 q 347 106 282 178 q 529 35 413 35 q 643 56 589 35 q 757 128 697 78 l 756 753 q 739 832 757 813 q 664 851 721 851 q 660 860 660 851 q 663 868 660 868 l 732 867 q 832 864 793 864 q 931 867 867 864 l 1000 868 q 1006 860 1006 868 q 1003 851 1007 851 q 941 844 961 851 q 914 817 921 836 q 907 756 907 797 l 907 113 q 915 51 907 71 q 947 24 924 31 q 1021 17 971 17 m 400 944 q 344 965 365 944 q 324 1021 324 985 q 344 1074 324 1054 q 400 1093 365 1093 q 454 1074 435 1093 q 474 1021 474 1054 q 454 965 474 985 q 400 944 435 944 m 643 944 q 588 965 607 944 q 568 1021 568 985 q 588 1073 568 1054 q 643 1092 608 1092 q 695 1073 676 1092 q 714 1021 714 1054 q 695 965 714 985 q 643 944 676 944 m 679 1115 q 543 1162 600 1144 q 396 1204 486 1179 q 403 1222 378 1208 q 468 1246 428 1235 q 531 1257 508 1257 q 543 1254 538 1257 q 638 1171 576 1222 l 689 1128 q 692 1122 692 1126 q 688 1116 692 1118 q 679 1115 683 1114 z "},"Ǖ":{"ha":1076,"x_min":36,"x_max":1025,"o":"m 1021 17 q 1025 8 1025 17 q 1021 0 1025 0 l 885 1 l 779 0 q 760 4 764 0 q 757 26 757 8 l 757 88 q 623 8 690 32 q 476 -17 556 -17 q 300 17 378 -17 q 178 113 222 50 q 133 258 133 175 l 133 756 q 126 816 133 796 q 99 844 118 836 q 40 851 79 851 q 36 860 36 851 q 40 868 36 868 l 108 867 q 207 864 167 864 q 307 867 243 864 l 376 868 q 383 860 382 868 q 379 851 383 851 q 317 843 338 851 q 291 815 297 835 q 283 753 285 796 l 283 307 q 347 106 282 178 q 529 35 413 35 q 643 56 589 35 q 757 128 697 78 l 756 753 q 739 832 757 813 q 664 851 721 851 q 660 860 660 851 q 663 868 660 868 l 732 867 q 832 864 793 864 q 931 867 867 864 l 1000 868 q 1006 860 1006 868 q 1003 851 1007 851 q 941 844 961 851 q 914 817 921 836 q 907 756 907 797 l 907 113 q 915 51 907 71 q 947 24 924 31 q 1021 17 971 17 m 386 944 q 331 965 351 944 q 310 1021 310 985 q 331 1074 310 1054 q 386 1093 351 1093 q 440 1074 421 1093 q 460 1021 460 1054 q 440 965 460 985 q 386 944 421 944 m 629 944 q 574 965 593 944 q 554 1021 554 985 q 574 1073 554 1054 q 629 1092 594 1092 q 681 1073 663 1092 q 700 1021 700 1054 q 681 965 700 985 q 629 944 663 944 m 342 1151 q 332 1160 336 1151 q 328 1179 328 1168 q 332 1199 328 1190 q 342 1207 336 1207 l 658 1207 q 669 1199 665 1207 q 674 1179 674 1190 q 669 1160 674 1168 q 658 1151 665 1151 l 342 1151 z "},"Ụ":{"ha":1076,"x_min":36,"x_max":1025,"o":"m 1021 17 q 1025 8 1025 17 q 1021 0 1025 0 l 885 1 l 779 0 q 760 4 764 0 q 757 26 757 8 l 757 88 q 623 8 690 32 q 476 -17 556 -17 q 300 17 378 -17 q 178 113 222 50 q 133 258 133 175 l 133 756 q 126 816 133 796 q 99 844 118 836 q 40 851 79 851 q 36 860 36 851 q 40 868 36 868 l 108 867 q 207 864 167 864 q 307 867 243 864 l 376 868 q 383 860 382 868 q 379 851 383 851 q 317 843 338 851 q 291 815 297 835 q 283 753 285 796 l 283 307 q 347 106 282 178 q 529 35 413 35 q 643 56 589 35 q 757 128 697 78 l 756 753 q 739 832 757 813 q 664 851 721 851 q 660 860 660 851 q 663 868 660 868 l 732 867 q 832 864 793 864 q 931 867 867 864 l 1000 868 q 1006 860 1006 868 q 1003 851 1007 851 q 941 844 961 851 q 914 817 921 836 q 907 756 907 797 l 907 113 q 915 51 907 71 q 947 24 924 31 q 1021 17 971 17 m 540 -287 q 478 -265 500 -287 q 456 -203 456 -243 q 478 -145 456 -167 q 540 -124 501 -124 q 599 -145 578 -124 q 621 -203 621 -167 q 600 -265 621 -243 q 540 -287 579 -287 z "},"Ù":{"ha":1076,"x_min":36,"x_max":1025,"o":"m 1021 17 q 1025 8 1025 17 q 1021 0 1025 0 l 885 1 l 779 0 q 760 4 764 0 q 757 26 757 8 l 757 88 q 623 8 690 32 q 476 -17 556 -17 q 300 17 378 -17 q 178 113 222 50 q 133 258 133 175 l 133 756 q 126 816 133 796 q 99 844 118 836 q 40 851 79 851 q 36 860 36 851 q 40 868 36 868 l 108 867 q 207 864 167 864 q 307 867 243 864 l 376 868 q 383 860 382 868 q 379 851 383 851 q 317 843 338 851 q 291 815 297 835 q 283 753 285 796 l 283 307 q 347 106 282 178 q 529 35 413 35 q 643 56 589 35 q 757 128 697 78 l 756 753 q 739 832 757 813 q 664 851 721 851 q 660 860 660 851 q 663 868 660 868 l 732 867 q 832 864 793 864 q 931 867 867 864 l 1000 868 q 1006 860 1006 868 q 1003 851 1007 851 q 941 844 961 851 q 914 817 921 836 q 907 756 907 797 l 907 113 q 915 51 907 71 q 947 24 924 31 q 1021 17 971 17 m 663 961 q 526 1008 583 990 q 379 1050 469 1025 q 386 1067 361 1054 q 451 1092 411 1081 q 514 1103 492 1103 q 526 1100 521 1103 q 621 1017 560 1068 l 672 974 q 675 968 675 972 q 671 962 675 964 q 663 961 667 960 z "},"Ủ":{"ha":1076,"x_min":36,"x_max":1025,"o":"m 1021 17 q 1025 8 1025 17 q 1021 0 1025 0 l 885 1 l 779 0 q 760 4 764 0 q 757 26 757 8 l 757 88 q 623 8 690 32 q 476 -17 556 -17 q 300 17 378 -17 q 178 113 222 50 q 133 258 133 175 l 133 756 q 126 816 133 796 q 99 844 118 836 q 40 851 79 851 q 36 860 36 851 q 40 868 36 868 l 108 867 q 207 864 167 864 q 307 867 243 864 l 376 868 q 383 860 382 868 q 379 851 383 851 q 317 843 338 851 q 291 815 297 835 q 283 753 285 796 l 283 307 q 347 106 282 178 q 529 35 413 35 q 643 56 589 35 q 757 128 697 78 l 756 753 q 739 832 757 813 q 664 851 721 851 q 660 860 660 851 q 663 868 660 868 l 732 867 q 832 864 793 864 q 931 867 867 864 l 1000 868 q 1006 860 1006 868 q 1003 851 1007 851 q 941 844 961 851 q 914 817 921 836 q 907 756 907 797 l 907 113 q 915 51 907 71 q 947 24 924 31 q 1021 17 971 17 m 525 907 q 518 903 525 904 q 510 907 511 903 q 499 968 499 936 q 506 1022 499 981 q 513 1075 513 1050 q 511 1099 513 1090 q 494 1135 506 1124 q 464 1147 483 1147 q 415 1133 440 1147 l 413 1133 q 404 1138 408 1133 q 404 1146 400 1142 q 452 1174 424 1164 q 511 1185 481 1185 q 585 1165 556 1185 q 619 1111 614 1146 q 621 1097 621 1107 q 608 1049 621 1072 q 568 997 594 1026 q 532 946 543 965 q 525 907 521 926 z "},"Ư":{"ha":1076,"x_min":36,"x_max":1124,"o":"m 958 846 q 917 818 926 835 q 907 756 907 801 l 907 113 q 915 51 907 71 q 947 24 924 31 q 1021 17 971 17 q 1025 8 1025 17 q 1021 0 1025 0 l 885 1 l 779 0 q 760 4 764 0 q 757 26 757 8 l 757 88 q 623 8 690 32 q 476 -17 556 -17 q 300 17 378 -17 q 178 113 222 50 q 133 258 133 175 l 133 756 q 126 816 133 796 q 99 844 118 836 q 40 851 79 851 q 36 860 36 851 q 40 868 36 868 l 108 867 q 207 864 167 864 q 307 867 243 864 l 376 868 q 383 860 382 868 q 379 851 383 851 q 317 843 338 851 q 291 815 297 835 q 283 753 285 796 l 283 307 q 347 106 282 178 q 529 35 413 35 q 643 56 589 35 q 757 128 697 78 l 756 753 q 749 815 756 794 q 722 843 742 835 q 658 851 701 851 q 656 857 656 851 q 657 864 656 861 q 660 868 658 867 l 733 867 q 831 864 794 864 q 973 876 929 864 q 1017 917 1017 888 q 1013 935 1017 926 q 1003 951 1008 943 q 989 977 993 967 q 985 1003 985 988 q 1004 1049 985 1033 q 1051 1064 1024 1064 q 1104 1042 1085 1064 q 1124 983 1124 1019 q 1102 919 1124 944 q 1048 880 1081 894 q 958 846 1015 865 z "},"Ứ":{"ha":1076,"x_min":36,"x_max":1124,"o":"m 958 846 q 917 818 926 835 q 907 756 907 801 l 907 113 q 915 51 907 71 q 947 24 924 31 q 1021 17 971 17 q 1025 8 1025 17 q 1021 0 1025 0 l 885 1 l 779 0 q 760 4 764 0 q 757 26 757 8 l 757 88 q 623 8 690 32 q 476 -17 556 -17 q 300 17 378 -17 q 178 113 222 50 q 133 258 133 175 l 133 756 q 126 816 133 796 q 99 844 118 836 q 40 851 79 851 q 36 860 36 851 q 40 868 36 868 l 108 867 q 207 864 167 864 q 307 867 243 864 l 376 868 q 383 860 382 868 q 379 851 383 851 q 317 843 338 851 q 291 815 297 835 q 283 753 285 796 l 283 307 q 347 106 282 178 q 529 35 413 35 q 643 56 589 35 q 757 128 697 78 l 756 753 q 749 815 756 794 q 722 843 742 835 q 658 851 701 851 q 656 857 656 851 q 657 864 656 861 q 660 868 658 867 l 733 867 q 831 864 794 864 q 973 876 929 864 q 1017 917 1017 888 q 1013 935 1017 926 q 1003 951 1008 943 q 989 977 993 967 q 985 1003 985 988 q 1004 1049 985 1033 q 1051 1064 1024 1064 q 1104 1042 1085 1064 q 1124 983 1124 1019 q 1102 919 1124 944 q 1048 880 1081 894 q 958 846 1015 865 m 422 942 q 413 948 417 942 q 414 957 410 954 q 507 1044 442 979 q 564 1101 535 1074 q 614 1095 569 1107 q 694 1068 658 1083 q 713 1050 729 1053 q 424 942 553 1007 l 422 942 z "},"Ự":{"ha":1076,"x_min":36,"x_max":1124,"o":"m 958 846 q 917 818 926 835 q 907 756 907 801 l 907 113 q 915 51 907 71 q 947 24 924 31 q 1021 17 971 17 q 1025 8 1025 17 q 1021 0 1025 0 l 885 1 l 779 0 q 760 4 764 0 q 757 26 757 8 l 757 88 q 623 8 690 32 q 476 -17 556 -17 q 300 17 378 -17 q 178 113 222 50 q 133 258 133 175 l 133 756 q 126 816 133 796 q 99 844 118 836 q 40 851 79 851 q 36 860 36 851 q 40 868 36 868 l 108 867 q 207 864 167 864 q 307 867 243 864 l 376 868 q 383 860 382 868 q 379 851 383 851 q 317 843 338 851 q 291 815 297 835 q 283 753 285 796 l 283 307 q 347 106 282 178 q 529 35 413 35 q 643 56 589 35 q 757 128 697 78 l 756 753 q 749 815 756 794 q 722 843 742 835 q 658 851 701 851 q 656 857 656 851 q 657 864 656 861 q 660 868 658 867 l 733 867 q 831 864 794 864 q 973 876 929 864 q 1017 917 1017 888 q 1013 935 1017 926 q 1003 951 1008 943 q 989 977 993 967 q 985 1003 985 988 q 1004 1049 985 1033 q 1051 1064 1024 1064 q 1104 1042 1085 1064 q 1124 983 1124 1019 q 1102 919 1124 944 q 1048 880 1081 894 q 958 846 1015 865 m 542 -287 q 479 -265 501 -287 q 457 -203 457 -243 q 480 -145 457 -167 q 542 -124 503 -124 q 601 -145 579 -124 q 622 -203 622 -167 q 601 -265 622 -243 q 542 -287 581 -287 z "},"Ừ":{"ha":1076,"x_min":36,"x_max":1124,"o":"m 958 846 q 917 818 926 835 q 907 756 907 801 l 907 113 q 915 51 907 71 q 947 24 924 31 q 1021 17 971 17 q 1025 8 1025 17 q 1021 0 1025 0 l 885 1 l 779 0 q 760 4 764 0 q 757 26 757 8 l 757 88 q 623 8 690 32 q 476 -17 556 -17 q 300 17 378 -17 q 178 113 222 50 q 133 258 133 175 l 133 756 q 126 816 133 796 q 99 844 118 836 q 40 851 79 851 q 36 860 36 851 q 40 868 36 868 l 108 867 q 207 864 167 864 q 307 867 243 864 l 376 868 q 383 860 382 868 q 379 851 383 851 q 317 843 338 851 q 291 815 297 835 q 283 753 285 796 l 283 307 q 347 106 282 178 q 529 35 413 35 q 643 56 589 35 q 757 128 697 78 l 756 753 q 749 815 756 794 q 722 843 742 835 q 658 851 701 851 q 656 857 656 851 q 657 864 656 861 q 660 868 658 867 l 733 867 q 831 864 794 864 q 973 876 929 864 q 1017 917 1017 888 q 1013 935 1017 926 q 1003 951 1008 943 q 989 977 993 967 q 985 1003 985 988 q 1004 1049 985 1033 q 1051 1064 1024 1064 q 1104 1042 1085 1064 q 1124 983 1124 1019 q 1102 919 1124 944 q 1048 880 1081 894 q 958 846 1015 865 m 665 943 q 503 1003 579 978 q 336 1050 426 1029 q 349 1069 318 1053 q 419 1097 379 1085 q 469 1101 460 1108 l 539 1050 q 668 957 624 986 q 672 948 674 956 q 665 943 671 940 z "},"Ử":{"ha":1076,"x_min":36,"x_max":1124,"o":"m 958 846 q 917 818 926 835 q 907 756 907 801 l 907 113 q 915 51 907 71 q 947 24 924 31 q 1021 17 971 17 q 1025 8 1025 17 q 1021 0 1025 0 l 885 1 l 779 0 q 760 4 764 0 q 757 26 757 8 l 757 88 q 623 8 690 32 q 476 -17 556 -17 q 300 17 378 -17 q 178 113 222 50 q 133 258 133 175 l 133 756 q 126 816 133 796 q 99 844 118 836 q 40 851 79 851 q 36 860 36 851 q 40 868 36 868 l 108 867 q 207 864 167 864 q 307 867 243 864 l 376 868 q 383 860 382 868 q 379 851 383 851 q 317 843 338 851 q 291 815 297 835 q 283 753 285 796 l 283 307 q 347 106 282 178 q 529 35 413 35 q 643 56 589 35 q 757 128 697 78 l 756 753 q 749 815 756 794 q 722 843 742 835 q 658 851 701 851 q 656 857 656 851 q 657 864 656 861 q 660 868 658 867 l 733 867 q 831 864 794 864 q 973 876 929 864 q 1017 917 1017 888 q 1013 935 1017 926 q 1003 951 1008 943 q 989 977 993 967 q 985 1003 985 988 q 1004 1049 985 1033 q 1051 1064 1024 1064 q 1104 1042 1085 1064 q 1124 983 1124 1019 q 1102 919 1124 944 q 1048 880 1081 894 q 958 846 1015 865 m 544 907 q 538 903 544 904 q 529 907 531 903 q 518 968 518 936 q 525 1022 518 981 q 532 1075 532 1050 q 531 1099 532 1090 q 514 1135 525 1124 q 483 1147 503 1147 q 435 1133 460 1147 l 432 1133 q 424 1138 428 1133 q 424 1146 419 1142 q 472 1174 443 1164 q 531 1185 500 1185 q 604 1165 575 1185 q 639 1111 633 1146 q 640 1097 640 1107 q 627 1049 640 1072 q 588 997 614 1026 q 551 946 563 965 q 544 907 540 926 z "},"Ữ":{"ha":1076,"x_min":36,"x_max":1124,"o":"m 958 846 q 917 818 926 835 q 907 756 907 801 l 907 113 q 915 51 907 71 q 947 24 924 31 q 1021 17 971 17 q 1025 8 1025 17 q 1021 0 1025 0 l 885 1 l 779 0 q 760 4 764 0 q 757 26 757 8 l 757 88 q 623 8 690 32 q 476 -17 556 -17 q 300 17 378 -17 q 178 113 222 50 q 133 258 133 175 l 133 756 q 126 816 133 796 q 99 844 118 836 q 40 851 79 851 q 36 860 36 851 q 40 868 36 868 l 108 867 q 207 864 167 864 q 307 867 243 864 l 376 868 q 383 860 382 868 q 379 851 383 851 q 317 843 338 851 q 291 815 297 835 q 283 753 285 796 l 283 307 q 347 106 282 178 q 529 35 413 35 q 643 56 589 35 q 757 128 697 78 l 756 753 q 749 815 756 794 q 722 843 742 835 q 658 851 701 851 q 656 857 656 851 q 657 864 656 861 q 660 868 658 867 l 733 867 q 831 864 794 864 q 973 876 929 864 q 1017 917 1017 888 q 1013 935 1017 926 q 1003 951 1008 943 q 989 977 993 967 q 985 1003 985 988 q 1004 1049 985 1033 q 1051 1064 1024 1064 q 1104 1042 1085 1064 q 1124 983 1124 1019 q 1102 919 1124 944 q 1048 880 1081 894 q 958 846 1015 865 m 356 985 q 349 988 353 985 q 346 994 344 992 q 396 1075 369 1043 q 464 1107 422 1107 q 501 1101 478 1107 q 532 1093 525 1094 q 638 1072 603 1072 q 684 1081 667 1072 q 719 1110 701 1089 q 720 1111 719 1111 q 721 1111 721 1111 q 728 1107 724 1111 q 731 1100 732 1103 q 678 1011 701 1033 q 618 989 654 989 q 538 1004 592 989 q 486 1017 513 1011 q 438 1022 460 1022 q 392 1015 404 1022 q 357 985 379 1008 l 356 985 z "},"Ű":{"ha":1076,"x_min":36,"x_max":1025,"o":"m 1021 17 q 1025 8 1025 17 q 1021 0 1025 0 l 885 1 l 779 0 q 760 4 764 0 q 757 26 757 8 l 757 88 q 623 8 690 32 q 476 -17 556 -17 q 300 17 378 -17 q 178 113 222 50 q 133 258 133 175 l 133 756 q 126 816 133 796 q 99 844 118 836 q 40 851 79 851 q 36 860 36 851 q 40 868 36 868 l 108 867 q 207 864 167 864 q 307 867 243 864 l 376 868 q 383 860 382 868 q 379 851 383 851 q 317 843 338 851 q 291 815 297 835 q 283 753 285 796 l 283 307 q 347 106 282 178 q 529 35 413 35 q 643 56 589 35 q 757 128 697 78 l 756 753 q 739 832 757 813 q 664 851 721 851 q 660 860 660 851 q 663 868 660 868 l 732 867 q 832 864 793 864 q 931 867 867 864 l 1000 868 q 1006 860 1006 868 q 1003 851 1007 851 q 941 844 961 851 q 914 817 921 836 q 907 756 907 797 l 907 113 q 915 51 907 71 q 947 24 924 31 q 1021 17 971 17 m 363 925 q 358 931 360 925 q 360 940 357 938 l 406 993 q 500 1110 475 1075 q 515 1114 503 1114 q 568 1105 535 1114 q 621 1084 601 1096 q 626 1065 640 1072 q 547 1026 600 1051 q 452 978 500 1004 q 365 926 404 953 l 363 925 m 558 925 q 552 931 554 925 q 554 940 550 938 q 696 1110 644 1038 q 710 1114 699 1114 q 762 1104 729 1114 q 814 1083 794 1094 q 821 1065 833 1072 q 561 926 676 1000 l 558 925 z "},"Ū":{"ha":1076,"x_min":36,"x_max":1025,"o":"m 1021 17 q 1025 8 1025 17 q 1021 0 1025 0 l 885 1 l 779 0 q 760 4 764 0 q 757 26 757 8 l 757 88 q 623 8 690 32 q 476 -17 556 -17 q 300 17 378 -17 q 178 113 222 50 q 133 258 133 175 l 133 756 q 126 816 133 796 q 99 844 118 836 q 40 851 79 851 q 36 860 36 851 q 40 868 36 868 l 108 867 q 207 864 167 864 q 307 867 243 864 l 376 868 q 383 860 382 868 q 379 851 383 851 q 317 843 338 851 q 291 815 297 835 q 283 753 285 796 l 283 307 q 347 106 282 178 q 529 35 413 35 q 643 56 589 35 q 757 128 697 78 l 756 753 q 739 832 757 813 q 664 851 721 851 q 660 860 660 851 q 663 868 660 868 l 732 867 q 832 864 793 864 q 931 867 867 864 l 1000 868 q 1006 860 1006 868 q 1003 851 1007 851 q 941 844 961 851 q 914 817 921 836 q 907 756 907 797 l 907 113 q 915 51 907 71 q 947 24 924 31 q 1021 17 971 17 m 356 989 q 346 997 350 989 q 342 1017 342 1006 q 346 1036 342 1028 q 356 1044 350 1044 l 672 1044 q 683 1036 679 1044 q 688 1017 688 1028 q 683 997 688 1006 q 672 989 679 989 l 356 989 z "},"Ų":{"ha":1076,"x_min":36,"x_max":1025,"o":"m 1021 17 q 1025 8 1025 17 q 1021 0 1025 0 l 885 1 l 782 0 q 731 -98 749 -53 q 714 -192 713 -143 q 738 -284 714 -246 q 804 -322 763 -322 q 838 -315 822 -322 q 864 -294 854 -307 l 867 -293 q 874 -299 871 -293 q 875 -307 878 -304 q 812 -365 843 -347 q 742 -382 781 -382 q 638 -341 678 -382 q 599 -239 599 -300 q 639 -123 599 -179 q 760 7 679 -67 q 757 26 757 11 l 757 88 q 623 8 690 32 q 476 -17 556 -17 q 300 17 378 -17 q 178 113 222 50 q 133 258 133 175 l 133 756 q 126 816 133 796 q 99 844 118 836 q 40 851 79 851 q 36 860 36 851 q 40 868 36 868 l 108 867 q 207 864 167 864 q 307 867 243 864 l 376 868 q 383 860 382 868 q 379 851 383 851 q 317 843 338 851 q 291 815 297 835 q 283 753 285 796 l 283 307 q 347 106 282 178 q 529 35 413 35 q 643 56 589 35 q 757 128 697 78 l 756 753 q 739 832 757 813 q 664 851 721 851 q 660 860 660 851 q 663 868 660 868 l 732 867 q 832 864 793 864 q 931 867 867 864 l 1000 868 q 1006 860 1006 868 q 1003 851 1007 851 q 941 844 961 851 q 914 817 921 836 q 907 756 907 797 l 907 113 q 915 51 907 71 q 947 24 924 31 q 1021 17 971 17 z "},"Ů":{"ha":1076,"x_min":36,"x_max":1025,"o":"m 1021 17 q 1025 8 1025 17 q 1021 0 1025 0 l 885 1 l 779 0 q 760 4 764 0 q 757 26 757 8 l 757 88 q 623 8 690 32 q 476 -17 556 -17 q 300 17 378 -17 q 178 113 222 50 q 133 258 133 175 l 133 756 q 126 816 133 796 q 99 844 118 836 q 40 851 79 851 q 36 860 36 851 q 40 868 36 868 l 108 867 q 207 864 167 864 q 307 867 243 864 l 376 868 q 383 860 382 868 q 379 851 383 851 q 317 843 338 851 q 291 815 297 835 q 283 753 285 796 l 283 307 q 347 106 282 178 q 529 35 413 35 q 643 56 589 35 q 757 128 697 78 l 756 753 q 739 832 757 813 q 664 851 721 851 q 660 860 660 851 q 663 868 660 868 l 732 867 q 832 864 793 864 q 931 867 867 864 l 1000 868 q 1006 860 1006 868 q 1003 851 1007 851 q 941 844 961 851 q 914 817 921 836 q 907 756 907 797 l 907 113 q 915 51 907 71 q 947 24 924 31 q 1021 17 971 17 m 508 917 q 401 949 440 917 q 361 1026 361 981 q 410 1105 361 1076 q 522 1133 460 1133 q 626 1101 583 1133 q 669 1024 669 1069 q 620 946 669 975 q 508 917 571 917 m 531 936 q 558 951 549 936 q 567 999 567 967 q 546 1080 567 1046 q 494 1114 525 1114 q 469 1099 476 1114 q 461 1054 461 1085 q 480 972 461 1008 q 531 936 499 936 z "},"Ũ":{"ha":1076,"x_min":36,"x_max":1025,"o":"m 1021 17 q 1025 8 1025 17 q 1021 0 1025 0 l 885 1 l 779 0 q 760 4 764 0 q 757 26 757 8 l 757 88 q 623 8 690 32 q 476 -17 556 -17 q 300 17 378 -17 q 178 113 222 50 q 133 258 133 175 l 133 756 q 126 816 133 796 q 99 844 118 836 q 40 851 79 851 q 36 860 36 851 q 40 868 36 868 l 108 867 q 207 864 167 864 q 307 867 243 864 l 376 868 q 383 860 382 868 q 379 851 383 851 q 317 843 338 851 q 291 815 297 835 q 283 753 285 796 l 283 307 q 347 106 282 178 q 529 35 413 35 q 643 56 589 35 q 757 128 697 78 l 756 753 q 739 832 757 813 q 664 851 721 851 q 660 860 660 851 q 663 868 660 868 l 732 867 q 832 864 793 864 q 931 867 867 864 l 1000 868 q 1006 860 1006 868 q 1003 851 1007 851 q 941 844 961 851 q 914 817 921 836 q 907 756 907 797 l 907 113 q 915 51 907 71 q 947 24 924 31 q 1021 17 971 17 m 350 953 q 347 951 350 951 q 341 956 344 951 q 339 963 338 960 q 457 1075 389 1075 q 524 1061 471 1075 q 578 1047 550 1053 q 629 1040 607 1040 q 676 1049 658 1040 q 711 1078 693 1057 l 713 1078 q 720 1074 717 1078 q 722 1068 724 1071 q 669 978 693 1001 q 610 956 646 956 q 529 972 588 956 q 479 985 506 979 q 432 990 453 990 q 384 983 397 990 q 350 953 371 975 z "},"V":{"ha":899,"x_min":-19,"x_max":917,"o":"m 910 868 q 917 860 917 868 q 910 851 917 851 q 820 822 858 851 q 749 703 782 793 l 485 1 q 464 -6 481 -6 q 450 -3 457 -6 q 442 1 443 -1 l 96 753 q 47 830 71 808 q -15 851 24 851 q -19 860 -19 851 q -17 868 -19 868 l 57 867 q 131 864 107 864 q 250 867 183 864 l 318 868 q 325 860 325 868 q 318 851 325 851 q 240 808 240 851 q 251 767 240 793 l 513 193 l 700 707 q 711 760 711 738 q 679 827 711 803 q 594 851 647 851 q 589 860 589 851 q 594 868 589 868 l 665 867 q 776 864 726 864 q 846 867 804 864 l 910 868 z "},"W":{"ha":1256,"x_min":-19,"x_max":1274,"o":"m 1267 868 q 1274 860 1274 868 q 1267 851 1274 851 q 1178 822 1215 851 q 1106 703 1140 793 l 842 1 q 822 -6 838 -6 q 799 1 803 -6 l 625 378 l 485 1 q 464 -6 481 -6 q 450 -3 457 -6 q 442 1 443 -1 l 96 753 q 47 830 71 808 q -15 851 24 851 q -19 860 -19 851 q -17 868 -19 868 l 57 867 q 131 864 107 864 q 226 867 174 864 l 283 868 q 289 860 289 868 q 283 851 289 851 q 235 811 235 851 q 246 767 235 790 l 511 188 l 601 431 l 453 753 q 409 831 428 810 q 361 851 390 851 q 356 860 357 851 q 358 868 356 868 q 424 865 379 868 l 488 864 q 561 867 522 864 l 604 868 q 611 860 611 868 q 604 851 611 851 q 585 848 590 851 q 579 836 579 844 q 603 767 579 818 l 683 590 l 726 707 q 749 799 749 769 q 692 851 749 851 q 689 860 689 851 q 692 868 689 868 l 735 867 q 803 864 771 864 q 861 867 828 864 l 913 868 q 919 860 918 868 q 914 851 919 851 q 864 841 885 851 q 822 798 843 831 q 776 703 800 765 l 711 531 l 868 188 l 1057 707 q 1068 764 1068 738 q 1045 827 1068 803 q 981 851 1022 851 q 978 860 978 851 q 981 868 978 868 l 1042 867 q 1133 864 1092 864 q 1203 867 1161 864 l 1267 868 z "},"Ẃ":{"ha":1256,"x_min":-19,"x_max":1274,"o":"m 1267 868 q 1274 860 1274 868 q 1267 851 1274 851 q 1178 822 1215 851 q 1106 703 1140 793 l 842 1 q 822 -6 838 -6 q 799 1 803 -6 l 625 378 l 485 1 q 464 -6 481 -6 q 450 -3 457 -6 q 442 1 443 -1 l 96 753 q 47 830 71 808 q -15 851 24 851 q -19 860 -19 851 q -17 868 -19 868 l 57 867 q 131 864 107 864 q 226 867 174 864 l 283 868 q 289 860 289 868 q 283 851 289 851 q 235 811 235 851 q 246 767 235 790 l 511 188 l 601 431 l 453 753 q 409 831 428 810 q 361 851 390 851 q 356 860 357 851 q 358 868 356 868 q 424 865 379 868 l 488 864 q 561 867 522 864 l 604 868 q 611 860 611 868 q 604 851 611 851 q 585 848 590 851 q 579 836 579 844 q 603 767 579 818 l 683 590 l 726 707 q 749 799 749 769 q 692 851 749 851 q 689 860 689 851 q 692 868 689 868 l 735 867 q 803 864 771 864 q 861 867 828 864 l 913 868 q 919 860 918 868 q 914 851 919 851 q 864 841 885 851 q 822 798 843 831 q 776 703 800 765 l 711 531 l 868 188 l 1057 707 q 1068 764 1068 738 q 1045 827 1068 803 q 981 851 1022 851 q 978 860 978 851 q 981 868 978 868 l 1042 867 q 1133 864 1092 864 q 1203 867 1161 864 l 1267 868 m 536 942 q 528 948 531 942 q 529 957 525 954 q 621 1044 564 985 q 678 1101 678 1101 q 728 1097 685 1108 q 808 1069 772 1085 q 828 1050 843 1053 q 539 943 679 1011 l 536 942 z "},"Ŵ":{"ha":1256,"x_min":-19,"x_max":1274,"o":"m 1267 868 q 1274 860 1274 868 q 1267 851 1274 851 q 1178 822 1215 851 q 1106 703 1140 793 l 842 1 q 822 -6 838 -6 q 799 1 803 -6 l 625 378 l 485 1 q 464 -6 481 -6 q 450 -3 457 -6 q 442 1 443 -1 l 96 753 q 47 830 71 808 q -15 851 24 851 q -19 860 -19 851 q -17 868 -19 868 l 57 867 q 131 864 107 864 q 226 867 174 864 l 283 868 q 289 860 289 868 q 283 851 289 851 q 235 811 235 851 q 246 767 235 790 l 511 188 l 601 431 l 453 753 q 409 831 428 810 q 361 851 390 851 q 356 860 357 851 q 358 868 356 868 q 424 865 379 868 l 488 864 q 561 867 522 864 l 604 868 q 611 860 611 868 q 604 851 611 851 q 585 848 590 851 q 579 836 579 844 q 603 767 579 818 l 683 590 l 726 707 q 749 799 749 769 q 692 851 749 851 q 689 860 689 851 q 692 868 689 868 l 735 867 q 803 864 771 864 q 861 867 828 864 l 913 868 q 919 860 918 868 q 914 851 919 851 q 864 841 885 851 q 822 798 843 831 q 776 703 800 765 l 711 531 l 868 188 l 1057 707 q 1068 764 1068 738 q 1045 827 1068 803 q 981 851 1022 851 q 978 860 978 851 q 981 868 978 868 l 1042 867 q 1133 864 1092 864 q 1203 867 1161 864 l 1267 868 m 481 917 q 473 920 476 917 q 472 926 469 924 l 604 1086 q 615 1093 608 1093 q 629 1086 622 1093 l 774 926 q 773 919 776 924 q 767 917 769 914 l 625 969 l 482 917 l 481 917 z "},"Ẅ":{"ha":1256,"x_min":-19,"x_max":1274,"o":"m 1267 868 q 1274 860 1274 868 q 1267 851 1274 851 q 1178 822 1215 851 q 1106 703 1140 793 l 842 1 q 822 -6 838 -6 q 799 1 803 -6 l 625 378 l 485 1 q 464 -6 481 -6 q 450 -3 457 -6 q 442 1 443 -1 l 96 753 q 47 830 71 808 q -15 851 24 851 q -19 860 -19 851 q -17 868 -19 868 l 57 867 q 131 864 107 864 q 226 867 174 864 l 283 868 q 289 860 289 868 q 283 851 289 851 q 235 811 235 851 q 246 767 235 790 l 511 188 l 601 431 l 453 753 q 409 831 428 810 q 361 851 390 851 q 356 860 357 851 q 358 868 356 868 q 424 865 379 868 l 488 864 q 561 867 522 864 l 604 868 q 611 860 611 868 q 604 851 611 851 q 585 848 590 851 q 579 836 579 844 q 603 767 579 818 l 683 590 l 726 707 q 749 799 749 769 q 692 851 749 851 q 689 860 689 851 q 692 868 689 868 l 735 867 q 803 864 771 864 q 861 867 828 864 l 913 868 q 919 860 918 868 q 914 851 919 851 q 864 841 885 851 q 822 798 843 831 q 776 703 800 765 l 711 531 l 868 188 l 1057 707 q 1068 764 1068 738 q 1045 827 1068 803 q 981 851 1022 851 q 978 860 978 851 q 981 868 978 868 l 1042 867 q 1133 864 1092 864 q 1203 867 1161 864 l 1267 868 m 499 976 q 443 997 464 976 q 422 1053 422 1017 q 443 1106 422 1086 q 499 1125 464 1125 q 553 1106 533 1125 q 572 1053 572 1086 q 553 997 572 1017 q 499 976 533 976 m 742 976 q 686 997 706 976 q 667 1053 667 1017 q 687 1105 667 1086 q 742 1124 707 1124 q 794 1105 775 1124 q 813 1053 813 1086 q 794 997 813 1017 q 742 976 775 976 z "},"Ẁ":{"ha":1256,"x_min":-19,"x_max":1274,"o":"m 1267 868 q 1274 860 1274 868 q 1267 851 1274 851 q 1178 822 1215 851 q 1106 703 1140 793 l 842 1 q 822 -6 838 -6 q 799 1 803 -6 l 625 378 l 485 1 q 464 -6 481 -6 q 450 -3 457 -6 q 442 1 443 -1 l 96 753 q 47 830 71 808 q -15 851 24 851 q -19 860 -19 851 q -17 868 -19 868 l 57 867 q 131 864 107 864 q 226 867 174 864 l 283 868 q 289 860 289 868 q 283 851 289 851 q 235 811 235 851 q 246 767 235 790 l 511 188 l 601 431 l 453 753 q 409 831 428 810 q 361 851 390 851 q 356 860 357 851 q 358 868 356 868 q 424 865 379 868 l 488 864 q 561 867 522 864 l 604 868 q 611 860 611 868 q 604 851 611 851 q 585 848 590 851 q 579 836 579 844 q 603 767 579 818 l 683 590 l 726 707 q 749 799 749 769 q 692 851 749 851 q 689 860 689 851 q 692 868 689 868 l 735 867 q 803 864 771 864 q 861 867 828 864 l 913 868 q 919 860 918 868 q 914 851 919 851 q 864 841 885 851 q 822 798 843 831 q 776 703 800 765 l 711 531 l 868 188 l 1057 707 q 1068 764 1068 738 q 1045 827 1068 803 q 981 851 1022 851 q 978 860 978 851 q 981 868 978 868 l 1042 867 q 1133 864 1092 864 q 1203 867 1161 864 l 1267 868 m 764 961 q 628 1008 685 990 q 481 1050 571 1025 q 488 1067 463 1054 q 553 1092 513 1081 q 615 1103 593 1103 q 628 1100 622 1103 q 722 1017 661 1068 l 774 974 q 776 968 776 972 q 772 962 776 964 q 764 961 768 960 z "},"X":{"ha":871,"x_min":-15,"x_max":868,"o":"m 863 17 q 868 8 868 17 q 863 0 868 0 q 801 1 824 0 l 719 3 l 597 1 q 519 0 567 0 q 513 8 513 0 q 519 17 513 17 q 564 26 543 17 q 585 51 585 35 q 578 71 585 60 l 392 374 l 240 143 q 211 71 211 97 q 308 17 211 17 q 314 8 314 17 q 308 0 314 0 q 228 1 260 0 l 111 3 l 49 1 q -8 0 29 0 q -15 8 -15 0 q -8 17 -15 17 q 96 55 40 17 q 204 171 151 93 l 368 414 l 160 753 q 99 828 128 806 q 31 851 69 851 q 26 860 26 851 q 31 868 26 868 l 88 867 q 143 864 124 864 q 265 867 190 864 l 338 868 q 344 860 344 868 q 338 851 344 851 q 305 843 318 851 q 292 819 292 835 q 299 796 292 807 l 463 531 l 588 725 q 617 797 617 768 q 521 851 617 851 q 515 860 515 851 q 519 868 515 868 l 600 867 q 719 864 678 864 q 781 867 739 864 l 836 868 q 843 860 843 868 q 836 851 843 851 q 734 813 789 851 q 624 697 679 775 l 486 490 l 718 115 q 782 39 750 61 q 863 17 814 17 z "},"Y":{"ha":801,"x_min":-19,"x_max":810,"o":"m 803 868 q 810 860 810 868 q 803 851 810 851 q 710 815 754 851 q 624 700 667 778 l 485 436 l 485 113 q 492 50 485 69 q 522 24 500 31 q 594 17 544 17 q 600 8 600 17 q 594 0 600 0 q 519 1 546 0 l 410 3 l 294 1 q 219 0 267 0 q 214 8 214 0 q 219 17 214 17 q 293 24 269 17 q 326 51 317 32 q 333 113 335 71 l 332 417 l 111 753 q 48 828 78 804 q -12 851 18 851 q -19 860 -18 851 q -15 868 -19 868 l 57 867 q 135 864 110 864 q 239 867 169 864 l 310 868 q 314 863 314 868 q 312 855 314 858 q 307 851 310 851 q 255 846 271 851 q 239 828 239 840 q 253 796 239 815 l 461 476 l 592 731 q 604 781 604 758 q 583 832 604 813 q 521 851 561 851 q 515 860 515 851 q 519 868 515 868 l 594 867 q 701 864 664 864 q 756 867 725 864 l 803 868 z "},"Ý":{"ha":801,"x_min":-19,"x_max":810,"o":"m 803 868 q 810 860 810 868 q 803 851 810 851 q 710 815 754 851 q 624 700 667 778 l 485 436 l 485 113 q 492 50 485 69 q 522 24 500 31 q 594 17 544 17 q 600 8 600 17 q 594 0 600 0 q 519 1 546 0 l 410 3 l 294 1 q 219 0 267 0 q 214 8 214 0 q 219 17 214 17 q 293 24 269 17 q 326 51 317 32 q 333 113 335 71 l 332 417 l 111 753 q 48 828 78 804 q -12 851 18 851 q -19 860 -18 851 q -15 868 -19 868 l 57 867 q 135 864 110 864 q 239 867 169 864 l 310 868 q 314 863 314 868 q 312 855 314 858 q 307 851 310 851 q 255 846 271 851 q 239 828 239 840 q 253 796 239 815 l 461 476 l 592 731 q 604 781 604 758 q 583 832 604 813 q 521 851 561 851 q 515 860 515 851 q 519 868 515 868 l 594 867 q 701 864 664 864 q 756 867 725 864 l 803 868 m 324 942 q 315 948 318 942 q 317 957 313 954 q 408 1044 351 985 q 465 1101 465 1101 q 516 1097 472 1108 q 595 1069 560 1085 q 615 1050 631 1053 q 326 943 467 1011 l 324 942 z "},"Ŷ":{"ha":801,"x_min":-19,"x_max":810,"o":"m 803 868 q 810 860 810 868 q 803 851 810 851 q 710 815 754 851 q 624 700 667 778 l 485 436 l 485 113 q 492 50 485 69 q 522 24 500 31 q 594 17 544 17 q 600 8 600 17 q 594 0 600 0 q 519 1 546 0 l 410 3 l 294 1 q 219 0 267 0 q 214 8 214 0 q 219 17 214 17 q 293 24 269 17 q 326 51 317 32 q 333 113 335 71 l 332 417 l 111 753 q 48 828 78 804 q -12 851 18 851 q -19 860 -18 851 q -15 868 -19 868 l 57 867 q 135 864 110 864 q 239 867 169 864 l 310 868 q 314 863 314 868 q 312 855 314 858 q 307 851 310 851 q 255 846 271 851 q 239 828 239 840 q 253 796 239 815 l 461 476 l 592 731 q 604 781 604 758 q 583 832 604 813 q 521 851 561 851 q 515 860 515 851 q 519 868 515 868 l 594 867 q 701 864 664 864 q 756 867 725 864 l 803 868 m 268 917 q 260 920 264 917 q 260 926 257 924 l 392 1086 q 403 1093 396 1093 q 417 1086 410 1093 l 561 926 q 560 919 564 924 q 554 917 557 914 l 413 969 l 269 917 l 268 917 z "},"Ÿ":{"ha":801,"x_min":-19,"x_max":810,"o":"m 803 868 q 810 860 810 868 q 803 851 810 851 q 710 815 754 851 q 624 700 667 778 l 485 436 l 485 113 q 492 50 485 69 q 522 24 500 31 q 594 17 544 17 q 600 8 600 17 q 594 0 600 0 q 519 1 546 0 l 410 3 l 294 1 q 219 0 267 0 q 214 8 214 0 q 219 17 214 17 q 293 24 269 17 q 326 51 317 32 q 333 113 335 71 l 332 417 l 111 753 q 48 828 78 804 q -12 851 18 851 q -19 860 -18 851 q -15 868 -19 868 l 57 867 q 135 864 110 864 q 239 867 169 864 l 310 868 q 314 863 314 868 q 312 855 314 858 q 307 851 310 851 q 255 846 271 851 q 239 828 239 840 q 253 796 239 815 l 461 476 l 592 731 q 604 781 604 758 q 583 832 604 813 q 521 851 561 851 q 515 860 515 851 q 519 868 515 868 l 594 867 q 701 864 664 864 q 756 867 725 864 l 803 868 m 286 976 q 231 997 251 976 q 210 1053 210 1017 q 231 1106 210 1086 q 286 1125 251 1125 q 340 1106 321 1125 q 360 1053 360 1086 q 340 997 360 1017 q 286 976 321 976 m 529 976 q 474 997 493 976 q 454 1053 454 1017 q 474 1105 454 1086 q 529 1124 494 1124 q 581 1105 563 1124 q 600 1053 600 1086 q 581 997 600 1017 q 529 976 563 976 z "},"Ẏ":{"ha":801,"x_min":-19,"x_max":810,"o":"m 803 868 q 810 860 810 868 q 803 851 810 851 q 710 815 754 851 q 624 700 667 778 l 485 436 l 485 113 q 492 50 485 69 q 522 24 500 31 q 594 17 544 17 q 600 8 600 17 q 594 0 600 0 q 519 1 546 0 l 410 3 l 294 1 q 219 0 267 0 q 214 8 214 0 q 219 17 214 17 q 293 24 269 17 q 326 51 317 32 q 333 113 335 71 l 332 417 l 111 753 q 48 828 78 804 q -12 851 18 851 q -19 860 -18 851 q -15 868 -19 868 l 57 867 q 135 864 110 864 q 239 867 169 864 l 310 868 q 314 863 314 868 q 312 855 314 858 q 307 851 310 851 q 255 846 271 851 q 239 828 239 840 q 253 796 239 815 l 461 476 l 592 731 q 604 781 604 758 q 583 832 604 813 q 521 851 561 851 q 515 860 515 851 q 519 868 515 868 l 594 867 q 701 864 664 864 q 756 867 725 864 l 803 868 m 410 990 q 347 1013 369 990 q 325 1075 325 1036 q 348 1133 325 1111 q 410 1156 371 1156 q 469 1134 447 1156 q 490 1075 490 1113 q 469 1013 490 1035 q 410 990 449 990 z "},"Ỵ":{"ha":801,"x_min":-19,"x_max":810,"o":"m 803 868 q 810 860 810 868 q 803 851 810 851 q 710 815 754 851 q 624 700 667 778 l 485 436 l 485 113 q 492 50 485 69 q 522 24 500 31 q 594 17 544 17 q 600 8 600 17 q 594 0 600 0 q 519 1 546 0 l 410 3 l 294 1 q 219 0 267 0 q 214 8 214 0 q 219 17 214 17 q 293 24 269 17 q 326 51 317 32 q 333 113 335 71 l 332 417 l 111 753 q 48 828 78 804 q -12 851 18 851 q -19 860 -18 851 q -15 868 -19 868 l 57 867 q 135 864 110 864 q 239 867 169 864 l 310 868 q 314 863 314 868 q 312 855 314 858 q 307 851 310 851 q 255 846 271 851 q 239 828 239 840 q 253 796 239 815 l 461 476 l 592 731 q 604 781 604 758 q 583 832 604 813 q 521 851 561 851 q 515 860 515 851 q 519 868 515 868 l 594 867 q 701 864 664 864 q 756 867 725 864 l 803 868 m 413 -287 q 350 -265 372 -287 q 328 -203 328 -243 q 351 -145 328 -167 q 413 -124 374 -124 q 472 -145 450 -124 q 493 -203 493 -167 q 472 -265 493 -243 q 413 -287 451 -287 z "},"Ỳ":{"ha":801,"x_min":-19,"x_max":810,"o":"m 803 868 q 810 860 810 868 q 803 851 810 851 q 710 815 754 851 q 624 700 667 778 l 485 436 l 485 113 q 492 50 485 69 q 522 24 500 31 q 594 17 544 17 q 600 8 600 17 q 594 0 600 0 q 519 1 546 0 l 410 3 l 294 1 q 219 0 267 0 q 214 8 214 0 q 219 17 214 17 q 293 24 269 17 q 326 51 317 32 q 333 113 335 71 l 332 417 l 111 753 q 48 828 78 804 q -12 851 18 851 q -19 860 -18 851 q -15 868 -19 868 l 57 867 q 135 864 110 864 q 239 867 169 864 l 310 868 q 314 863 314 868 q 312 855 314 858 q 307 851 310 851 q 255 846 271 851 q 239 828 239 840 q 253 796 239 815 l 461 476 l 592 731 q 604 781 604 758 q 583 832 604 813 q 521 851 561 851 q 515 860 515 851 q 519 868 515 868 l 594 867 q 701 864 664 864 q 756 867 725 864 l 803 868 m 551 961 q 415 1008 472 990 q 268 1050 358 1025 q 275 1067 250 1054 q 340 1092 300 1081 q 403 1103 381 1103 q 415 1100 410 1103 q 510 1017 449 1068 l 561 974 q 564 968 564 972 q 560 962 564 964 q 551 961 556 960 z "}}}
